<svg xmlns="http://www.w3.org/2000/svg" xmlns:xlink="http://www.w3.org/1999/xlink" width="500" zoomAndPan="magnify" viewBox="0 0 375 374.999991" height="500" preserveAspectRatio="xMidYMid meet" version="1.0"><defs><clipPath id="aff5abd5f6"><path d="M 13 289 L 160 289 L 160 335.34375 L 13 335.34375 Z M 13 289 " clip-rule="nonzero"/></clipPath></defs><g clip-path="url(#aff5abd5f6)"><path fill="#7ed957" d="M 146.597656 313.679688 C 147.191406 310.550781 147.4375 306.148438 145.898438 301.300781 C 144.125 295.703125 140.820312 292.003906 138.359375 289.886719 C 137.820312 289.425781 137.140625 289.171875 136.433594 289.171875 L 36.664062 289.171875 C 35.957031 289.171875 35.269531 289.425781 34.738281 289.886719 C 32.277344 292.011719 28.972656 295.710938 27.203125 301.300781 C 25.664062 306.160156 25.90625 310.558594 26.5 313.679688 C 23.78125 314.789062 20.375 316.824219 17.648438 320.597656 C 15.21875 323.957031 13.839844 328.128906 13.761719 332.34375 C 13.746094 333.136719 14.054688 333.898438 14.605469 334.46875 C 15.160156 335.03125 15.917969 335.351562 16.710938 335.351562 L 156.390625 335.351562 C 157.179688 335.351562 157.9375 335.035156 158.492188 334.46875 C 159.046875 333.902344 159.351562 333.136719 159.339844 332.351562 C 159.300781 329.914062 158.746094 325.148438 155.457031 320.601562 C 152.722656 316.820312 149.316406 314.78125 146.597656 313.679688 Z M 32.828125 303.082031 C 34 299.386719 36.054688 296.761719 37.808594 295.074219 L 135.296875 295.074219 C 137.050781 296.761719 139.105469 299.378906 140.277344 303.082031 C 141.464844 306.839844 141.257812 310.261719 140.792969 312.664062 L 32.308594 312.664062 C 31.84375 310.265625 31.632812 306.851562 32.828125 303.082031 Z M 20.023438 329.441406 C 20.386719 327.820312 21.089844 325.90625 22.429688 324.054688 C 25.070312 320.402344 28.695312 319.035156 30.410156 318.566406 L 142.691406 318.566406 C 144.40625 319.035156 148.03125 320.402344 150.671875 324.054688 C 152.011719 325.910156 152.714844 327.820312 153.078125 329.441406 Z M 20.023438 329.441406 " fill-opacity="1" fill-rule="nonzero"/></g><path fill="#7ed957" d="M 24.125 253.316406 C 30.859375 265.089844 24.191406 277.113281 24.125 277.234375 C 23.398438 278.507812 23.714844 280.121094 24.871094 281.027344 C 25.410156 281.445312 26.046875 281.648438 26.6875 281.648438 C 27.425781 281.648438 28.160156 281.371094 28.726562 280.824219 C 31.082031 278.5625 35.019531 275.699219 40.417969 274.90625 C 42.324219 274.625 44.277344 274.625 46.214844 274.90625 C 47.828125 275.125 49.328125 274.019531 49.558594 272.40625 C 49.792969 270.792969 48.671875 269.292969 47.0625 269.0625 C 44.554688 268.699219 42.03125 268.695312 39.558594 269.0625 C 36.886719 269.453125 34.5 270.234375 32.410156 271.207031 C 33.542969 265.609375 33.621094 258.03125 29.246094 250.378906 C 25.195312 243.300781 18.464844 238.292969 10.773438 236.359375 C 17.0625 230.8125 24.800781 221.949219 29.453125 209.234375 C 32.113281 201.96875 33.476562 194.199219 33.488281 186.378906 C 35.839844 188.273438 38.855469 190.011719 42.597656 190.945312 C 46.265625 191.863281 50.199219 191.867188 53.980469 190.953125 C 55.566406 190.574219 56.539062 188.976562 56.160156 187.390625 C 55.773438 185.804688 54.179688 184.835938 52.597656 185.210938 C 49.734375 185.898438 46.769531 185.902344 44.027344 185.21875 C 37.449219 183.574219 33.796875 178.558594 32.535156 176.480469 C 31.808594 175.289062 30.339844 174.765625 29.035156 175.226562 C 27.722656 175.691406 26.90625 177.007812 27.085938 178.390625 C 28.339844 188.152344 27.242188 198.113281 23.914062 207.203125 C 18.25 222.667969 7.570312 231.886719 1.710938 236.003906 C 0.65625 236.746094 0.203125 238.089844 0.597656 239.324219 C 0.992188 240.550781 2.125 241.378906 3.410156 241.378906 C 3.417969 241.378906 3.425781 241.378906 3.433594 241.378906 C 11.992188 241.269531 19.878906 245.886719 24.125 253.316406 Z M 24.125 253.316406 " fill-opacity="1" fill-rule="nonzero"/><path fill="#7ed957" d="M 198.605469 233.554688 C 199.449219 232.492188 199.464844 230.984375 198.632812 229.910156 C 197.800781 228.832031 196.339844 228.460938 195.101562 229.015625 C 193.40625 229.773438 187.382812 231.996094 180.898438 229.027344 C 175.671875 226.632812 173.199219 222.207031 172.375 220.414062 C 171.695312 218.9375 169.953125 218.285156 168.460938 218.960938 C 166.980469 219.640625 166.328125 221.394531 167.011719 222.875 C 168.109375 225.269531 171.417969 231.183594 178.441406 234.398438 C 182.492188 236.253906 186.398438 236.605469 189.652344 236.351562 C 186.628906 241.726562 183.710938 249.222656 183.375 258.453125 C 182.992188 268.992188 186.15625 277.605469 189.347656 283.519531 C 184.527344 282.707031 178.207031 282.800781 171.679688 286.140625 C 161 291.601562 157.636719 301.808594 156.863281 304.808594 C 156.453125 306.386719 157.402344 308 158.976562 308.40625 C 159.226562 308.46875 159.476562 308.5 159.722656 308.5 C 161.03125 308.5 162.230469 307.617188 162.574219 306.289062 C 163.195312 303.894531 165.878906 295.738281 174.367188 291.398438 C 184.277344 286.328125 193.914062 290.878906 194.980469 291.410156 C 196.207031 292.023438 197.714844 291.710938 198.59375 290.628906 C 199.464844 289.554688 199.476562 288.015625 198.609375 286.933594 C 195.628906 283.183594 188.753906 272.925781 189.273438 258.675781 C 189.710938 246.460938 195.308594 237.691406 198.605469 233.554688 Z M 198.605469 233.554688 " fill-opacity="1" fill-rule="nonzero"/><path fill="#7ed957" d="M 362.300781 240.953125 L 252.574219 176.578125 C 251.894531 176.179688 251.085938 176.078125 250.328125 176.273438 C 249.566406 176.472656 248.917969 176.96875 248.527344 177.652344 L 247.175781 179.996094 L 196.183594 150.078125 L 223.101562 103.355469 C 224.21875 103.757812 225.378906 103.984375 226.558594 103.984375 C 227.441406 103.984375 228.332031 103.871094 229.203125 103.636719 C 231.878906 102.929688 234.121094 101.210938 235.515625 98.796875 L 236.597656 96.914062 C 239.449219 91.964844 237.769531 85.589844 232.859375 82.707031 L 162.722656 41.558594 C 160.34375 40.160156 157.554688 39.777344 154.898438 40.484375 C 152.214844 41.191406 149.972656 42.910156 148.578125 45.332031 L 147.5 47.207031 C 144.964844 51.609375 146.019531 57.117188 149.734375 60.316406 L 92.992188 158.808594 C 92.992188 158.808594 92.992188 158.808594 92.992188 158.8125 C 92.988281 158.8125 92.992188 158.8125 92.992188 158.8125 L 81.617188 178.558594 C 79.664062 177.851562 77.554688 177.738281 75.503906 178.285156 C 72.828125 178.996094 70.585938 180.714844 69.199219 183.128906 L 68.117188 185.003906 C 65.257812 189.957031 66.9375 196.328125 71.851562 199.214844 L 141.988281 240.363281 C 143.589844 241.300781 145.367188 241.777344 147.175781 241.777344 C 148.058594 241.777344 148.945312 241.664062 149.824219 241.429688 C 152.5 240.722656 154.742188 239 156.128906 236.589844 L 157.214844 234.710938 C 159.75 230.308594 158.695312 224.796875 154.980469 221.597656 L 166.355469 201.855469 C 166.355469 201.851562 166.359375 201.851562 166.363281 201.847656 C 166.363281 201.847656 166.363281 201.847656 166.363281 201.84375 L 181.902344 174.878906 L 232.894531 204.796875 L 231.523438 207.175781 C 230.714844 208.582031 231.1875 210.378906 232.585938 211.199219 L 342.3125 275.574219 C 345.390625 277.378906 348.808594 278.300781 352.277344 278.300781 C 353.972656 278.300781 355.675781 278.078125 357.363281 277.632812 C 362.511719 276.269531 366.824219 272.960938 369.496094 268.320312 C 374.988281 258.78125 371.761719 246.503906 362.300781 240.953125 Z M 162.738281 196.304688 L 99.554688 159.238281 L 141.96875 85.617188 L 205.15625 122.683594 L 183.9375 159.515625 Z M 86.796875 181.382812 L 96.609375 164.351562 L 159.792969 201.421875 L 149.980469 218.453125 Z M 217.917969 100.535156 L 208.105469 117.566406 L 144.917969 80.496094 L 154.730469 63.464844 Z M 152.613281 50.15625 L 153.691406 48.28125 C 154.289062 47.238281 155.25 46.496094 156.402344 46.195312 C 156.773438 46.097656 157.152344 46.050781 157.527344 46.050781 C 158.300781 46.050781 159.058594 46.253906 159.738281 46.65625 L 229.875 87.804688 C 232.003906 89.050781 232.726562 91.816406 231.488281 93.96875 L 230.40625 95.851562 C 229.804688 96.890625 228.84375 97.628906 227.695312 97.933594 C 226.5625 98.238281 225.375 98.070312 224.355469 97.472656 L 223.425781 96.925781 L 189.289062 76.902344 L 154.21875 56.320312 C 152.09375 55.078125 151.371094 52.308594 152.613281 50.15625 Z M 152.101562 231.761719 L 151.019531 233.644531 C 150.417969 234.683594 149.460938 235.417969 148.308594 235.722656 C 147.175781 236.03125 145.988281 235.863281 144.96875 235.265625 L 74.832031 194.121094 C 72.707031 192.871094 71.984375 190.105469 73.226562 187.953125 L 74.308594 186.074219 C 74.90625 185.035156 75.867188 184.296875 77.015625 183.992188 C 77.386719 183.890625 77.769531 183.84375 78.144531 183.84375 C 78.914062 183.84375 79.675781 184.050781 80.355469 184.453125 L 81.285156 185 L 133.472656 215.617188 L 150.492188 225.601562 C 152.621094 226.84375 153.34375 229.609375 152.101562 231.761719 Z M 184.84375 169.765625 L 193.234375 155.195312 L 244.230469 185.109375 L 235.835938 199.679688 Z M 364.378906 265.371094 C 362.492188 268.640625 359.464844 270.96875 355.84375 271.929688 C 352.253906 272.882812 348.503906 272.367188 345.289062 270.480469 L 238.089844 207.589844 L 239.449219 205.230469 C 239.449219 205.230469 239.453125 205.230469 239.453125 205.230469 C 239.453125 205.230469 239.453125 205.226562 239.453125 205.226562 L 252.152344 183.179688 L 359.316406 246.050781 C 365.992188 249.960938 368.261719 258.632812 364.378906 265.371094 Z M 364.378906 265.371094 " fill-opacity="1" fill-rule="nonzero"/></svg>