<svg xmlns="http://www.w3.org/2000/svg" xmlns:xlink="http://www.w3.org/1999/xlink" width="500" zoomAndPan="magnify" viewBox="0 0 375 374.999991" height="500" preserveAspectRatio="xMidYMid meet" version="1.0"><defs><clipPath id="0f29529d24"><path d="M 7.039062 78.324219 L 367.789062 78.324219 L 367.789062 296.5625 L 7.039062 296.5625 Z M 7.039062 78.324219 " clip-rule="nonzero"/></clipPath></defs><g clip-path="url(#0f29529d24)"><path fill="#7ed957" d="M 27.679688 86.839844 C 21.007812 86.839844 15.5625 92.285156 15.5625 98.960938 L 15.5625 275.921875 C 15.5625 282.59375 21.007812 288.039062 27.679688 288.039062 L 347.148438 288.039062 C 353.824219 288.039062 359.269531 282.59375 359.269531 275.921875 L 359.269531 98.960938 C 359.269531 92.285156 353.824219 86.839844 347.148438 86.839844 Z M 347.148438 296.5625 L 27.679688 296.5625 C 16.296875 296.5625 7.039062 287.308594 7.039062 275.921875 L 7.039062 98.960938 C 7.039062 87.578125 16.296875 78.320312 27.679688 78.320312 L 347.148438 78.320312 C 358.535156 78.320312 367.789062 87.578125 367.789062 98.960938 L 367.789062 275.921875 C 367.789062 287.28125 358.535156 296.5625 347.148438 296.5625 " fill-opacity="1" fill-rule="nonzero"/></g><path fill="#7ed957" d="M 130.652344 261.292969 C 128.757812 261.292969 127.027344 260.015625 126.53125 258.121094 C 122.671875 243.375 110.4375 232.320312 95.40625 229.929688 C 91.425781 229.292969 87.238281 229.292969 83.261719 229.929688 C 68.207031 232.320312 55.992188 243.375 52.132812 258.121094 C 51.542969 260.394531 49.199219 261.765625 46.925781 261.152344 C 44.65625 260.558594 43.28125 258.214844 43.898438 255.945312 C 48.632812 237.929688 63.570312 224.414062 81.933594 221.5 C 86.789062 220.722656 91.902344 220.722656 96.753906 221.5 C 115.148438 224.414062 130.0625 237.929688 134.792969 255.945312 C 135.386719 258.214844 134.039062 260.558594 131.761719 261.152344 C 131.359375 261.246094 131.007812 261.292969 130.652344 261.292969 " fill-opacity="1" fill-rule="nonzero"/><path fill="#7ed957" d="M 52.25 261.648438 L 126.390625 261.648438 L 126.390625 165.144531 L 52.25 165.144531 Z M 130.652344 270.171875 L 47.992188 270.171875 C 45.648438 270.171875 43.730469 268.25 43.730469 265.910156 L 43.730469 160.882812 C 43.730469 158.539062 45.648438 156.621094 47.992188 156.621094 L 130.652344 156.621094 C 132.992188 156.621094 134.914062 158.539062 134.914062 160.882812 L 134.914062 265.910156 C 134.914062 268.273438 132.992188 270.171875 130.652344 270.171875 " fill-opacity="1" fill-rule="nonzero"/><path fill="#7ed957" d="M 326.839844 176.671875 L 163.980469 176.671875 C 161.636719 176.671875 159.722656 174.753906 159.722656 172.410156 C 159.722656 170.066406 161.636719 168.148438 163.980469 168.148438 L 326.839844 168.148438 C 329.183594 168.148438 331.097656 170.066406 331.097656 172.410156 C 331.097656 174.753906 329.207031 176.671875 326.839844 176.671875 " fill-opacity="1" fill-rule="nonzero"/><path fill="#7ed957" d="M 262.902344 204.011719 L 163.980469 204.011719 C 161.636719 204.011719 159.722656 202.09375 159.722656 199.75 C 159.722656 197.40625 161.636719 195.488281 163.980469 195.488281 L 262.878906 195.488281 C 265.222656 195.488281 267.140625 197.40625 267.140625 199.75 C 267.140625 202.09375 265.246094 204.011719 262.902344 204.011719 " fill-opacity="1" fill-rule="nonzero"/><path fill="#7ed957" d="M 309.914062 231.324219 L 163.980469 231.324219 C 161.636719 231.324219 159.722656 229.410156 159.722656 227.0625 C 159.722656 224.722656 161.636719 222.804688 163.980469 222.804688 L 309.914062 222.804688 C 312.257812 222.804688 314.175781 224.722656 314.175781 227.0625 C 314.175781 229.410156 312.28125 231.324219 309.914062 231.324219 " fill-opacity="1" fill-rule="nonzero"/><path fill="#7ed957" d="M 252.933594 258.667969 L 163.980469 258.667969 C 161.636719 258.667969 159.722656 256.75 159.722656 254.40625 C 159.722656 252.0625 161.636719 250.144531 163.980469 250.144531 L 252.914062 250.144531 C 255.257812 250.144531 257.175781 252.0625 257.175781 254.40625 C 257.175781 256.75 255.28125 258.667969 252.933594 258.667969 " fill-opacity="1" fill-rule="nonzero"/><path fill="#7ed957" d="M 52.25 136.832031 L 322.578125 136.832031 L 322.578125 113.234375 L 52.25 113.234375 Z M 326.839844 145.355469 L 47.992188 145.355469 C 45.648438 145.355469 43.730469 143.4375 43.730469 141.09375 L 43.730469 108.972656 C 43.730469 106.628906 45.648438 104.710938 47.992188 104.710938 L 326.839844 104.710938 C 329.183594 104.710938 331.097656 106.628906 331.097656 108.972656 L 331.097656 141.09375 C 331.097656 143.4375 329.207031 145.355469 326.839844 145.355469 " fill-opacity="1" fill-rule="nonzero"/><path fill="#7ed957" d="M 89.324219 184.765625 C 79.355469 184.765625 71.234375 192.886719 71.234375 202.851562 C 71.234375 212.816406 79.355469 220.933594 89.324219 220.933594 C 99.289062 220.933594 107.40625 212.816406 107.40625 202.851562 C 107.40625 192.886719 99.289062 184.765625 89.324219 184.765625 Z M 89.324219 229.457031 C 74.644531 229.457031 62.714844 217.527344 62.714844 202.851562 C 62.714844 188.175781 74.644531 176.246094 89.324219 176.246094 C 104 176.246094 115.925781 188.175781 115.925781 202.851562 C 115.925781 217.503906 104 229.457031 89.324219 229.457031 " fill-opacity="1" fill-rule="nonzero"/></svg>