<svg xmlns="http://www.w3.org/2000/svg" xmlns:xlink="http://www.w3.org/1999/xlink" width="500" zoomAndPan="magnify" viewBox="0 0 375 374.999991" height="500" preserveAspectRatio="xMidYMid meet" version="1.0"><defs><clipPath id="1bffda13ff"><path d="M 6.746094 8.878906 L 367 8.878906 L 367 348 L 6.746094 348 Z M 6.746094 8.878906 " clip-rule="nonzero"/></clipPath></defs><g clip-path="url(#1bffda13ff)"><path fill="#7ed957" d="M 133.953125 105.714844 L 220.644531 105.714844 L 234.167969 97.898438 L 234.167969 29.6875 C 234.167969 22.859375 228.582031 17.339844 221.832031 17.339844 L 27.519531 17.339844 C 20.71875 17.339844 15.183594 22.878906 15.183594 29.6875 L 15.183594 283.269531 C 15.183594 290.078125 20.71875 295.617188 27.519531 295.617188 L 221.832031 295.617188 C 228.625 295.617188 234.167969 290.070312 234.167969 283.269531 L 234.167969 251.246094 L 181.121094 281.902344 C 176.4375 284.605469 170.417969 282.925781 167.847656 278.152344 L 145.007812 238.546875 C 138.53125 238.546875 124.324219 240.644531 124.324219 228.902344 L 124.324219 202.6875 L 111.003906 179.570312 C 106.308594 169.363281 117.511719 165.308594 124.324219 161.375 L 124.324219 115.359375 C 124.324219 110.042969 128.648438 105.714844 133.953125 105.714844 Z M 274.289062 270.261719 C 283.269531 261.269531 298.707031 267.65625 298.707031 280.382812 C 298.707031 284.03125 297.304688 287.691406 294.507812 290.5 L 294.515625 290.507812 C 285.53125 299.496094 270.097656 293.105469 270.097656 280.382812 C 270.097656 276.722656 271.496094 273.070312 274.296875 270.269531 Z M 284.402344 274.511719 C 282.902344 274.511719 281.398438 275.082031 280.25 276.230469 L 280.246094 276.222656 C 274.800781 281.699219 283.085938 289.992188 288.542969 284.53125 L 288.558594 284.535156 C 292.214844 280.875 289.632812 274.511719 284.402344 274.511719 Z M 280.5625 322.121094 C 276.628906 326.054688 270.667969 320.078125 274.589844 316.152344 L 320.132812 270.5625 C 324.058594 266.636719 330.027344 272.605469 326.097656 276.539062 Z M 300.34375 244.882812 C 346 244.882812 369.003906 300.390625 336.695312 332.730469 C 304.394531 365.066406 248.933594 342.042969 248.933594 296.34375 C 248.933594 267.921875 271.953125 244.882812 300.34375 244.882812 Z M 330.730469 265.929688 C 303.726562 238.898438 257.375 258.144531 257.375 296.34375 C 257.375 334.539062 303.734375 353.785156 330.730469 326.757812 C 347.511719 309.964844 347.511719 282.726562 330.730469 265.929688 Z M 234.132812 146.992188 C 234.132812 144.527344 233.617188 139.59375 238.351562 139.59375 C 243.085938 139.59375 242.570312 144.515625 242.570312 146.972656 C 253.585938 150.175781 256.902344 165.589844 249.140625 165.589844 C 243.753906 165.589844 245.996094 159.734375 243.007812 156.742188 C 236.957031 150.679688 227.625 159.839844 233.765625 165.992188 L 233.757812 166 C 237.613281 169.84375 242.402344 165.710938 248.976562 172.300781 C 257.050781 180.382812 253.429688 194.136719 242.570312 197.289062 C 242.570312 199.746094 243.078125 204.660156 238.351562 204.660156 C 233.617188 204.660156 234.132812 199.730469 234.132812 197.269531 C 223.167969 194.003906 219.882812 178.671875 227.632812 178.671875 C 233.046875 178.671875 230.671875 184.472656 233.929688 187.695312 C 239.695312 193.410156 249.1875 184.457031 243.007812 178.269531 C 239.152344 174.40625 234.398438 178.558594 227.808594 171.953125 L 227.796875 171.960938 C 219.722656 163.878906 223.351562 150.203125 234.132812 146.992188 Z M 157.679688 117.046875 L 319.101562 117.046875 C 325.570312 117.046875 321.039062 124.289062 327.066406 130.324219 C 333.09375 136.355469 340.332031 131.824219 340.332031 138.304688 L 340.332031 205.957031 C 340.332031 212.4375 333.09375 207.90625 327.066406 213.9375 C 321.039062 219.972656 325.570312 227.207031 319.101562 227.207031 L 157.679688 227.207031 C 151.203125 227.207031 155.730469 219.972656 149.707031 213.9375 C 143.679688 207.90625 136.441406 212.4375 136.441406 205.957031 L 136.441406 138.304688 C 136.441406 131.824219 143.679688 136.355469 149.707031 130.324219 C 155.730469 124.289062 151.203125 117.046875 157.679688 117.046875 Z M 315.300781 125.496094 L 161.472656 125.496094 C 159.777344 133.808594 153.1875 140.402344 144.882812 142.101562 L 144.882812 202.160156 C 153.1875 203.859375 159.777344 210.453125 161.472656 218.761719 L 315.300781 218.761719 C 316.996094 210.453125 323.585938 203.859375 331.890625 202.160156 L 331.890625 142.101562 C 323.585938 140.402344 316.996094 133.808594 315.300781 125.496094 Z M 238.386719 128.9375 C 276.707031 128.9375 296.019531 175.53125 268.902344 202.675781 C 241.785156 229.820312 195.234375 210.488281 195.234375 172.128906 C 195.234375 148.273438 214.554688 128.9375 238.386719 128.9375 Z M 262.929688 147.554688 C 241.121094 125.726562 203.671875 141.269531 203.671875 172.128906 C 203.671875 202.984375 241.121094 218.535156 262.929688 196.699219 C 276.488281 183.132812 276.488281 161.128906 262.929688 147.554688 Z M 35.136719 146.28125 C 29.582031 146.28125 29.582031 137.835938 35.136719 137.835938 L 111.8125 137.835938 C 117.371094 137.835938 117.371094 146.28125 111.8125 146.28125 Z M 35.136719 178.382812 C 29.582031 178.382812 29.582031 169.933594 35.136719 169.933594 L 95.878906 169.933594 C 101.433594 169.933594 101.433594 178.382812 95.878906 178.382812 Z M 35.136719 210.480469 C 29.582031 210.480469 29.582031 202.035156 35.136719 202.035156 L 110.441406 202.035156 C 115.996094 202.035156 115.996094 210.480469 110.441406 210.480469 Z M 35.136719 242.574219 C 29.582031 242.574219 29.582031 234.128906 35.136719 234.128906 L 114.289062 234.128906 C 119.84375 234.128906 119.84375 242.574219 114.289062 242.574219 Z M 35.136719 274.675781 C 29.582031 274.675781 29.582031 266.226562 35.136719 266.226562 L 148.902344 266.226562 C 154.453125 266.226562 154.453125 274.675781 148.902344 274.675781 Z M 87.382812 35.804688 C 92.9375 35.804688 92.9375 44.25 87.382812 44.25 L 67.972656 44.25 L 67.972656 87.332031 C 67.972656 92.894531 59.53125 92.894531 59.53125 87.332031 L 59.53125 44.25 L 40.117188 44.25 C 34.566406 44.25 34.566406 35.804688 40.117188 35.804688 Z M 102.496094 66.101562 L 115.265625 38.191406 C 116.792969 34.855469 121.449219 34.996094 122.910156 38.191406 L 144.597656 85.585938 C 146.898438 90.621094 139.253906 94.125 136.949219 89.078125 L 129.023438 71.753906 L 109.164062 71.753906 L 101.230469 89.078125 C 98.929688 94.125 91.277344 90.621094 93.585938 85.585938 Z M 113.023438 63.308594 L 125.15625 63.308594 L 119.09375 50.046875 Z M 206.246094 36.953125 C 210.179688 33.023438 216.140625 38.992188 212.21875 42.929688 L 191.527344 63.636719 L 212.21875 84.347656 C 216.140625 88.277344 210.179688 94.253906 206.246094 90.316406 L 185.558594 69.609375 L 164.867188 90.316406 C 160.945312 94.253906 154.972656 88.277344 158.902344 84.347656 L 179.59375 63.636719 L 158.902344 42.929688 C 154.972656 38.992188 160.945312 33.023438 164.867188 36.953125 L 185.558594 57.664062 Z M 242.605469 93.019531 L 295.660156 62.363281 L 295.652344 62.359375 C 300.28125 59.683594 306.214844 61.316406 308.816406 65.90625 L 331.78125 105.714844 C 338.25 105.714844 352.457031 103.617188 352.457031 115.359375 L 352.457031 141.574219 L 365.515625 164.226562 C 368.171875 168.835938 366.597656 174.699219 362 177.359375 L 362.003906 177.367188 L 352.457031 182.886719 L 352.457031 228.902344 C 352.457031 234.21875 348.128906 238.546875 342.820312 238.546875 L 256.144531 238.546875 L 242.605469 246.367188 L 242.605469 283.269531 C 242.605469 294.695312 233.246094 304.0625 221.832031 304.0625 L 27.519531 304.0625 C 16.105469 304.0625 6.746094 294.695312 6.746094 283.269531 L 6.746094 29.6875 C 6.746094 18.261719 16.105469 8.894531 27.519531 8.894531 L 221.832031 8.894531 C 233.265625 8.894531 242.605469 18.261719 242.605469 29.6875 Z M 236.023438 240.441406 L 239.308594 238.546875 L 154.707031 238.546875 C 156.84375 242.25 174.804688 274.398438 175.992188 274.714844 C 176.296875 274.800781 176.625 274.773438 176.902344 274.609375 Z M 240.832031 103.757812 L 237.453125 105.714844 L 322.054688 105.714844 L 301.433594 69.980469 C 300.890625 69.152344 299.992188 69.601562 299.515625 69.847656 Z M 306.179688 302.183594 C 315.183594 293.175781 330.597656 299.617188 330.597656 312.308594 C 330.597656 315.96875 329.199219 319.621094 326.398438 322.421875 L 326.40625 322.429688 C 320.828125 328.011719 311.792969 328.027344 306.1875 322.421875 L 306.179688 322.429688 C 300.597656 316.839844 300.597656 307.773438 306.179688 302.183594 Z M 312.152344 308.152344 C 309.859375 310.449219 309.859375 314.164062 312.144531 316.453125 L 312.136719 316.46875 C 314.421875 318.742188 318.144531 318.75 320.441406 316.453125 L 320.449219 316.460938 C 325.902344 310.984375 317.617188 302.675781 312.152344 308.152344 Z M 352.457031 158.398438 L 352.457031 173.160156 L 357.785156 170.074219 L 357.785156 170.082031 L 358.238281 168.421875 Z M 124.324219 185.863281 L 124.324219 171.101562 L 118.992188 174.1875 L 118.988281 174.179688 L 118.542969 175.839844 Z M 342.820312 114.160156 L 133.953125 114.160156 L 132.761719 115.359375 L 132.761719 228.902344 L 133.953125 230.101562 L 342.820312 230.101562 L 344.015625 228.902344 L 344.015625 115.359375 Z M 342.820312 114.160156 " fill-opacity="1" fill-rule="nonzero"/></g></svg>