<svg xmlns="http://www.w3.org/2000/svg" xmlns:xlink="http://www.w3.org/1999/xlink" width="500" zoomAndPan="magnify" viewBox="0 0 375 374.999991" height="500" preserveAspectRatio="xMidYMid meet" version="1.0"><defs><clipPath id="92eac9543c"><path d="M 36 7.007812 L 333 7.007812 L 333 210 L 36 210 Z M 36 7.007812 " clip-rule="nonzero"/></clipPath><clipPath id="c3c35ca2e6"><path d="M 9.140625 298 L 108 298 L 108 375 L 9.140625 375 Z M 9.140625 298 " clip-rule="nonzero"/></clipPath><clipPath id="84a0ee0b8c"><path d="M 260 298 L 359.390625 298 L 359.390625 375 L 260 375 Z M 260 298 " clip-rule="nonzero"/></clipPath></defs><g clip-path="url(#92eac9543c)"><path fill="#7ed957" d="M 49.558594 195.621094 L 95.628906 195.621094 C 95.988281 196.140625 96.363281 196.644531 96.753906 197.136719 C 97.144531 197.632812 97.550781 198.113281 97.96875 198.582031 C 98.390625 199.050781 98.824219 199.507812 99.269531 199.953125 C 99.71875 200.394531 100.179688 200.824219 100.652344 201.242188 C 101.125 201.65625 101.609375 202.058594 102.105469 202.445312 C 102.605469 202.832031 103.113281 203.203125 103.632812 203.558594 C 104.152344 203.914062 104.679688 204.253906 105.21875 204.578125 C 105.761719 204.902344 106.308594 205.210938 106.867188 205.503906 C 107.425781 205.792969 107.992188 206.066406 108.566406 206.324219 C 109.140625 206.582031 109.722656 206.820312 110.3125 207.042969 C 110.902344 207.265625 111.5 207.472656 112.101562 207.65625 C 112.703125 207.84375 113.308594 208.011719 113.917969 208.160156 C 114.53125 208.3125 115.148438 208.441406 115.765625 208.554688 C 116.386719 208.667969 117.007812 208.761719 117.632812 208.839844 C 118.257812 208.914062 118.886719 208.972656 119.515625 209.007812 C 120.144531 209.046875 120.773438 209.066406 121.402344 209.066406 C 122.03125 209.066406 122.660156 209.046875 123.289062 209.007812 C 123.917969 208.972656 124.546875 208.914062 125.171875 208.839844 C 125.796875 208.761719 126.417969 208.667969 127.039062 208.554688 C 127.65625 208.441406 128.273438 208.3125 128.882812 208.160156 C 129.496094 208.011719 130.101562 207.84375 130.703125 207.65625 C 131.304688 207.472656 131.902344 207.265625 132.488281 207.042969 C 133.078125 206.820312 133.660156 206.582031 134.234375 206.324219 C 134.8125 206.066406 135.378906 205.792969 135.9375 205.503906 C 136.496094 205.210938 137.042969 204.902344 137.582031 204.578125 C 138.125 204.253906 138.652344 203.914062 139.171875 203.558594 C 139.691406 203.203125 140.199219 202.832031 140.699219 202.445312 C 141.195312 202.058594 141.679688 201.65625 142.152344 201.242188 C 142.625 200.824219 143.085938 200.394531 143.53125 199.953125 C 143.980469 199.507812 144.414062 199.050781 144.832031 198.582031 C 145.253906 198.113281 145.660156 197.632812 146.050781 197.136719 C 146.441406 196.644531 146.816406 196.140625 147.175781 195.621094 L 221.355469 195.621094 C 221.714844 196.140625 222.089844 196.644531 222.480469 197.136719 C 222.871094 197.632812 223.277344 198.113281 223.699219 198.582031 C 224.117188 199.050781 224.550781 199.507812 225 199.953125 C 225.445312 200.394531 225.90625 200.824219 226.378906 201.242188 C 226.851562 201.65625 227.335938 202.058594 227.832031 202.445312 C 228.332031 202.832031 228.839844 203.203125 229.359375 203.558594 C 229.878906 203.914062 230.40625 204.253906 230.949219 204.578125 C 231.488281 204.902344 232.035156 205.210938 232.59375 205.503906 C 233.152344 205.792969 233.71875 206.066406 234.292969 206.324219 C 234.871094 206.582031 235.453125 206.820312 236.042969 207.042969 C 236.628906 207.265625 237.226562 207.472656 237.828125 207.65625 C 238.429688 207.84375 239.035156 208.011719 239.648438 208.160156 C 240.257812 208.3125 240.875 208.441406 241.492188 208.554688 C 242.113281 208.667969 242.734375 208.761719 243.359375 208.839844 C 243.984375 208.914062 244.613281 208.972656 245.242188 209.007812 C 245.871094 209.046875 246.5 209.066406 247.128906 209.066406 C 247.757812 209.066406 248.386719 209.046875 249.015625 209.007812 C 249.644531 208.972656 250.273438 208.914062 250.898438 208.839844 C 251.523438 208.761719 252.144531 208.667969 252.765625 208.554688 C 253.382812 208.441406 254 208.3125 254.613281 208.160156 C 255.222656 208.011719 255.828125 207.84375 256.429688 207.65625 C 257.03125 207.472656 257.628906 207.265625 258.21875 207.042969 C 258.808594 206.820312 259.390625 206.582031 259.964844 206.324219 C 260.539062 206.066406 261.105469 205.792969 261.664062 205.503906 C 262.222656 205.210938 262.769531 204.902344 263.3125 204.578125 C 263.851562 204.253906 264.378906 203.914062 264.898438 203.558594 C 265.417969 203.203125 265.925781 202.832031 266.425781 202.445312 C 266.921875 202.058594 267.40625 201.65625 267.878906 201.242188 C 268.351562 200.824219 268.8125 200.394531 269.261719 199.953125 C 269.707031 199.507812 270.140625 199.050781 270.5625 198.582031 C 270.980469 198.113281 271.386719 197.632812 271.777344 197.136719 C 272.167969 196.644531 272.542969 196.140625 272.902344 195.621094 L 318.972656 195.621094 C 319.859375 195.621094 320.734375 195.535156 321.601562 195.363281 C 322.46875 195.191406 323.3125 194.933594 324.128906 194.597656 C 324.945312 194.257812 325.722656 193.84375 326.457031 193.351562 C 327.191406 192.859375 327.875 192.300781 328.5 191.675781 C 329.125 191.050781 329.683594 190.371094 330.175781 189.632812 C 330.664062 188.898438 331.082031 188.121094 331.417969 187.304688 C 331.757812 186.488281 332.011719 185.644531 332.183594 184.777344 C 332.359375 183.910156 332.445312 183.035156 332.445312 182.148438 L 332.445312 177.660156 C 332.445312 176.773438 332.359375 175.898438 332.183594 175.03125 C 332.011719 174.164062 331.757812 173.320312 331.417969 172.503906 C 331.082031 171.6875 330.664062 170.910156 330.175781 170.175781 C 329.683594 169.4375 329.125 168.757812 328.5 168.132812 C 327.875 167.507812 327.191406 166.949219 326.457031 166.457031 C 325.722656 165.964844 324.945312 165.550781 324.128906 165.210938 C 323.3125 164.875 322.46875 164.617188 321.601562 164.445312 C 320.734375 164.273438 319.859375 164.1875 318.972656 164.1875 L 318.972656 20.480469 C 318.972656 19.59375 318.886719 18.71875 318.714844 17.851562 C 318.542969 16.984375 318.285156 16.140625 317.949219 15.324219 C 317.609375 14.507812 317.195312 13.730469 316.703125 12.992188 C 316.210938 12.257812 315.652344 11.578125 315.027344 10.953125 C 314.402344 10.328125 313.722656 9.769531 312.988281 9.277344 C 312.25 8.785156 311.476562 8.371094 310.65625 8.03125 C 309.839844 7.695312 309 7.4375 308.128906 7.265625 C 307.261719 7.09375 306.386719 7.007812 305.503906 7.007812 L 63.027344 7.007812 C 62.144531 7.007812 61.269531 7.09375 60.402344 7.265625 C 59.53125 7.4375 58.691406 7.695312 57.875 8.03125 C 57.054688 8.371094 56.28125 8.785156 55.542969 9.277344 C 54.808594 9.769531 54.128906 10.328125 53.503906 10.953125 C 52.878906 11.578125 52.320312 12.257812 51.828125 12.992188 C 51.335938 13.730469 50.921875 14.507812 50.582031 15.324219 C 50.246094 16.140625 49.988281 16.984375 49.816406 17.851562 C 49.644531 18.71875 49.558594 19.59375 49.558594 20.480469 L 49.558594 164.1875 C 48.671875 164.1875 47.796875 164.273438 46.929688 164.445312 C 46.0625 164.617188 45.21875 164.875 44.402344 165.210938 C 43.585938 165.550781 42.808594 165.964844 42.074219 166.457031 C 41.339844 166.949219 40.65625 167.507812 40.03125 168.132812 C 39.40625 168.757812 38.847656 169.4375 38.355469 170.175781 C 37.867188 170.910156 37.449219 171.6875 37.113281 172.503906 C 36.773438 173.320312 36.519531 174.164062 36.347656 175.03125 C 36.171875 175.898438 36.085938 176.773438 36.085938 177.660156 L 36.085938 182.148438 C 36.085938 183.035156 36.171875 183.910156 36.347656 184.777344 C 36.519531 185.644531 36.773438 186.488281 37.113281 187.304688 C 37.449219 188.121094 37.867188 188.898438 38.355469 189.632812 C 38.847656 190.371094 39.40625 191.050781 40.03125 191.675781 C 40.65625 192.300781 41.339844 192.859375 42.074219 193.351562 C 42.808594 193.84375 43.585938 194.257812 44.402344 194.597656 C 45.21875 194.933594 46.0625 195.191406 46.929688 195.363281 C 47.796875 195.535156 48.671875 195.621094 49.558594 195.621094 Z M 134.871094 195.621094 C 133.90625 196.347656 132.890625 196.988281 131.820312 197.546875 C 130.753906 198.109375 129.644531 198.578125 128.5 198.960938 C 127.355469 199.34375 126.1875 199.628906 125 199.824219 C 123.808594 200.015625 122.609375 200.113281 121.402344 200.113281 C 120.195312 200.113281 118.996094 200.015625 117.804688 199.824219 C 116.613281 199.628906 115.445312 199.34375 114.300781 198.960938 C 113.15625 198.578125 112.050781 198.109375 110.980469 197.546875 C 109.914062 196.988281 108.894531 196.347656 107.929688 195.621094 C 106.527344 194.582031 105.265625 193.398438 104.144531 192.058594 C 103.023438 190.722656 102.070312 189.277344 101.292969 187.714844 C 100.511719 186.15625 99.925781 184.523438 99.527344 182.824219 C 99.132812 181.125 98.941406 179.402344 98.949219 177.660156 C 98.941406 176.144531 99.089844 174.648438 99.398438 173.167969 C 100.0625 169.867188 101.410156 166.871094 103.441406 164.1875 C 103.960938 163.492188 104.519531 162.828125 105.121094 162.199219 C 105.71875 161.570312 106.347656 160.976562 107.015625 160.417969 C 107.683594 159.863281 108.378906 159.347656 109.105469 158.871094 C 109.832031 158.394531 110.585938 157.964844 111.363281 157.574219 C 112.136719 157.1875 112.933594 156.84375 113.75 156.546875 C 114.566406 156.253906 115.398438 156.003906 116.242188 155.804688 C 117.089844 155.605469 117.941406 155.457031 118.804688 155.355469 C 119.667969 155.253906 120.535156 155.203125 121.402344 155.203125 C 122.269531 155.203125 123.136719 155.253906 124 155.355469 C 124.859375 155.457031 125.714844 155.605469 126.558594 155.804688 C 127.40625 156.003906 128.234375 156.253906 129.050781 156.546875 C 129.867188 156.84375 130.664062 157.1875 131.441406 157.574219 C 132.21875 157.964844 132.972656 158.394531 133.699219 158.871094 C 134.425781 159.347656 135.121094 159.863281 135.789062 160.417969 C 136.453125 160.976562 137.085938 161.570312 137.683594 162.199219 C 138.28125 162.828125 138.84375 163.492188 139.363281 164.1875 C 141.394531 166.871094 142.742188 169.867188 143.402344 173.167969 C 143.714844 174.648438 143.863281 176.144531 143.851562 177.660156 C 143.863281 179.402344 143.671875 181.125 143.277344 182.824219 C 142.878906 184.523438 142.292969 186.15625 141.511719 187.714844 C 140.730469 189.277344 139.78125 190.722656 138.660156 192.058594 C 137.535156 193.398438 136.273438 194.582031 134.871094 195.621094 Z M 151.53125 186.640625 C 152.402344 183.710938 152.835938 180.714844 152.832031 177.660156 C 152.851562 176.152344 152.730469 174.652344 152.472656 173.167969 L 216.058594 173.167969 C 215.800781 174.652344 215.679688 176.152344 215.699219 177.660156 C 215.695312 180.714844 216.128906 183.710938 217 186.640625 Z M 260.601562 195.621094 C 259.636719 196.347656 258.617188 196.988281 257.550781 197.546875 C 256.480469 198.109375 255.375 198.578125 254.230469 198.960938 C 253.085938 199.34375 251.917969 199.628906 250.726562 199.824219 C 249.535156 200.015625 248.335938 200.113281 247.128906 200.113281 C 245.921875 200.113281 244.722656 200.015625 243.53125 199.824219 C 242.34375 199.628906 241.175781 199.34375 240.03125 198.960938 C 238.886719 198.578125 237.777344 198.109375 236.710938 197.546875 C 235.640625 196.988281 234.625 196.347656 233.660156 195.621094 C 232.257812 194.582031 230.996094 193.398438 229.871094 192.058594 C 228.75 190.722656 227.800781 189.277344 227.019531 187.714844 C 226.238281 186.15625 225.652344 184.523438 225.253906 182.824219 C 224.859375 181.125 224.667969 179.402344 224.679688 177.660156 C 224.667969 176.144531 224.816406 174.648438 225.128906 173.167969 C 225.789062 169.867188 227.136719 166.871094 229.167969 164.1875 C 229.6875 163.492188 230.25 162.828125 230.847656 162.199219 C 231.445312 161.570312 232.078125 160.976562 232.742188 160.417969 C 233.410156 159.863281 234.105469 159.347656 234.832031 158.871094 C 235.558594 158.394531 236.3125 157.964844 237.089844 157.574219 C 237.867188 157.1875 238.664062 156.84375 239.480469 156.546875 C 240.296875 156.253906 241.125 156.003906 241.972656 155.804688 C 242.816406 155.605469 243.671875 155.457031 244.53125 155.355469 C 245.394531 155.253906 246.261719 155.203125 247.128906 155.203125 C 247.996094 155.203125 248.863281 155.253906 249.726562 155.355469 C 250.589844 155.457031 251.441406 155.605469 252.289062 155.804688 C 253.132812 156.003906 253.964844 156.253906 254.78125 156.546875 C 255.597656 156.84375 256.394531 157.1875 257.167969 157.574219 C 257.945312 157.964844 258.699219 158.394531 259.425781 158.871094 C 260.152344 159.347656 260.847656 159.863281 261.515625 160.417969 C 262.183594 160.976562 262.8125 161.570312 263.410156 162.199219 C 264.011719 162.828125 264.570312 163.492188 265.089844 164.1875 C 267.121094 166.871094 268.46875 169.867188 269.132812 173.167969 C 269.441406 174.648438 269.589844 176.144531 269.582031 177.660156 C 269.589844 179.402344 269.398438 181.125 269.003906 182.824219 C 268.605469 184.523438 268.019531 186.15625 267.238281 187.714844 C 266.457031 189.277344 265.507812 190.722656 264.386719 192.058594 C 263.265625 193.398438 262.003906 194.582031 260.601562 195.621094 Z M 323.464844 177.660156 L 323.464844 182.148438 C 323.464844 182.445312 323.433594 182.738281 323.378906 183.027344 C 323.320312 183.316406 323.234375 183.597656 323.121094 183.867188 C 323.007812 184.140625 322.871094 184.398438 322.707031 184.644531 C 322.542969 184.890625 322.355469 185.117188 322.148438 185.324219 C 321.941406 185.535156 321.714844 185.71875 321.46875 185.882812 C 321.222656 186.046875 320.964844 186.1875 320.691406 186.296875 C 320.417969 186.410156 320.136719 186.496094 319.847656 186.554688 C 319.558594 186.613281 319.269531 186.640625 318.972656 186.640625 L 277.257812 186.640625 C 278.128906 183.710938 278.5625 180.714844 278.5625 177.660156 C 278.578125 176.152344 278.457031 174.652344 278.203125 173.167969 L 318.972656 173.167969 C 319.269531 173.167969 319.558594 173.195312 319.847656 173.253906 C 320.136719 173.3125 320.417969 173.398438 320.691406 173.511719 C 320.964844 173.621094 321.222656 173.761719 321.46875 173.925781 C 321.714844 174.089844 321.941406 174.273438 322.148438 174.484375 C 322.355469 174.691406 322.542969 174.917969 322.707031 175.164062 C 322.871094 175.410156 323.007812 175.667969 323.121094 175.941406 C 323.234375 176.210938 323.320312 176.492188 323.378906 176.78125 C 323.433594 177.070312 323.464844 177.363281 323.464844 177.660156 Z M 58.539062 20.480469 C 58.539062 20.183594 58.566406 19.890625 58.625 19.601562 C 58.683594 19.3125 58.765625 19.03125 58.878906 18.761719 C 58.992188 18.488281 59.132812 18.230469 59.296875 17.984375 C 59.457031 17.738281 59.644531 17.511719 59.851562 17.304688 C 60.0625 17.09375 60.289062 16.910156 60.535156 16.746094 C 60.777344 16.582031 61.039062 16.441406 61.308594 16.328125 C 61.582031 16.21875 61.863281 16.132812 62.152344 16.074219 C 62.441406 16.015625 62.734375 15.988281 63.027344 15.988281 L 305.503906 15.988281 C 305.796875 15.988281 306.089844 16.015625 306.378906 16.074219 C 306.667969 16.132812 306.949219 16.21875 307.222656 16.328125 C 307.492188 16.441406 307.753906 16.582031 307.996094 16.746094 C 308.242188 16.910156 308.46875 17.09375 308.679688 17.304688 C 308.886719 17.511719 309.074219 17.738281 309.234375 17.984375 C 309.398438 18.230469 309.539062 18.488281 309.652344 18.761719 C 309.765625 19.03125 309.847656 19.3125 309.90625 19.601562 C 309.964844 19.890625 309.992188 20.183594 309.992188 20.480469 L 309.992188 164.1875 L 275.507812 164.1875 C 274.871094 162.851562 274.148438 161.570312 273.332031 160.335938 C 272.515625 159.105469 271.617188 157.9375 270.632812 156.832031 C 269.652344 155.726562 268.601562 154.695312 267.472656 153.738281 C 266.347656 152.78125 265.160156 151.910156 263.910156 151.121094 C 262.660156 150.332031 261.363281 149.632812 260.015625 149.027344 C 258.667969 148.421875 257.28125 147.914062 255.863281 147.503906 C 254.445312 147.09375 253.003906 146.785156 251.539062 146.578125 C 250.078125 146.371094 248.605469 146.265625 247.128906 146.265625 C 245.652344 146.265625 244.179688 146.371094 242.71875 146.578125 C 241.253906 146.785156 239.8125 147.09375 238.394531 147.503906 C 236.976562 147.914062 235.59375 148.421875 234.242188 149.027344 C 232.894531 149.632812 231.597656 150.332031 230.347656 151.121094 C 229.097656 151.910156 227.910156 152.78125 226.785156 153.738281 C 225.660156 154.695312 224.605469 155.726562 223.625 156.832031 C 222.644531 157.9375 221.746094 159.105469 220.929688 160.335938 C 220.113281 161.570312 219.386719 162.851562 218.75 164.1875 L 149.78125 164.1875 C 149.144531 162.851562 148.417969 161.570312 147.601562 160.335938 C 146.785156 159.105469 145.886719 157.9375 144.90625 156.832031 C 143.925781 155.726562 142.871094 154.695312 141.746094 153.738281 C 140.621094 152.78125 139.433594 151.910156 138.183594 151.121094 C 136.933594 150.332031 135.636719 149.632812 134.285156 149.027344 C 132.9375 148.421875 131.554688 147.914062 130.136719 147.503906 C 128.71875 147.09375 127.277344 146.785156 125.8125 146.578125 C 124.351562 146.371094 122.878906 146.265625 121.402344 146.265625 C 119.925781 146.265625 118.453125 146.371094 116.992188 146.578125 C 115.527344 146.785156 114.085938 147.09375 112.667969 147.503906 C 111.25 147.914062 109.863281 148.421875 108.515625 149.027344 C 107.167969 149.632812 105.871094 150.332031 104.621094 151.121094 C 103.371094 151.910156 102.183594 152.78125 101.058594 153.738281 C 99.929688 154.695312 98.878906 155.726562 97.894531 156.832031 C 96.914062 157.9375 96.015625 159.105469 95.199219 160.335938 C 94.382812 161.570312 93.660156 162.851562 93.023438 164.1875 L 58.539062 164.1875 Z M 45.066406 177.660156 C 45.066406 177.363281 45.097656 177.070312 45.152344 176.78125 C 45.210938 176.492188 45.296875 176.210938 45.410156 175.941406 C 45.523438 175.667969 45.660156 175.410156 45.824219 175.164062 C 45.988281 174.917969 46.175781 174.691406 46.382812 174.484375 C 46.589844 174.273438 46.816406 174.089844 47.0625 173.925781 C 47.308594 173.761719 47.566406 173.621094 47.839844 173.511719 C 48.113281 173.398438 48.390625 173.3125 48.683594 173.253906 C 48.972656 173.195312 49.261719 173.167969 49.558594 173.167969 L 90.328125 173.167969 C 90.074219 174.652344 89.953125 176.152344 89.96875 177.660156 C 89.96875 180.714844 90.402344 183.710938 91.273438 186.640625 L 49.558594 186.640625 C 49.261719 186.640625 48.972656 186.613281 48.683594 186.554688 C 48.390625 186.496094 48.113281 186.410156 47.839844 186.296875 C 47.566406 186.1875 47.308594 186.046875 47.0625 185.882812 C 46.816406 185.71875 46.589844 185.535156 46.382812 185.324219 C 46.175781 185.117188 45.988281 184.890625 45.824219 184.644531 C 45.660156 184.398438 45.523438 184.140625 45.410156 183.867188 C 45.296875 183.597656 45.210938 183.316406 45.152344 183.027344 C 45.097656 182.738281 45.066406 182.445312 45.066406 182.148438 Z M 45.066406 177.660156 " fill-opacity="1" fill-rule="nonzero"/></g><path fill="#7ed957" d="M 146.097656 47.425781 L 222.433594 47.425781 C 222.726562 47.425781 223.019531 47.394531 223.308594 47.335938 C 223.597656 47.28125 223.878906 47.195312 224.152344 47.082031 C 224.421875 46.96875 224.683594 46.832031 224.925781 46.667969 C 225.171875 46.503906 225.398438 46.316406 225.609375 46.109375 C 225.816406 45.898438 226.003906 45.671875 226.167969 45.429688 C 226.332031 45.183594 226.46875 44.925781 226.582031 44.652344 C 226.695312 44.378906 226.777344 44.097656 226.835938 43.808594 C 226.894531 43.519531 226.921875 43.226562 226.921875 42.933594 C 226.921875 42.636719 226.894531 42.347656 226.835938 42.058594 C 226.777344 41.769531 226.695312 41.488281 226.582031 41.214844 C 226.46875 40.941406 226.332031 40.683594 226.167969 40.4375 C 226.003906 40.191406 225.816406 39.964844 225.609375 39.757812 C 225.398438 39.550781 225.171875 39.363281 224.925781 39.199219 C 224.683594 39.035156 224.421875 38.898438 224.152344 38.785156 C 223.878906 38.671875 223.597656 38.585938 223.308594 38.527344 C 223.019531 38.472656 222.726562 38.441406 222.433594 38.441406 L 146.097656 38.441406 C 145.804688 38.441406 145.511719 38.472656 145.222656 38.527344 C 144.933594 38.585938 144.652344 38.671875 144.378906 38.785156 C 144.109375 38.898438 143.847656 39.035156 143.605469 39.199219 C 143.359375 39.363281 143.132812 39.550781 142.921875 39.757812 C 142.714844 39.964844 142.527344 40.191406 142.363281 40.4375 C 142.199219 40.683594 142.0625 40.941406 141.949219 41.214844 C 141.835938 41.488281 141.75 41.769531 141.695312 42.058594 C 141.636719 42.347656 141.609375 42.636719 141.609375 42.933594 C 141.609375 43.226562 141.636719 43.519531 141.695312 43.808594 C 141.75 44.097656 141.835938 44.378906 141.949219 44.652344 C 142.0625 44.925781 142.199219 45.183594 142.363281 45.429688 C 142.527344 45.671875 142.714844 45.898438 142.921875 46.109375 C 143.132812 46.316406 143.359375 46.503906 143.605469 46.667969 C 143.847656 46.832031 144.109375 46.96875 144.378906 47.082031 C 144.652344 47.195312 144.933594 47.28125 145.222656 47.335938 C 145.511719 47.394531 145.804688 47.425781 146.097656 47.425781 Z M 146.097656 47.425781 " fill-opacity="1" fill-rule="nonzero"/><path fill="#7ed957" d="M 94.460938 78.859375 L 274.070312 78.859375 C 274.367188 78.859375 274.65625 78.832031 274.945312 78.773438 C 275.234375 78.714844 275.515625 78.632812 275.789062 78.519531 C 276.0625 78.40625 276.320312 78.265625 276.566406 78.101562 C 276.8125 77.9375 277.039062 77.753906 277.246094 77.542969 C 277.453125 77.335938 277.640625 77.109375 277.804688 76.863281 C 277.96875 76.617188 278.105469 76.359375 278.21875 76.085938 C 278.332031 75.816406 278.417969 75.535156 278.476562 75.246094 C 278.53125 74.957031 278.5625 74.664062 278.5625 74.371094 C 278.5625 74.074219 278.53125 73.78125 278.476562 73.492188 C 278.417969 73.203125 278.332031 72.921875 278.21875 72.652344 C 278.105469 72.378906 277.96875 72.121094 277.804688 71.875 C 277.640625 71.628906 277.453125 71.402344 277.246094 71.195312 C 277.039062 70.984375 276.8125 70.800781 276.566406 70.636719 C 276.320312 70.472656 276.0625 70.332031 275.789062 70.21875 C 275.515625 70.105469 275.234375 70.023438 274.945312 69.964844 C 274.65625 69.90625 274.367188 69.878906 274.070312 69.878906 L 94.460938 69.878906 C 94.164062 69.878906 93.875 69.90625 93.585938 69.964844 C 93.296875 70.023438 93.015625 70.105469 92.742188 70.21875 C 92.46875 70.332031 92.210938 70.472656 91.964844 70.636719 C 91.71875 70.800781 91.492188 70.984375 91.285156 71.195312 C 91.078125 71.402344 90.890625 71.628906 90.726562 71.875 C 90.5625 72.121094 90.425781 72.378906 90.3125 72.652344 C 90.199219 72.921875 90.113281 73.203125 90.054688 73.492188 C 90 73.78125 89.96875 74.074219 89.96875 74.371094 C 89.96875 74.664062 90 74.957031 90.054688 75.246094 C 90.113281 75.535156 90.199219 75.816406 90.3125 76.085938 C 90.425781 76.359375 90.5625 76.617188 90.726562 76.863281 C 90.890625 77.109375 91.078125 77.335938 91.285156 77.542969 C 91.492188 77.753906 91.71875 77.9375 91.964844 78.101562 C 92.210938 78.265625 92.46875 78.40625 92.742188 78.519531 C 93.015625 78.632812 93.296875 78.714844 93.585938 78.773438 C 93.875 78.832031 94.164062 78.859375 94.460938 78.859375 Z M 94.460938 78.859375 " fill-opacity="1" fill-rule="nonzero"/><path fill="#7ed957" d="M 94.460938 114.785156 L 274.070312 114.785156 C 274.367188 114.785156 274.65625 114.757812 274.945312 114.699219 C 275.234375 114.644531 275.515625 114.558594 275.789062 114.445312 C 276.0625 114.332031 276.320312 114.195312 276.566406 114.03125 C 276.8125 113.867188 277.039062 113.679688 277.246094 113.472656 C 277.453125 113.261719 277.640625 113.035156 277.804688 112.792969 C 277.96875 112.546875 278.105469 112.285156 278.21875 112.015625 C 278.332031 111.742188 278.417969 111.460938 278.476562 111.171875 C 278.53125 110.882812 278.5625 110.589844 278.5625 110.296875 C 278.5625 110 278.53125 109.710938 278.476562 109.417969 C 278.417969 109.128906 278.332031 108.851562 278.21875 108.578125 C 278.105469 108.304688 277.96875 108.046875 277.804688 107.800781 C 277.640625 107.554688 277.453125 107.328125 277.246094 107.121094 C 277.039062 106.910156 276.8125 106.726562 276.566406 106.5625 C 276.320312 106.398438 276.0625 106.261719 275.789062 106.148438 C 275.515625 106.035156 275.234375 105.949219 274.945312 105.890625 C 274.65625 105.832031 274.367188 105.804688 274.070312 105.804688 L 94.460938 105.804688 C 94.164062 105.804688 93.875 105.832031 93.585938 105.890625 C 93.296875 105.949219 93.015625 106.035156 92.742188 106.148438 C 92.46875 106.261719 92.210938 106.398438 91.964844 106.5625 C 91.71875 106.726562 91.492188 106.910156 91.285156 107.121094 C 91.078125 107.328125 90.890625 107.554688 90.726562 107.800781 C 90.5625 108.046875 90.425781 108.304688 90.3125 108.578125 C 90.199219 108.851562 90.113281 109.128906 90.054688 109.417969 C 90 109.710938 89.96875 110 89.96875 110.296875 C 89.96875 110.589844 90 110.882812 90.054688 111.171875 C 90.113281 111.460938 90.199219 111.742188 90.3125 112.015625 C 90.425781 112.285156 90.5625 112.546875 90.726562 112.792969 C 90.890625 113.035156 91.078125 113.261719 91.285156 113.472656 C 91.492188 113.679688 91.71875 113.867188 91.964844 114.03125 C 92.210938 114.195312 92.46875 114.332031 92.742188 114.445312 C 93.015625 114.558594 93.296875 114.644531 93.585938 114.699219 C 93.875 114.757812 94.164062 114.785156 94.460938 114.785156 Z M 94.460938 114.785156 " fill-opacity="1" fill-rule="nonzero"/><path fill="#7ed957" d="M 278.5625 141.730469 C 278.5625 141.4375 278.53125 141.144531 278.476562 140.855469 C 278.417969 140.566406 278.332031 140.285156 278.21875 140.011719 C 278.105469 139.742188 277.96875 139.480469 277.804688 139.238281 C 277.640625 138.992188 277.453125 138.765625 277.246094 138.554688 C 277.039062 138.347656 276.8125 138.160156 276.566406 137.996094 C 276.320312 137.835938 276.0625 137.695312 275.789062 137.582031 C 275.515625 137.46875 275.234375 137.386719 274.945312 137.328125 C 274.65625 137.269531 274.367188 137.242188 274.070312 137.242188 L 94.460938 137.242188 C 94.164062 137.242188 93.875 137.269531 93.585938 137.328125 C 93.296875 137.386719 93.015625 137.46875 92.742188 137.582031 C 92.46875 137.695312 92.210938 137.835938 91.964844 137.996094 C 91.71875 138.160156 91.492188 138.347656 91.285156 138.554688 C 91.078125 138.765625 90.890625 138.992188 90.726562 139.238281 C 90.5625 139.480469 90.425781 139.742188 90.3125 140.011719 C 90.199219 140.285156 90.113281 140.566406 90.054688 140.855469 C 90 141.144531 89.96875 141.4375 89.96875 141.730469 C 89.96875 142.027344 90 142.320312 90.054688 142.609375 C 90.113281 142.898438 90.199219 143.179688 90.3125 143.449219 C 90.425781 143.722656 90.5625 143.980469 90.726562 144.226562 C 90.890625 144.472656 91.078125 144.699219 91.285156 144.90625 C 91.492188 145.117188 91.71875 145.300781 91.964844 145.464844 C 92.210938 145.628906 92.46875 145.769531 92.742188 145.882812 C 93.015625 145.992188 93.296875 146.078125 93.585938 146.136719 C 93.875 146.195312 94.164062 146.222656 94.460938 146.222656 L 274.070312 146.222656 C 274.367188 146.222656 274.65625 146.195312 274.945312 146.136719 C 275.234375 146.078125 275.515625 145.992188 275.789062 145.882812 C 276.0625 145.769531 276.320312 145.628906 276.566406 145.464844 C 276.8125 145.300781 277.039062 145.117188 277.246094 144.90625 C 277.453125 144.699219 277.640625 144.472656 277.804688 144.226562 C 277.96875 143.980469 278.105469 143.722656 278.21875 143.449219 C 278.332031 143.179688 278.417969 142.898438 278.476562 142.609375 C 278.53125 142.320312 278.5625 142.027344 278.5625 141.730469 Z M 278.5625 141.730469 " fill-opacity="1" fill-rule="nonzero"/><path fill="#7ed957" d="M 202.226562 298.910156 L 166.304688 298.910156 C 165.273438 298.910156 164.25 298.960938 163.222656 299.0625 C 162.199219 299.164062 161.183594 299.316406 160.171875 299.515625 C 159.164062 299.71875 158.164062 299.964844 157.179688 300.265625 C 156.195312 300.5625 155.226562 300.910156 154.277344 301.304688 C 153.324219 301.699219 152.394531 302.136719 151.488281 302.625 C 150.578125 303.109375 149.699219 303.636719 148.84375 304.210938 C 147.984375 304.78125 147.160156 305.394531 146.363281 306.046875 C 145.570312 306.699219 144.808594 307.390625 144.078125 308.121094 C 143.351562 308.847656 142.660156 309.609375 142.007812 310.40625 C 141.355469 311.199219 140.742188 312.027344 140.167969 312.882812 C 139.597656 313.738281 139.070312 314.621094 138.585938 315.527344 C 138.097656 316.4375 137.660156 317.367188 137.265625 318.316406 C 136.871094 319.269531 136.523438 320.238281 136.226562 321.222656 C 135.925781 322.207031 135.675781 323.207031 135.476562 324.214844 C 135.277344 325.226562 135.125 326.242188 135.023438 327.265625 C 134.921875 328.292969 134.871094 329.316406 134.871094 330.347656 L 134.871094 370.765625 C 134.871094 371.058594 134.902344 371.351562 134.957031 371.640625 C 135.015625 371.929688 135.101562 372.210938 135.214844 372.484375 C 135.328125 372.757812 135.464844 373.015625 135.628906 373.261719 C 135.792969 373.503906 135.980469 373.734375 136.1875 373.941406 C 136.394531 374.148438 136.625 374.335938 136.867188 374.5 C 137.113281 374.664062 137.371094 374.800781 137.644531 374.914062 C 137.917969 375.027344 138.199219 375.113281 138.488281 375.171875 C 138.777344 375.226562 139.066406 375.257812 139.363281 375.257812 L 229.167969 375.257812 C 229.464844 375.257812 229.753906 375.226562 230.042969 375.171875 C 230.332031 375.113281 230.613281 375.027344 230.886719 374.914062 C 231.160156 374.800781 231.417969 374.664062 231.664062 374.5 C 231.90625 374.335938 232.136719 374.148438 232.34375 373.941406 C 232.550781 373.734375 232.738281 373.503906 232.902344 373.261719 C 233.066406 373.015625 233.203125 372.757812 233.316406 372.484375 C 233.429688 372.210938 233.515625 371.929688 233.570312 371.640625 C 233.628906 371.351562 233.660156 371.058594 233.660156 370.765625 L 233.660156 330.347656 C 233.660156 329.316406 233.609375 328.292969 233.507812 327.265625 C 233.40625 326.242188 233.253906 325.226562 233.054688 324.214844 C 232.855469 323.207031 232.605469 322.207031 232.304688 321.222656 C 232.007812 320.238281 231.660156 319.269531 231.265625 318.316406 C 230.871094 317.367188 230.433594 316.4375 229.945312 315.527344 C 229.460938 314.621094 228.933594 313.738281 228.359375 312.882812 C 227.789062 312.027344 227.175781 311.199219 226.523438 310.40625 C 225.871094 309.609375 225.179688 308.847656 224.453125 308.121094 C 223.722656 307.390625 222.960938 306.699219 222.167969 306.046875 C 221.371094 305.394531 220.546875 304.78125 219.6875 304.210938 C 218.832031 303.636719 217.953125 303.109375 217.042969 302.625 C 216.136719 302.136719 215.207031 301.699219 214.253906 301.304688 C 213.304688 300.910156 212.335938 300.5625 211.351562 300.265625 C 210.367188 299.964844 209.367188 299.71875 208.359375 299.515625 C 207.347656 299.316406 206.332031 299.164062 205.308594 299.0625 C 204.28125 298.960938 203.257812 298.910156 202.226562 298.910156 Z M 224.679688 366.273438 L 143.851562 366.273438 L 143.851562 330.347656 C 143.851562 329.613281 143.890625 328.878906 143.960938 328.148438 C 144.035156 327.414062 144.140625 326.6875 144.285156 325.96875 C 144.429688 325.246094 144.605469 324.535156 144.820312 323.828125 C 145.035156 323.125 145.28125 322.433594 145.5625 321.753906 C 145.84375 321.074219 146.15625 320.410156 146.503906 319.761719 C 146.851562 319.113281 147.226562 318.484375 147.636719 317.871094 C 148.046875 317.261719 148.484375 316.671875 148.949219 316.101562 C 149.414062 315.535156 149.910156 314.992188 150.429688 314.46875 C 150.949219 313.949219 151.492188 313.457031 152.0625 312.992188 C 152.628906 312.523438 153.21875 312.085938 153.832031 311.679688 C 154.441406 311.269531 155.074219 310.890625 155.722656 310.546875 C 156.371094 310.199219 157.035156 309.882812 157.710938 309.601562 C 158.390625 309.320312 159.082031 309.074219 159.789062 308.859375 C 160.492188 308.648438 161.203125 308.46875 161.925781 308.324219 C 162.644531 308.179688 163.371094 308.074219 164.105469 308 C 164.835938 307.929688 165.570312 307.894531 166.304688 307.894531 L 202.226562 307.894531 C 202.960938 307.894531 203.695312 307.929688 204.425781 308 C 205.160156 308.074219 205.886719 308.179688 206.605469 308.324219 C 207.328125 308.46875 208.039062 308.648438 208.742188 308.859375 C 209.449219 309.074219 210.140625 309.320312 210.820312 309.601562 C 211.496094 309.882812 212.160156 310.199219 212.808594 310.546875 C 213.457031 310.890625 214.089844 311.269531 214.699219 311.679688 C 215.3125 312.085938 215.902344 312.523438 216.46875 312.992188 C 217.039062 313.457031 217.582031 313.949219 218.101562 314.46875 C 218.621094 314.992188 219.117188 315.535156 219.582031 316.101562 C 220.046875 316.671875 220.484375 317.261719 220.894531 317.871094 C 221.304688 318.484375 221.679688 319.113281 222.027344 319.761719 C 222.375 320.410156 222.6875 321.074219 222.96875 321.753906 C 223.25 322.433594 223.496094 323.125 223.710938 323.828125 C 223.925781 324.535156 224.101562 325.246094 224.246094 325.96875 C 224.390625 326.6875 224.496094 327.414062 224.570312 328.148438 C 224.640625 328.878906 224.679688 329.613281 224.679688 330.347656 Z M 224.679688 366.273438 " fill-opacity="1" fill-rule="nonzero"/><g clip-path="url(#c3c35ca2e6)"><path fill="#7ed957" d="M 76.5 298.910156 L 40.578125 298.910156 C 39.546875 298.910156 38.519531 298.960938 37.496094 299.0625 C 36.472656 299.164062 35.453125 299.316406 34.445312 299.515625 C 33.433594 299.71875 32.4375 299.964844 31.453125 300.265625 C 30.46875 300.5625 29.5 300.910156 28.546875 301.304688 C 27.597656 301.699219 26.667969 302.136719 25.761719 302.625 C 24.851562 303.109375 23.96875 303.636719 23.113281 304.210938 C 22.257812 304.78125 21.433594 305.394531 20.636719 306.046875 C 19.839844 306.699219 19.078125 307.390625 18.351562 308.121094 C 17.625 308.847656 16.933594 309.609375 16.28125 310.40625 C 15.628906 311.199219 15.015625 312.027344 14.441406 312.882812 C 13.871094 313.738281 13.34375 314.621094 12.855469 315.527344 C 12.371094 316.4375 11.933594 317.367188 11.539062 318.316406 C 11.144531 319.269531 10.796875 320.238281 10.5 321.222656 C 10.199219 322.207031 9.949219 323.207031 9.75 324.214844 C 9.546875 325.226562 9.398438 326.242188 9.296875 327.265625 C 9.195312 328.292969 9.144531 329.316406 9.144531 330.347656 L 9.144531 370.765625 C 9.144531 371.058594 9.175781 371.351562 9.230469 371.640625 C 9.289062 371.929688 9.375 372.210938 9.488281 372.484375 C 9.601562 372.757812 9.738281 373.015625 9.902344 373.261719 C 10.066406 373.503906 10.253906 373.734375 10.460938 373.941406 C 10.667969 374.148438 10.894531 374.335938 11.140625 374.5 C 11.386719 374.664062 11.644531 374.800781 11.917969 374.914062 C 12.191406 375.027344 12.46875 375.113281 12.757812 375.171875 C 13.046875 375.226562 13.339844 375.257812 13.636719 375.257812 L 103.441406 375.257812 C 103.734375 375.257812 104.027344 375.226562 104.316406 375.171875 C 104.605469 375.113281 104.886719 375.027344 105.160156 374.914062 C 105.429688 374.800781 105.691406 374.664062 105.933594 374.5 C 106.179688 374.335938 106.40625 374.148438 106.617188 373.941406 C 106.824219 373.734375 107.011719 373.503906 107.175781 373.261719 C 107.339844 373.015625 107.476562 372.757812 107.589844 372.484375 C 107.703125 372.210938 107.789062 371.929688 107.84375 371.640625 C 107.902344 371.351562 107.929688 371.058594 107.929688 370.765625 L 107.929688 330.347656 C 107.929688 329.316406 107.878906 328.292969 107.78125 327.265625 C 107.679688 326.242188 107.527344 325.226562 107.328125 324.214844 C 107.125 323.207031 106.875 322.207031 106.578125 321.222656 C 106.277344 320.238281 105.933594 319.269531 105.539062 318.316406 C 105.144531 317.367188 104.703125 316.4375 104.21875 315.527344 C 103.734375 314.621094 103.207031 313.738281 102.632812 312.882812 C 102.0625 312.027344 101.449219 311.199219 100.796875 310.40625 C 100.144531 309.609375 99.453125 308.847656 98.726562 308.121094 C 97.996094 307.390625 97.234375 306.699219 96.4375 306.046875 C 95.644531 305.394531 94.816406 304.78125 93.960938 304.210938 C 93.105469 303.636719 92.222656 303.109375 91.316406 302.625 C 90.410156 302.136719 89.480469 301.699219 88.527344 301.304688 C 87.578125 300.910156 86.609375 300.5625 85.625 300.265625 C 84.636719 299.964844 83.640625 299.71875 82.632812 299.515625 C 81.621094 299.316406 80.605469 299.164062 79.582031 299.0625 C 78.554688 298.960938 77.527344 298.910156 76.5 298.910156 Z M 98.949219 366.273438 L 18.125 366.273438 L 18.125 330.347656 C 18.125 329.613281 18.160156 328.878906 18.234375 328.148438 C 18.304688 327.414062 18.414062 326.6875 18.558594 325.96875 C 18.699219 325.246094 18.878906 324.535156 19.09375 323.828125 C 19.304688 323.125 19.554688 322.433594 19.835938 321.753906 C 20.117188 321.074219 20.429688 320.410156 20.777344 319.761719 C 21.125 319.113281 21.5 318.484375 21.910156 317.871094 C 22.316406 317.261719 22.753906 316.671875 23.222656 316.101562 C 23.6875 315.535156 24.183594 314.992188 24.703125 314.46875 C 25.222656 313.949219 25.765625 313.457031 26.335938 312.992188 C 26.902344 312.523438 27.492188 312.085938 28.105469 311.679688 C 28.714844 311.269531 29.34375 310.890625 29.992188 310.546875 C 30.640625 310.199219 31.304688 309.882812 31.984375 309.601562 C 32.664062 309.320312 33.355469 309.074219 34.058594 308.859375 C 34.761719 308.648438 35.476562 308.46875 36.195312 308.324219 C 36.917969 308.179688 37.644531 308.074219 38.375 308 C 39.109375 307.929688 39.84375 307.894531 40.578125 307.894531 L 76.5 307.894531 C 77.234375 307.894531 77.96875 307.929688 78.699219 308 C 79.433594 308.074219 80.15625 308.179688 80.878906 308.324219 C 81.601562 308.46875 82.3125 308.648438 83.015625 308.859375 C 83.71875 309.074219 84.410156 309.320312 85.089844 309.601562 C 85.769531 309.882812 86.433594 310.199219 87.082031 310.546875 C 87.730469 310.890625 88.359375 311.269531 88.972656 311.679688 C 89.582031 312.085938 90.175781 312.523438 90.742188 312.992188 C 91.3125 313.457031 91.855469 313.949219 92.375 314.46875 C 92.894531 314.992188 93.386719 315.535156 93.855469 316.101562 C 94.320312 316.671875 94.757812 317.261719 95.167969 317.871094 C 95.574219 318.484375 95.953125 319.113281 96.300781 319.761719 C 96.644531 320.410156 96.960938 321.074219 97.242188 321.753906 C 97.523438 322.433594 97.769531 323.125 97.984375 323.828125 C 98.199219 324.535156 98.375 325.246094 98.519531 325.96875 C 98.664062 326.6875 98.769531 327.414062 98.84375 328.148438 C 98.914062 328.878906 98.949219 329.613281 98.949219 330.347656 Z M 98.949219 366.273438 " fill-opacity="1" fill-rule="nonzero"/></g><g clip-path="url(#84a0ee0b8c)"><path fill="#7ed957" d="M 327.953125 298.910156 L 292.03125 298.910156 C 291.003906 298.910156 289.976562 298.960938 288.949219 299.0625 C 287.925781 299.164062 286.910156 299.316406 285.898438 299.515625 C 284.890625 299.71875 283.894531 299.964844 282.90625 300.265625 C 281.921875 300.5625 280.953125 300.910156 280.003906 301.304688 C 279.050781 301.699219 278.121094 302.136719 277.214844 302.625 C 276.308594 303.109375 275.425781 303.636719 274.570312 304.210938 C 273.714844 304.78125 272.886719 305.394531 272.089844 306.046875 C 271.296875 306.699219 270.535156 307.390625 269.804688 308.121094 C 269.078125 308.847656 268.386719 309.609375 267.734375 310.40625 C 267.082031 311.199219 266.46875 312.027344 265.898438 312.882812 C 265.324219 313.738281 264.796875 314.621094 264.3125 315.527344 C 263.828125 316.4375 263.386719 317.367188 262.992188 318.316406 C 262.597656 319.269531 262.253906 320.238281 261.953125 321.222656 C 261.65625 322.207031 261.40625 323.207031 261.203125 324.214844 C 261.003906 325.226562 260.851562 326.242188 260.75 327.265625 C 260.652344 328.292969 260.601562 329.316406 260.601562 330.347656 L 260.601562 370.765625 C 260.601562 371.058594 260.628906 371.351562 260.6875 371.640625 C 260.742188 371.929688 260.828125 372.210938 260.941406 372.484375 C 261.054688 372.757812 261.191406 373.015625 261.355469 373.261719 C 261.519531 373.503906 261.707031 373.734375 261.914062 373.941406 C 262.125 374.148438 262.351562 374.335938 262.59375 374.5 C 262.839844 374.664062 263.097656 374.800781 263.371094 374.914062 C 263.644531 375.027344 263.925781 375.113281 264.214844 375.171875 C 264.503906 375.226562 264.796875 375.257812 265.089844 375.257812 L 354.894531 375.257812 C 355.191406 375.257812 355.480469 375.226562 355.773438 375.171875 C 356.0625 375.113281 356.339844 375.027344 356.613281 374.914062 C 356.886719 374.800781 357.144531 374.664062 357.390625 374.5 C 357.636719 374.335938 357.863281 374.148438 358.070312 373.941406 C 358.277344 373.734375 358.464844 373.503906 358.628906 373.261719 C 358.792969 373.015625 358.929688 372.757812 359.042969 372.484375 C 359.15625 372.210938 359.242188 371.929688 359.300781 371.640625 C 359.355469 371.351562 359.386719 371.058594 359.386719 370.765625 L 359.386719 330.347656 C 359.386719 329.316406 359.335938 328.292969 359.234375 327.265625 C 359.132812 326.242188 358.984375 325.226562 358.78125 324.214844 C 358.582031 323.207031 358.332031 322.207031 358.03125 321.222656 C 357.734375 320.238281 357.386719 319.269531 356.992188 318.316406 C 356.597656 317.367188 356.160156 316.4375 355.675781 315.527344 C 355.1875 314.621094 354.660156 313.738281 354.089844 312.882812 C 353.515625 312.027344 352.902344 311.199219 352.25 310.40625 C 351.597656 309.609375 350.90625 308.847656 350.179688 308.121094 C 349.453125 307.390625 348.691406 306.699219 347.894531 306.046875 C 347.097656 305.394531 346.273438 304.78125 345.417969 304.210938 C 344.5625 303.636719 343.679688 303.109375 342.769531 302.625 C 341.863281 302.136719 340.933594 301.699219 339.980469 301.304688 C 339.03125 300.910156 338.0625 300.5625 337.078125 300.265625 C 336.09375 299.964844 335.09375 299.71875 334.085938 299.515625 C 333.078125 299.316406 332.058594 299.164062 331.035156 299.0625 C 330.011719 298.960938 328.984375 298.910156 327.953125 298.910156 Z M 350.40625 366.273438 L 269.582031 366.273438 L 269.582031 330.347656 C 269.582031 329.613281 269.617188 328.878906 269.6875 328.148438 C 269.761719 327.414062 269.867188 326.6875 270.011719 325.96875 C 270.15625 325.246094 270.332031 324.535156 270.546875 323.828125 C 270.761719 323.125 271.007812 322.433594 271.289062 321.753906 C 271.570312 321.074219 271.886719 320.410156 272.230469 319.761719 C 272.578125 319.113281 272.957031 318.484375 273.363281 317.871094 C 273.773438 317.261719 274.210938 316.671875 274.675781 316.101562 C 275.144531 315.535156 275.636719 314.992188 276.15625 314.46875 C 276.675781 313.949219 277.21875 313.457031 277.789062 312.992188 C 278.355469 312.523438 278.949219 312.085938 279.558594 311.679688 C 280.171875 311.269531 280.800781 310.890625 281.449219 310.546875 C 282.097656 310.199219 282.761719 309.882812 283.441406 309.601562 C 284.121094 309.320312 284.8125 309.074219 285.515625 308.859375 C 286.21875 308.648438 286.929688 308.46875 287.652344 308.324219 C 288.371094 308.179688 289.097656 308.074219 289.832031 308 C 290.5625 307.929688 291.296875 307.894531 292.03125 307.894531 L 327.953125 307.894531 C 328.6875 307.894531 329.421875 307.929688 330.15625 308 C 330.886719 308.074219 331.613281 308.179688 332.335938 308.324219 C 333.054688 308.46875 333.769531 308.648438 334.472656 308.859375 C 335.175781 309.074219 335.867188 309.320312 336.546875 309.601562 C 337.226562 309.882812 337.890625 310.199219 338.539062 310.546875 C 339.1875 310.890625 339.816406 311.269531 340.425781 311.679688 C 341.039062 312.085938 341.628906 312.523438 342.195312 312.992188 C 342.765625 313.457031 343.308594 313.949219 343.828125 314.46875 C 344.347656 314.992188 344.84375 315.535156 345.308594 316.101562 C 345.777344 316.671875 346.214844 317.261719 346.621094 317.871094 C 347.03125 318.484375 347.40625 319.113281 347.753906 319.761719 C 348.101562 320.410156 348.414062 321.074219 348.695312 321.753906 C 348.976562 322.433594 349.226562 323.125 349.4375 323.828125 C 349.652344 324.535156 349.832031 325.246094 349.972656 325.96875 C 350.117188 326.6875 350.226562 327.414062 350.296875 328.148438 C 350.371094 328.878906 350.40625 329.613281 350.40625 330.347656 Z M 350.40625 366.273438 " fill-opacity="1" fill-rule="nonzero"/></g><path fill="#7ed957" d="M 58.539062 294.421875 C 61.46875 294.433594 64.34375 294.035156 67.164062 293.222656 C 69.980469 292.414062 72.628906 291.226562 75.105469 289.660156 C 75.554688 289.84375 76.015625 289.933594 76.5 289.929688 L 166.304688 289.929688 C 166.785156 289.933594 167.25 289.84375 167.695312 289.660156 C 168.933594 290.429688 170.21875 291.105469 171.550781 291.695312 C 172.882812 292.285156 174.25 292.78125 175.652344 293.179688 C 177.050781 293.578125 178.472656 293.878906 179.917969 294.082031 C 181.359375 294.28125 182.808594 294.382812 184.265625 294.382812 C 185.722656 294.382812 187.171875 294.28125 188.613281 294.082031 C 190.058594 293.878906 191.480469 293.578125 192.878906 293.179688 C 194.28125 292.78125 195.648438 292.285156 196.980469 291.695312 C 198.3125 291.105469 199.597656 290.429688 200.835938 289.660156 C 201.28125 289.84375 201.746094 289.933594 202.226562 289.929688 L 292.03125 289.929688 C 292.515625 289.933594 292.976562 289.84375 293.425781 289.660156 C 295.902344 291.226562 298.550781 292.414062 301.367188 293.222656 C 304.1875 294.035156 307.0625 294.433594 309.992188 294.421875 C 311.183594 294.417969 312.371094 294.347656 313.554688 294.210938 C 314.738281 294.074219 315.910156 293.867188 317.070312 293.597656 C 318.230469 293.328125 319.371094 292.992188 320.492188 292.589844 C 321.613281 292.191406 322.710938 291.726562 323.777344 291.203125 C 324.847656 290.675781 325.882812 290.09375 326.886719 289.449219 C 327.890625 288.808594 328.851562 288.109375 329.777344 287.355469 C 330.699219 286.605469 331.578125 285.800781 332.410156 284.949219 C 333.242188 284.097656 334.023438 283.199219 334.753906 282.261719 C 335.484375 281.320312 336.160156 280.339844 336.777344 279.320312 C 337.398438 278.304688 337.957031 277.253906 338.457031 276.171875 C 338.957031 275.089844 339.394531 273.984375 339.769531 272.851562 C 340.140625 271.722656 340.449219 270.574219 340.695312 269.40625 C 340.9375 268.242188 341.113281 267.066406 341.222656 265.878906 C 341.332031 264.691406 341.375 263.503906 341.347656 262.3125 C 341.324219 261.121094 341.230469 259.933594 341.070312 258.753906 C 340.910156 257.574219 340.683594 256.40625 340.390625 255.25 C 340.097656 254.097656 339.738281 252.960938 339.316406 251.847656 C 338.894531 250.734375 338.414062 249.648438 337.867188 248.589844 C 337.320312 247.53125 336.71875 246.503906 336.054688 245.515625 C 335.394531 244.523438 334.675781 243.574219 333.90625 242.664062 C 333.136719 241.757812 332.316406 240.894531 331.449219 240.078125 C 330.582031 239.261719 329.671875 238.496094 328.714844 237.785156 C 327.761719 237.074219 326.769531 236.417969 325.738281 235.816406 C 324.710938 235.21875 323.648438 234.679688 322.558594 234.199219 C 321.46875 233.722656 320.355469 233.304688 319.214844 232.953125 C 318.078125 232.601562 316.921875 232.316406 315.753906 232.09375 C 314.582031 231.875 313.402344 231.71875 312.214844 231.632812 C 311.027344 231.546875 309.839844 231.527344 308.648438 231.574219 C 307.457031 231.625 306.273438 231.738281 305.097656 231.921875 C 303.917969 232.105469 302.757812 232.355469 301.609375 232.667969 C 300.460938 232.984375 299.332031 233.363281 298.226562 233.808594 C 297.121094 234.25 296.042969 234.753906 294.996094 235.320312 C 294.488281 233.75 293.859375 232.230469 293.109375 230.761719 C 292.359375 229.289062 291.5 227.886719 290.53125 226.550781 C 289.5625 225.214844 288.496094 223.964844 287.328125 222.796875 C 286.160156 221.628906 284.910156 220.5625 283.574219 219.589844 C 282.242188 218.621094 280.839844 217.761719 279.367188 217.011719 C 277.898438 216.261719 276.378906 215.632812 274.808594 215.125 C 273.238281 214.613281 271.640625 214.230469 270.011719 213.972656 C 268.378906 213.714844 266.742188 213.585938 265.089844 213.585938 L 229.167969 213.585938 C 227.519531 213.585938 225.878906 213.714844 224.25 213.972656 C 222.617188 214.230469 221.019531 214.613281 219.449219 215.125 C 217.878906 215.632812 216.359375 216.261719 214.890625 217.011719 C 213.421875 217.761719 212.019531 218.621094 210.683594 219.589844 C 209.347656 220.5625 208.097656 221.628906 206.929688 222.796875 C 205.765625 223.964844 204.695312 225.214844 203.726562 226.550781 C 202.757812 227.886719 201.898438 229.289062 201.148438 230.761719 C 200.402344 232.230469 199.773438 233.75 199.261719 235.320312 C 198.113281 234.703125 196.933594 234.160156 195.71875 233.691406 C 194.5 233.21875 193.261719 232.824219 191.996094 232.507812 C 190.734375 232.1875 189.453125 231.949219 188.160156 231.789062 C 186.867188 231.628906 185.570312 231.550781 184.265625 231.550781 C 182.960938 231.550781 181.664062 231.628906 180.371094 231.789062 C 179.078125 231.949219 177.796875 232.1875 176.535156 232.507812 C 175.269531 232.824219 174.03125 233.21875 172.8125 233.691406 C 171.597656 234.160156 170.417969 234.703125 169.269531 235.320312 C 168.757812 233.75 168.128906 232.230469 167.382812 230.761719 C 166.632812 229.289062 165.773438 227.886719 164.804688 226.550781 C 163.835938 225.214844 162.765625 223.964844 161.601562 222.796875 C 160.433594 221.628906 159.183594 220.5625 157.847656 219.589844 C 156.511719 218.621094 155.109375 217.761719 153.640625 217.011719 C 152.171875 216.261719 150.652344 215.632812 149.082031 215.125 C 147.511719 214.613281 145.914062 214.230469 144.28125 213.972656 C 142.652344 213.714844 141.011719 213.585938 139.363281 213.585938 L 103.441406 213.585938 C 101.789062 213.585938 100.152344 213.714844 98.519531 213.972656 C 96.890625 214.230469 95.292969 214.613281 93.722656 215.125 C 92.152344 215.632812 90.632812 216.261719 89.164062 217.011719 C 87.691406 217.761719 86.289062 218.621094 84.957031 219.589844 C 83.621094 220.5625 82.371094 221.628906 81.203125 222.796875 C 80.035156 223.964844 78.96875 225.214844 78 226.550781 C 77.03125 227.886719 76.171875 229.289062 75.421875 230.761719 C 74.671875 232.230469 74.042969 233.75 73.535156 235.320312 C 72.488281 234.753906 71.410156 234.25 70.304688 233.808594 C 69.199219 233.363281 68.070312 232.984375 66.921875 232.667969 C 65.773438 232.355469 64.613281 232.105469 63.433594 231.921875 C 62.257812 231.738281 61.074219 231.625 59.882812 231.574219 C 58.691406 231.527344 57.503906 231.546875 56.316406 231.632812 C 55.128906 231.71875 53.949219 231.875 52.777344 232.09375 C 51.609375 232.316406 50.453125 232.601562 49.316406 232.953125 C 48.175781 233.304688 47.0625 233.722656 45.972656 234.199219 C 44.882812 234.679688 43.820312 235.21875 42.792969 235.816406 C 41.761719 236.417969 40.769531 237.074219 39.816406 237.785156 C 38.859375 238.496094 37.949219 239.261719 37.082031 240.078125 C 36.210938 240.894531 35.394531 241.757812 34.625 242.664062 C 33.855469 243.574219 33.136719 244.523438 32.476562 245.515625 C 31.8125 246.503906 31.210938 247.53125 30.664062 248.589844 C 30.117188 249.648438 29.636719 250.734375 29.214844 251.847656 C 28.792969 252.960938 28.433594 254.097656 28.140625 255.25 C 27.847656 256.40625 27.621094 257.574219 27.460938 258.753906 C 27.300781 259.933594 27.207031 261.121094 27.183594 262.3125 C 27.15625 263.503906 27.199219 264.691406 27.308594 265.878906 C 27.417969 267.066406 27.59375 268.242188 27.835938 269.40625 C 28.082031 270.574219 28.390625 271.722656 28.761719 272.851562 C 29.136719 273.984375 29.574219 275.089844 30.074219 276.171875 C 30.574219 277.253906 31.132812 278.304688 31.753906 279.320312 C 32.371094 280.339844 33.046875 281.320312 33.777344 282.261719 C 34.507812 283.199219 35.289062 284.097656 36.121094 284.949219 C 36.953125 285.800781 37.832031 286.605469 38.753906 287.355469 C 39.679688 288.109375 40.640625 288.808594 41.644531 289.449219 C 42.648438 290.09375 43.683594 290.675781 44.753906 291.203125 C 45.820312 291.726562 46.917969 292.191406 48.039062 292.589844 C 49.160156 292.992188 50.300781 293.328125 51.460938 293.597656 C 52.621094 293.867188 53.792969 294.074219 54.976562 294.210938 C 56.160156 294.347656 57.347656 294.417969 58.539062 294.421875 Z M 58.539062 240.53125 C 60.96875 240.519531 63.335938 240.898438 65.644531 241.667969 C 67.949219 242.4375 70.070312 243.554688 72.007812 245.023438 C 72.703125 245.542969 73.367188 246.101562 73.996094 246.699219 C 74.625 247.296875 75.21875 247.929688 75.773438 248.597656 C 76.332031 249.265625 76.847656 249.960938 77.324219 250.6875 C 77.800781 251.414062 78.230469 252.167969 78.621094 252.941406 C 79.007812 253.71875 79.351562 254.515625 79.644531 255.332031 C 79.941406 256.148438 80.1875 256.980469 80.390625 257.824219 C 80.589844 258.671875 80.738281 259.527344 80.839844 260.386719 C 80.9375 261.25 80.988281 262.117188 80.988281 262.984375 C 80.988281 263.855469 80.9375 264.71875 80.839844 265.582031 C 80.738281 266.445312 80.589844 267.296875 80.390625 268.144531 C 80.1875 268.988281 79.941406 269.820312 79.644531 270.636719 C 79.351562 271.453125 79.007812 272.25 78.621094 273.027344 C 78.230469 273.804688 77.800781 274.554688 77.324219 275.28125 C 76.847656 276.007812 76.332031 276.707031 75.773438 277.371094 C 75.21875 278.039062 74.625 278.671875 73.996094 279.269531 C 73.367188 279.867188 72.703125 280.425781 72.007812 280.949219 C 70.070312 282.414062 67.949219 283.53125 65.644531 284.300781 C 63.335938 285.070312 60.96875 285.449219 58.539062 285.4375 C 57.804688 285.4375 57.070312 285.402344 56.335938 285.332031 C 55.605469 285.257812 54.878906 285.152344 54.15625 285.007812 C 53.4375 284.863281 52.722656 284.6875 52.019531 284.472656 C 51.316406 284.257812 50.625 284.011719 49.945312 283.730469 C 49.265625 283.449219 48.601562 283.132812 47.953125 282.789062 C 47.304688 282.441406 46.675781 282.0625 46.066406 281.65625 C 45.453125 281.246094 44.863281 280.808594 44.296875 280.34375 C 43.726562 279.875 43.183594 279.382812 42.664062 278.863281 C 42.144531 278.34375 41.648438 277.796875 41.183594 277.230469 C 40.714844 276.660156 40.277344 276.070312 39.871094 275.460938 C 39.460938 274.847656 39.085938 274.21875 38.738281 273.570312 C 38.390625 272.921875 38.078125 272.257812 37.796875 271.578125 C 37.515625 270.898438 37.265625 270.207031 37.054688 269.503906 C 36.839844 268.800781 36.660156 268.085938 36.519531 267.367188 C 36.375 266.644531 36.265625 265.917969 36.195312 265.1875 C 36.121094 264.453125 36.085938 263.71875 36.085938 262.984375 C 36.085938 262.25 36.121094 261.515625 36.195312 260.785156 C 36.265625 260.050781 36.375 259.324219 36.519531 258.605469 C 36.660156 257.882812 36.839844 257.171875 37.054688 256.46875 C 37.265625 255.761719 37.515625 255.070312 37.796875 254.390625 C 38.078125 253.710938 38.390625 253.046875 38.738281 252.398438 C 39.085938 251.75 39.460938 251.121094 39.871094 250.511719 C 40.277344 249.898438 40.714844 249.308594 41.183594 248.738281 C 41.648438 248.171875 42.144531 247.628906 42.664062 247.109375 C 43.183594 246.585938 43.726562 246.09375 44.296875 245.628906 C 44.863281 245.160156 45.453125 244.722656 46.066406 244.316406 C 46.675781 243.90625 47.304688 243.527344 47.953125 243.183594 C 48.601562 242.835938 49.265625 242.519531 49.945312 242.238281 C 50.625 241.957031 51.316406 241.710938 52.019531 241.496094 C 52.722656 241.285156 53.4375 241.105469 54.15625 240.960938 C 54.878906 240.820312 55.605469 240.710938 56.335938 240.640625 C 57.070312 240.566406 57.804688 240.53125 58.539062 240.53125 Z M 184.265625 240.53125 C 186.695312 240.519531 189.0625 240.898438 191.371094 241.667969 C 193.675781 242.4375 195.796875 243.554688 197.738281 245.023438 C 198.429688 245.542969 199.09375 246.101562 199.722656 246.699219 C 200.351562 247.296875 200.945312 247.929688 201.503906 248.597656 C 202.058594 249.265625 202.574219 249.960938 203.050781 250.6875 C 203.527344 251.414062 203.957031 252.167969 204.347656 252.941406 C 204.734375 253.71875 205.078125 254.515625 205.375 255.332031 C 205.667969 256.148438 205.917969 256.980469 206.117188 257.824219 C 206.316406 258.671875 206.464844 259.527344 206.566406 260.386719 C 206.667969 261.25 206.71875 262.117188 206.71875 262.984375 C 206.71875 263.855469 206.667969 264.71875 206.566406 265.582031 C 206.464844 266.445312 206.316406 267.296875 206.117188 268.144531 C 205.917969 268.988281 205.667969 269.820312 205.375 270.636719 C 205.078125 271.453125 204.734375 272.25 204.347656 273.027344 C 203.957031 273.804688 203.527344 274.554688 203.050781 275.28125 C 202.574219 276.007812 202.058594 276.707031 201.503906 277.371094 C 200.945312 278.039062 200.351562 278.671875 199.722656 279.269531 C 199.09375 279.867188 198.429688 280.425781 197.738281 280.949219 C 196.769531 281.671875 195.753906 282.316406 194.683594 282.875 C 193.617188 283.433594 192.511719 283.90625 191.367188 284.285156 C 190.21875 284.667969 189.054688 284.957031 187.863281 285.148438 C 186.671875 285.34375 185.472656 285.4375 184.265625 285.4375 C 183.058594 285.4375 181.859375 285.34375 180.667969 285.148438 C 179.476562 284.957031 178.308594 284.667969 177.164062 284.285156 C 176.019531 283.90625 174.914062 283.433594 173.847656 282.875 C 172.777344 282.316406 171.761719 281.671875 170.792969 280.949219 C 170.101562 280.425781 169.4375 279.867188 168.808594 279.269531 C 168.179688 278.671875 167.585938 278.039062 167.027344 277.371094 C 166.472656 276.707031 165.957031 276.007812 165.480469 275.28125 C 165.003906 274.554688 164.574219 273.804688 164.183594 273.027344 C 163.796875 272.25 163.453125 271.453125 163.15625 270.636719 C 162.863281 269.820312 162.613281 268.988281 162.414062 268.144531 C 162.214844 267.296875 162.066406 266.445312 161.964844 265.582031 C 161.863281 264.71875 161.8125 263.855469 161.8125 262.984375 C 161.8125 262.117188 161.863281 261.25 161.964844 260.386719 C 162.066406 259.527344 162.214844 258.671875 162.414062 257.824219 C 162.613281 256.980469 162.863281 256.148438 163.15625 255.332031 C 163.453125 254.515625 163.796875 253.71875 164.183594 252.941406 C 164.574219 252.167969 165.003906 251.414062 165.480469 250.6875 C 165.957031 249.960938 166.472656 249.265625 167.027344 248.597656 C 167.585938 247.929688 168.179688 247.296875 168.808594 246.699219 C 169.4375 246.101562 170.101562 245.542969 170.792969 245.023438 C 172.734375 243.554688 174.855469 242.4375 177.160156 241.667969 C 179.46875 240.898438 181.835938 240.519531 184.265625 240.53125 Z M 309.992188 240.53125 C 310.726562 240.53125 311.460938 240.566406 312.195312 240.640625 C 312.925781 240.710938 313.652344 240.820312 314.371094 240.960938 C 315.09375 241.105469 315.804688 241.285156 316.511719 241.496094 C 317.214844 241.710938 317.90625 241.957031 318.585938 242.238281 C 319.265625 242.519531 319.929688 242.835938 320.578125 243.183594 C 321.226562 243.527344 321.855469 243.90625 322.464844 244.316406 C 323.078125 244.722656 323.667969 245.160156 324.234375 245.628906 C 324.804688 246.09375 325.347656 246.585938 325.867188 247.109375 C 326.386719 247.628906 326.882812 248.171875 327.347656 248.738281 C 327.816406 249.308594 328.253906 249.898438 328.660156 250.511719 C 329.070312 251.121094 329.445312 251.75 329.792969 252.398438 C 330.140625 253.046875 330.453125 253.710938 330.734375 254.390625 C 331.015625 255.070312 331.265625 255.761719 331.476562 256.46875 C 331.691406 257.171875 331.871094 257.882812 332.011719 258.605469 C 332.15625 259.324219 332.265625 260.050781 332.335938 260.785156 C 332.410156 261.515625 332.445312 262.25 332.445312 262.984375 C 332.445312 263.71875 332.410156 264.453125 332.335938 265.1875 C 332.265625 265.917969 332.15625 266.644531 332.011719 267.367188 C 331.871094 268.085938 331.691406 268.800781 331.476562 269.503906 C 331.265625 270.207031 331.015625 270.898438 330.734375 271.578125 C 330.453125 272.257812 330.140625 272.921875 329.792969 273.570312 C 329.445312 274.21875 329.070312 274.847656 328.660156 275.460938 C 328.253906 276.070312 327.816406 276.660156 327.347656 277.230469 C 326.882812 277.796875 326.386719 278.34375 325.867188 278.863281 C 325.347656 279.382812 324.804688 279.875 324.234375 280.34375 C 323.667969 280.808594 323.078125 281.246094 322.464844 281.65625 C 321.855469 282.0625 321.226562 282.441406 320.578125 282.789062 C 319.929688 283.132812 319.265625 283.449219 318.585938 283.730469 C 317.90625 284.011719 317.214844 284.257812 316.511719 284.472656 C 315.804688 284.6875 315.09375 284.863281 314.371094 285.007812 C 313.652344 285.152344 312.925781 285.257812 312.195312 285.332031 C 311.460938 285.402344 310.726562 285.4375 309.992188 285.4375 C 307.5625 285.449219 305.195312 285.070312 302.886719 284.300781 C 300.582031 283.53125 298.460938 282.414062 296.523438 280.949219 C 295.828125 280.425781 295.164062 279.867188 294.535156 279.269531 C 293.90625 278.671875 293.3125 278.039062 292.757812 277.371094 C 292.199219 276.707031 291.683594 276.007812 291.207031 275.28125 C 290.730469 274.554688 290.300781 273.804688 289.910156 273.027344 C 289.523438 272.25 289.179688 271.453125 288.886719 270.636719 C 288.589844 269.820312 288.339844 268.988281 288.140625 268.144531 C 287.941406 267.296875 287.792969 266.445312 287.691406 265.582031 C 287.59375 264.71875 287.542969 263.855469 287.542969 262.984375 C 287.542969 262.117188 287.59375 261.25 287.691406 260.386719 C 287.792969 259.527344 287.941406 258.671875 288.140625 257.824219 C 288.339844 256.980469 288.589844 256.148438 288.886719 255.332031 C 289.179688 254.515625 289.523438 253.71875 289.910156 252.941406 C 290.300781 252.167969 290.730469 251.414062 291.207031 250.6875 C 291.683594 249.960938 292.199219 249.265625 292.757812 248.597656 C 293.3125 247.929688 293.90625 247.296875 294.535156 246.699219 C 295.164062 246.101562 295.828125 245.542969 296.523438 245.023438 C 298.460938 243.554688 300.582031 242.4375 302.886719 241.667969 C 305.195312 240.898438 307.5625 240.519531 309.992188 240.53125 Z M 229.167969 222.566406 L 265.089844 222.566406 C 266.410156 222.570312 267.71875 222.683594 269.019531 222.917969 C 270.320312 223.148438 271.585938 223.492188 272.828125 223.949219 C 274.066406 224.40625 275.253906 224.964844 276.394531 225.632812 C 277.535156 226.296875 278.605469 227.058594 279.613281 227.910156 C 280.617188 228.765625 281.539062 229.703125 282.382812 230.722656 C 283.222656 231.738281 283.96875 232.820312 284.617188 233.972656 C 285.265625 235.121094 285.808594 236.316406 286.25 237.5625 C 286.6875 238.808594 287.011719 240.082031 287.226562 241.382812 C 286.613281 242.035156 286.023438 242.707031 285.464844 243.40625 C 284.90625 244.109375 284.378906 244.828125 283.882812 245.574219 C 283.386719 246.320312 282.921875 247.082031 282.492188 247.867188 C 282.0625 248.652344 281.664062 249.453125 281.300781 250.273438 C 280.9375 251.089844 280.609375 251.921875 280.320312 252.769531 C 280.027344 253.613281 279.773438 254.472656 279.554688 255.339844 C 279.335938 256.207031 279.15625 257.082031 279.011719 257.96875 C 278.867188 258.851562 278.761719 259.738281 278.691406 260.632812 C 278.625 261.523438 278.59375 262.417969 278.605469 263.3125 C 278.613281 264.207031 278.660156 265.101562 278.742188 265.992188 C 278.828125 266.882812 278.953125 267.769531 279.113281 268.648438 C 279.273438 269.53125 279.46875 270.402344 279.703125 271.265625 C 279.941406 272.128906 280.210938 272.980469 280.519531 273.824219 C 280.828125 274.664062 281.167969 275.488281 281.546875 276.300781 C 281.925781 277.113281 282.339844 277.90625 282.785156 278.679688 C 283.230469 279.457031 283.707031 280.214844 284.21875 280.949219 L 210.039062 280.949219 C 210.550781 280.214844 211.027344 279.457031 211.476562 278.679688 C 211.921875 277.90625 212.332031 277.113281 212.710938 276.300781 C 213.089844 275.488281 213.433594 274.664062 213.738281 273.824219 C 214.046875 272.980469 214.320312 272.128906 214.554688 271.265625 C 214.789062 270.402344 214.988281 269.53125 215.148438 268.648438 C 215.308594 267.769531 215.429688 266.882812 215.515625 265.992188 C 215.597656 265.101562 215.644531 264.207031 215.65625 263.3125 C 215.664062 262.417969 215.632812 261.523438 215.566406 260.632812 C 215.496094 259.738281 215.390625 258.851562 215.246094 257.96875 C 215.105469 257.082031 214.921875 256.207031 214.703125 255.339844 C 214.484375 254.472656 214.230469 253.613281 213.9375 252.769531 C 213.648438 251.921875 213.320312 251.089844 212.957031 250.273438 C 212.59375 249.453125 212.199219 248.652344 211.765625 247.867188 C 211.335938 247.082031 210.871094 246.320312 210.375 245.574219 C 209.878906 244.828125 209.351562 244.109375 208.792969 243.40625 C 208.234375 242.707031 207.648438 242.035156 207.03125 241.382812 C 207.246094 240.082031 207.570312 238.808594 208.007812 237.5625 C 208.449219 236.316406 208.992188 235.121094 209.640625 233.972656 C 210.292969 232.820312 211.035156 231.738281 211.875 230.722656 C 212.71875 229.703125 213.640625 228.765625 214.644531 227.910156 C 215.652344 227.058594 216.726562 226.296875 217.863281 225.632812 C 219.003906 224.964844 220.195312 224.40625 221.433594 223.949219 C 222.671875 223.492188 223.941406 223.148438 225.238281 222.917969 C 226.539062 222.683594 227.847656 222.570312 229.167969 222.566406 Z M 103.441406 222.566406 L 139.363281 222.566406 C 140.683594 222.570312 141.992188 222.683594 143.292969 222.917969 C 144.589844 223.148438 145.859375 223.492188 147.097656 223.949219 C 148.335938 224.40625 149.527344 224.964844 150.667969 225.632812 C 151.804688 226.296875 152.878906 227.058594 153.886719 227.910156 C 154.890625 228.765625 155.8125 229.703125 156.652344 230.722656 C 157.496094 231.738281 158.238281 232.820312 158.890625 233.972656 C 159.539062 235.121094 160.082031 236.316406 160.523438 237.5625 C 160.960938 238.808594 161.285156 240.082031 161.5 241.382812 C 160.882812 242.035156 160.296875 242.707031 159.738281 243.40625 C 159.179688 244.109375 158.652344 244.828125 158.15625 245.574219 C 157.660156 246.320312 157.195312 247.082031 156.765625 247.867188 C 156.332031 248.652344 155.9375 249.453125 155.574219 250.273438 C 155.210938 251.089844 154.882812 251.921875 154.59375 252.769531 C 154.300781 253.613281 154.046875 254.472656 153.828125 255.339844 C 153.609375 256.207031 153.425781 257.082031 153.285156 257.96875 C 153.140625 258.851562 153.035156 259.738281 152.964844 260.632812 C 152.898438 261.523438 152.867188 262.417969 152.875 263.3125 C 152.886719 264.207031 152.933594 265.101562 153.015625 265.992188 C 153.101562 266.882812 153.222656 267.769531 153.382812 268.648438 C 153.542969 269.53125 153.742188 270.402344 153.976562 271.265625 C 154.210938 272.128906 154.484375 272.980469 154.792969 273.824219 C 155.097656 274.664062 155.441406 275.488281 155.820312 276.300781 C 156.199219 277.113281 156.609375 277.90625 157.054688 278.679688 C 157.503906 279.457031 157.980469 280.214844 158.492188 280.949219 L 84.3125 280.949219 C 84.824219 280.214844 85.300781 279.457031 85.746094 278.679688 C 86.191406 277.90625 86.605469 277.113281 86.984375 276.300781 C 87.363281 275.488281 87.703125 274.664062 88.011719 273.824219 C 88.320312 272.980469 88.589844 272.128906 88.828125 271.265625 C 89.0625 270.402344 89.257812 269.53125 89.417969 268.648438 C 89.578125 267.769531 89.703125 266.882812 89.789062 265.992188 C 89.871094 265.101562 89.917969 264.207031 89.925781 263.3125 C 89.9375 262.417969 89.90625 261.523438 89.839844 260.632812 C 89.769531 259.738281 89.664062 258.851562 89.519531 257.96875 C 89.375 257.085938 89.195312 256.207031 88.976562 255.339844 C 88.757812 254.472656 88.503906 253.613281 88.210938 252.769531 C 87.921875 251.921875 87.59375 251.089844 87.230469 250.273438 C 86.867188 249.453125 86.46875 248.652344 86.039062 247.867188 C 85.609375 247.082031 85.144531 246.320312 84.648438 245.574219 C 84.152344 244.828125 83.625 244.109375 83.066406 243.40625 C 82.507812 242.707031 81.917969 242.035156 81.304688 241.382812 C 81.519531 240.082031 81.84375 238.808594 82.28125 237.5625 C 82.722656 236.316406 83.265625 235.121094 83.914062 233.972656 C 84.5625 232.820312 85.308594 231.738281 86.148438 230.722656 C 86.988281 229.703125 87.914062 228.765625 88.917969 227.910156 C 89.925781 227.058594 90.996094 226.296875 92.136719 225.632812 C 93.277344 224.964844 94.464844 224.40625 95.703125 223.949219 C 96.945312 223.492188 98.210938 223.148438 99.511719 222.917969 C 100.8125 222.683594 102.121094 222.570312 103.441406 222.566406 Z M 103.441406 222.566406 " fill-opacity="1" fill-rule="nonzero"/></svg>