<svg xmlns="http://www.w3.org/2000/svg" xmlns:xlink="http://www.w3.org/1999/xlink" width="500" zoomAndPan="magnify" viewBox="0 0 375 374.999991" height="500" preserveAspectRatio="xMidYMid meet" version="1.0"><defs><clipPath id="9ccf2ed47f"><path d="M 1 115 L 164 115 L 164 355.460938 L 1 355.460938 Z M 1 115 " clip-rule="nonzero"/></clipPath><clipPath id="d263bf04bb"><path d="M 239 19.460938 L 316 19.460938 L 316 50 L 239 50 Z M 239 19.460938 " clip-rule="nonzero"/></clipPath><clipPath id="558f4bd4b4"><path d="M 136 80 L 371 80 L 371 355.460938 L 136 355.460938 Z M 136 80 " clip-rule="nonzero"/></clipPath></defs><path fill="#7ed957" d="M 247.75 68.054688 C 246.890625 71.011719 246.464844 74.125 246.464844 77.429688 C 246.464844 95.285156 260.347656 109.757812 277.421875 109.757812 C 294.496094 109.757812 308.304688 95.285156 308.304688 77.429688 C 308.304688 74.125 307.875 71.011719 307.019531 68.054688 C 297.996094 72.21875 284.734375 72.839844 277.460938 72.839844 C 270.113281 72.800781 256.769531 72.21875 247.75 68.054688 Z M 247.75 68.054688 " fill-opacity="1" fill-rule="nonzero"/><g clip-path="url(#9ccf2ed47f)"><path fill="#7ed957" d="M 115.085938 120.183594 C 105.984375 115.203125 94.625 115.320312 85.449219 115.398438 L 79.226562 115.398438 C 70.085938 115.320312 58.691406 115.203125 49.589844 120.183594 C 20.222656 136.210938 7.351562 171.996094 1.75 199.226562 C 0 207.667969 5.445312 215.917969 13.886719 217.667969 C 14.933594 217.902344 15.984375 217.976562 17.035156 217.976562 C 24.269531 217.976562 30.804688 212.882812 32.320312 205.53125 C 34.226562 196.347656 38.816406 178.417969 47.878906 164.21875 L 44.804688 219.457031 L 26.292969 334.992188 C 24.773438 344.445312 31.191406 353.351562 40.683594 354.871094 C 41.617188 355.027344 42.550781 355.101562 43.445312 355.101562 C 51.804688 355.101562 59.15625 349.035156 60.554688 340.515625 L 78.292969 229.960938 L 85.527344 229.960938 L 89.335938 338.375 C 89.648438 347.945312 97.699219 355.453125 107.265625 355.101562 C 116.835938 354.753906 124.339844 346.738281 123.992188 337.171875 L 119.867188 220.351562 L 116.757812 164.257812 C 125.820312 178.457031 130.40625 196.347656 132.3125 205.53125 C 134.0625 213.972656 142.269531 219.417969 150.75 217.667969 C 159.1875 215.917969 164.632812 207.667969 162.882812 199.226562 C 157.320312 172.035156 144.449219 136.210938 115.085938 120.183594 Z M 115.085938 120.183594 " fill-opacity="1" fill-rule="nonzero"/></g><path fill="#7ed957" d="M 82.6875 107.460938 C 100.847656 107.460938 115.589844 92.71875 115.589844 74.550781 C 115.589844 56.386719 100.847656 41.640625 82.6875 41.640625 C 64.523438 41.640625 49.78125 56.386719 49.78125 74.550781 C 49.78125 92.71875 64.523438 107.460938 82.6875 107.460938 Z M 82.6875 107.460938 " fill-opacity="1" fill-rule="nonzero"/><path fill="#7ed957" d="M 309.316406 56.386719 C 309.316406 56.386719 294.109375 54.011719 277.382812 54.011719 C 260.660156 54.011719 245.453125 56.386719 245.453125 56.386719 C 245.453125 62.027344 259.765625 65.835938 277.382812 65.835938 C 295.003906 65.835938 309.316406 62.027344 309.316406 56.386719 Z M 309.316406 56.386719 " fill-opacity="1" fill-rule="nonzero"/><g clip-path="url(#d263bf04bb)"><path fill="#7ed957" d="M 243.859375 49.65625 L 244.363281 49.578125 C 245.0625 49.5 260.308594 47.164062 277.382812 47.164062 C 294.457031 47.164062 309.703125 49.5 310.328125 49.578125 L 311.027344 49.65625 C 312 47.75 313.789062 43.859375 314.917969 39.851562 C 315.695312 37.519531 314.214844 35.066406 311.804688 34.5625 C 293.953125 30.554688 284.152344 24.175781 279.914062 20.675781 C 278.433594 19.46875 276.257812 19.46875 274.777344 20.675781 C 270.65625 24.175781 260.855469 30.59375 242.964844 34.5625 C 240.628906 35.066406 239.074219 37.324219 239.734375 39.695312 C 240.902344 43.742188 242.808594 47.671875 243.859375 49.65625 Z M 271.902344 31.410156 C 271.902344 31.058594 272.171875 30.789062 272.484375 30.75 C 275.75 30.398438 276.722656 28.53125 276.761719 28.453125 C 276.878906 28.222656 277.113281 28.066406 277.34375 28.066406 C 277.578125 28.066406 277.851562 28.222656 277.96875 28.453125 C 278.007812 28.53125 278.941406 30.398438 282.246094 30.75 C 282.597656 30.789062 282.828125 31.058594 282.828125 31.410156 L 282.828125 34.289062 C 282.828125 38.335938 278.203125 40.863281 277.65625 41.136719 C 277.539062 41.175781 277.460938 41.214844 277.34375 41.214844 C 277.230469 41.214844 277.152344 41.175781 277.035156 41.136719 C 276.488281 40.863281 271.863281 38.335938 271.863281 34.289062 L 271.863281 31.410156 Z M 271.902344 31.410156 " fill-opacity="1" fill-rule="nonzero"/></g><g clip-path="url(#558f4bd4b4)"><path fill="#7ed957" d="M 365.320312 142.550781 C 364.039062 141.421875 335.761719 118.199219 297.101562 111.78125 L 284.539062 150.214844 L 281.234375 127.496094 L 283.414062 127.496094 C 284.695312 127.496094 285.746094 126.445312 285.746094 125.160156 L 285.746094 117.769531 C 285.746094 116.488281 284.695312 115.359375 283.414062 115.359375 L 271.433594 115.359375 C 270.148438 115.359375 269.023438 116.488281 269.023438 117.769531 L 269.023438 125.160156 C 269.023438 126.445312 270.148438 127.496094 271.433594 127.496094 L 273.613281 127.496094 L 270.304688 150.214844 L 257.664062 111.78125 C 246.816406 113.53125 235.808594 116.796875 224.800781 121.582031 C 211.851562 127.144531 197.652344 126.523438 185.832031 120.261719 L 192.792969 107.890625 C 194.308594 105.167969 193.375 101.742188 190.652344 100.226562 L 157.011719 81.203125 C 155.6875 80.464844 154.171875 80.230469 152.734375 80.699219 C 151.292969 81.085938 150.085938 82.058594 149.347656 83.34375 L 137.410156 104.503906 C 135.890625 107.226562 136.824219 110.652344 139.546875 112.167969 L 152.925781 119.753906 C 150.085938 125.863281 151.371094 133.332031 156.738281 138.039062 C 178.675781 157.097656 210.214844 161.882812 237.207031 150.175781 C 238.257812 149.746094 239.308594 149.394531 240.320312 148.96875 L 239.851562 217.902344 L 220.09375 267.695312 C 219.316406 269.675781 218.890625 271.855469 218.890625 273.917969 L 218.382812 337.636719 C 218.304688 347.167969 226.007812 354.988281 235.652344 355.0625 L 235.730469 355.0625 C 245.257812 355.0625 253 347.441406 253.078125 337.910156 L 253.503906 277.457031 L 272.40625 229.921875 L 280.574219 229.921875 L 281.703125 337.988281 C 281.78125 347.441406 289.519531 355.0625 298.96875 355.0625 L 299.242188 355.0625 C 308.769531 354.988281 316.511719 347.089844 316.394531 337.558594 L 314.992188 221.167969 L 314.839844 200.433594 C 315.886719 201.988281 317.171875 203.390625 318.726562 204.597656 C 321.488281 206.582031 324.71875 207.554688 327.90625 207.554688 C 332.769531 207.554688 337.433594 205.375 340.46875 201.210938 L 367.964844 163.75 C 372.75 157.097656 371.621094 147.800781 365.320312 142.550781 Z M 156.386719 93.769531 L 180.230469 107.226562 L 173.8125 118.585938 L 149.972656 105.128906 Z M 315.304688 182.773438 C 315.03125 183.125 314.953125 183.472656 314.683594 183.824219 L 314.410156 148.96875 C 321.761719 151.925781 328.179688 155.308594 333.234375 158.34375 Z M 315.304688 182.773438 " fill-opacity="1" fill-rule="nonzero"/></g></svg>