<svg xmlns="http://www.w3.org/2000/svg" xmlns:xlink="http://www.w3.org/1999/xlink" width="500" zoomAndPan="magnify" viewBox="0 0 375 374.999991" height="500" preserveAspectRatio="xMidYMid meet" version="1.0"><defs><clipPath id="80ebd7c5c0"><path d="M 37.5 5.171875 L 330 5.171875 L 330 373.421875 L 37.5 373.421875 Z M 37.5 5.171875 " clip-rule="nonzero"/></clipPath></defs><g clip-path="url(#80ebd7c5c0)"><path fill="#7ed957" d="M 327.054688 27.363281 L 296.476562 27.363281 L 296.476562 8.097656 C 296.476562 6.484375 295.167969 5.171875 293.554688 5.171875 L 40.445312 5.171875 C 38.832031 5.171875 37.519531 6.484375 37.519531 8.097656 L 37.519531 348.3125 C 37.519531 349.925781 38.832031 351.234375 40.445312 351.234375 L 71.023438 351.234375 L 71.023438 370.5 C 71.023438 372.113281 72.332031 373.421875 73.945312 373.421875 L 327.054688 373.421875 C 328.667969 373.421875 329.980469 372.113281 329.980469 370.5 L 329.980469 30.285156 C 329.980469 28.671875 328.667969 27.363281 327.054688 27.363281 Z M 43.371094 11.019531 L 290.628906 11.019531 L 290.628906 345.390625 L 43.371094 345.390625 Z M 324.128906 367.578125 L 76.871094 367.578125 L 76.871094 351.234375 L 293.554688 351.234375 C 295.171875 351.234375 296.480469 349.925781 296.480469 348.3125 L 296.480469 33.207031 L 324.128906 33.207031 Z M 324.128906 367.578125 " fill-opacity="1" fill-rule="nonzero"/></g><path fill="#7ed957" d="M 76.871094 59.867188 C 76.871094 59.796875 76.835938 59.738281 76.832031 59.667969 C 76.820312 59.472656 76.769531 59.289062 76.714844 59.097656 C 76.664062 58.90625 76.609375 58.722656 76.515625 58.546875 C 76.484375 58.484375 76.484375 58.417969 76.449219 58.355469 L 67.105469 42.882812 L 84.3125 36.472656 C 85.636719 38.210938 87.484375 39.5 89.632812 40.132812 L 89.632812 71.976562 C 82.722656 73.097656 76.867188 78.105469 74.863281 84.929688 C 74.601562 85.8125 74.773438 86.765625 75.328125 87.503906 C 75.875 88.238281 76.746094 88.675781 77.667969 88.675781 L 107.445312 88.675781 C 108.367188 88.675781 109.234375 88.242188 109.785156 87.503906 C 110.335938 86.765625 110.507812 85.8125 110.25 84.929688 C 108.246094 78.105469 102.386719 73.097656 95.480469 71.976562 L 95.480469 40.132812 C 97.625 39.5 99.476562 38.210938 100.800781 36.472656 L 118.007812 42.882812 L 108.664062 58.355469 C 108.628906 58.417969 108.625 58.484375 108.597656 58.546875 C 108.507812 58.722656 108.453125 58.90625 108.398438 59.097656 C 108.34375 59.292969 108.296875 59.472656 108.285156 59.667969 C 108.277344 59.738281 108.242188 59.796875 108.242188 59.867188 C 108.242188 67.597656 114.566406 73.882812 122.332031 73.882812 C 130.101562 73.882812 136.425781 67.597656 136.425781 59.867188 C 136.425781 59.796875 136.390625 59.738281 136.382812 59.667969 C 136.371094 59.472656 136.320312 59.289062 136.269531 59.097656 C 136.214844 58.90625 136.160156 58.722656 136.070312 58.546875 C 136.039062 58.484375 136.039062 58.417969 136.003906 58.355469 L 124.835938 39.863281 C 124.769531 39.753906 124.660156 39.6875 124.582031 39.585938 C 124.472656 39.449219 124.371094 39.324219 124.238281 39.207031 C 124.042969 39.039062 123.835938 38.910156 123.613281 38.800781 C 123.519531 38.753906 123.453125 38.671875 123.355469 38.632812 L 102.851562 30.996094 C 102.871094 30.753906 102.925781 30.527344 102.925781 30.28125 C 102.925781 24.589844 98.277344 19.960938 92.558594 19.960938 C 86.839844 19.960938 82.191406 24.589844 82.191406 30.28125 C 82.191406 30.527344 82.246094 30.757812 82.265625 30.996094 L 61.761719 38.632812 C 61.664062 38.667969 61.597656 38.75 61.507812 38.796875 C 61.28125 38.910156 61.070312 39.039062 60.875 39.210938 C 60.746094 39.324219 60.640625 39.449219 60.53125 39.585938 C 60.449219 39.6875 60.339844 39.757812 60.273438 39.867188 L 49.109375 58.359375 C 49.074219 58.421875 49.070312 58.488281 49.039062 58.550781 C 48.949219 58.722656 48.898438 58.910156 48.84375 59.101562 C 48.789062 59.292969 48.738281 59.476562 48.726562 59.671875 C 48.722656 59.738281 48.6875 59.796875 48.6875 59.867188 C 48.6875 67.597656 55.007812 73.882812 62.777344 73.882812 C 70.546875 73.882812 76.871094 67.597656 76.871094 59.867188 Z M 122.332031 47.035156 L 128.320312 56.949219 L 116.347656 56.949219 Z M 122.332031 68.039062 C 118.828125 68.039062 115.824219 65.855469 114.636719 62.789062 L 130.03125 62.789062 C 128.84375 65.859375 125.839844 68.039062 122.332031 68.039062 Z M 102.800781 82.828125 L 82.3125 82.828125 C 84.632812 79.613281 88.433594 77.582031 92.554688 77.582031 C 96.679688 77.582031 100.476562 79.617188 102.800781 82.828125 Z M 92.554688 25.808594 C 95.046875 25.808594 97.074219 27.816406 97.074219 30.285156 C 97.074219 32.75 95.046875 34.757812 92.554688 34.757812 C 90.0625 34.757812 88.039062 32.75 88.039062 30.285156 C 88.039062 27.816406 90.0625 25.808594 92.554688 25.808594 Z M 68.765625 56.945312 L 56.792969 56.945312 L 62.78125 47.03125 Z M 55.082031 62.789062 L 70.476562 62.789062 C 69.289062 65.855469 66.285156 68.039062 62.777344 68.039062 C 59.273438 68.039062 56.269531 65.859375 55.082031 62.789062 Z M 55.082031 62.789062 " fill-opacity="1" fill-rule="nonzero"/><path fill="#7ed957" d="M 167 44.300781 L 241.441406 44.300781 C 243.058594 44.300781 244.367188 42.992188 244.367188 41.378906 C 244.367188 39.765625 243.058594 38.457031 241.441406 38.457031 L 167 38.457031 C 165.386719 38.457031 164.078125 39.765625 164.078125 41.378906 C 164.078125 42.992188 165.386719 44.300781 167 44.300781 Z M 167 44.300781 " fill-opacity="1" fill-rule="nonzero"/><path fill="#7ed957" d="M 155.835938 70.1875 L 271.222656 70.1875 C 272.839844 70.1875 274.148438 68.878906 274.148438 67.265625 C 274.148438 65.652344 272.839844 64.339844 271.222656 64.339844 L 155.835938 64.339844 C 154.21875 64.339844 152.910156 65.652344 152.910156 67.265625 C 152.910156 68.878906 154.21875 70.1875 155.835938 70.1875 Z M 155.835938 70.1875 " fill-opacity="1" fill-rule="nonzero"/><path fill="#7ed957" d="M 114.890625 108.71875 L 70.222656 108.71875 C 68.609375 108.71875 67.300781 110.027344 67.300781 111.640625 C 67.300781 113.253906 68.609375 114.5625 70.222656 114.5625 L 114.890625 114.5625 C 116.503906 114.5625 117.816406 113.253906 117.816406 111.640625 C 117.816406 110.027344 116.503906 108.71875 114.890625 108.71875 Z M 114.890625 108.71875 " fill-opacity="1" fill-rule="nonzero"/><path fill="#7ed957" d="M 85.90625 133.828125 C 85.90625 135.441406 87.21875 136.753906 88.832031 136.753906 L 263.773438 136.753906 C 265.390625 136.753906 266.699219 135.441406 266.699219 133.828125 C 266.699219 132.214844 265.390625 130.90625 263.773438 130.90625 L 88.832031 130.90625 C 87.21875 130.90625 85.90625 132.214844 85.90625 133.828125 Z M 85.90625 133.828125 " fill-opacity="1" fill-rule="nonzero"/><path fill="#7ed957" d="M 70.222656 166.335938 L 263.777344 166.335938 C 265.394531 166.335938 266.703125 165.027344 266.703125 163.414062 C 266.703125 161.800781 265.394531 160.488281 263.777344 160.488281 L 70.222656 160.488281 C 68.609375 160.488281 67.300781 161.800781 67.300781 163.414062 C 67.300781 165.027344 68.605469 166.335938 70.222656 166.335938 Z M 70.222656 166.335938 " fill-opacity="1" fill-rule="nonzero"/><path fill="#7ed957" d="M 70.222656 199.617188 L 263.777344 199.617188 C 265.394531 199.617188 266.703125 198.308594 266.703125 196.695312 C 266.703125 195.082031 265.394531 193.773438 263.777344 193.773438 L 70.222656 193.773438 C 68.609375 193.773438 67.300781 195.082031 67.300781 196.695312 C 67.300781 198.308594 68.605469 199.617188 70.222656 199.617188 Z M 70.222656 199.617188 " fill-opacity="1" fill-rule="nonzero"/><path fill="#7ed957" d="M 148.390625 229.199219 L 263.777344 229.199219 C 265.394531 229.199219 266.703125 227.890625 266.703125 226.277344 C 266.703125 224.664062 265.394531 223.355469 263.777344 223.355469 L 148.390625 223.355469 C 146.773438 223.355469 145.464844 224.664062 145.464844 226.277344 C 145.464844 227.890625 146.773438 229.199219 148.390625 229.199219 Z M 148.390625 229.199219 " fill-opacity="1" fill-rule="nonzero"/><path fill="#7ed957" d="M 151.3125 285.445312 C 151.3125 259.363281 129.964844 238.148438 103.722656 238.148438 C 77.480469 238.148438 56.132812 259.363281 56.132812 285.445312 C 56.132812 311.527344 77.480469 332.746094 103.722656 332.746094 C 129.964844 332.746094 151.3125 311.527344 151.3125 285.445312 Z M 61.980469 285.445312 C 61.980469 262.589844 80.707031 243.992188 103.722656 243.992188 C 126.738281 243.992188 145.464844 262.589844 145.464844 285.445312 C 145.464844 308.304688 126.738281 326.902344 103.722656 326.902344 C 80.707031 326.902344 61.980469 308.304688 61.980469 285.445312 Z M 61.980469 285.445312 " fill-opacity="1" fill-rule="nonzero"/><path fill="#7ed957" d="M 136.425781 285.445312 C 136.425781 267.523438 121.753906 252.9375 103.722656 252.9375 C 85.6875 252.9375 71.019531 267.523438 71.019531 285.445312 C 71.019531 303.371094 85.6875 317.953125 103.722656 317.953125 C 121.753906 317.953125 136.425781 303.371094 136.425781 285.445312 Z M 76.871094 285.445312 C 76.871094 270.746094 88.917969 258.785156 103.726562 258.785156 C 118.53125 258.785156 130.578125 270.742188 130.578125 285.445312 C 130.578125 300.148438 118.53125 312.109375 103.726562 312.109375 C 88.917969 312.109375 76.871094 300.148438 76.871094 285.445312 Z M 76.871094 285.445312 " fill-opacity="1" fill-rule="nonzero"/><path fill="#7ed957" d="M 116.769531 272.109375 C 115.527344 271.074219 113.6875 271.238281 112.648438 272.472656 L 96.539062 291.679688 L 91.261719 283.820312 C 90.363281 282.476562 88.550781 282.113281 87.203125 283.019531 C 85.863281 283.921875 85.503906 285.734375 86.40625 287.078125 L 93.847656 298.171875 C 94.359375 298.933594 95.203125 299.414062 96.121094 299.460938 C 96.171875 299.464844 96.226562 299.464844 96.277344 299.464844 C 97.136719 299.464844 97.960938 299.082031 98.519531 298.417969 L 117.132812 276.230469 C 118.167969 274.992188 118.003906 273.148438 116.769531 272.109375 Z M 116.769531 272.109375 " fill-opacity="1" fill-rule="nonzero"/><path fill="#7ed957" d="M 270.164062 285.855469 C 266.773438 287.167969 263.265625 288.335938 259.742188 289.328125 C 255.972656 290.386719 252.125 291.257812 248.253906 291.933594 C 248.59375 291.078125 248.878906 290.203125 249.113281 289.308594 C 249.855469 286.417969 250.878906 282.460938 248.542969 279.605469 C 246.167969 276.699219 241.496094 276.390625 234.65625 278.6875 C 229.5625 280.398438 225.289062 283.269531 221.867188 286.265625 C 222.007812 283.679688 221.566406 281.183594 219.878906 279.433594 C 216.203125 275.601562 209.347656 277.609375 198.757812 282.355469 C 187.695312 287.308594 176.761719 293.378906 166.257812 300.398438 C 164.914062 301.296875 164.554688 303.109375 165.449219 304.453125 C 166.015625 305.296875 166.941406 305.75 167.886719 305.75 C 168.445312 305.75 169.011719 305.589844 169.511719 305.257812 C 179.742188 298.421875 190.390625 292.507812 201.152344 287.6875 C 213.1875 282.296875 215.292969 283.109375 215.664062 283.484375 C 215.710938 283.535156 216.855469 284.824219 214.964844 291.328125 C 214.222656 293.871094 212.929688 295.789062 212.234375 296.816406 C 210.542969 299.332031 211.402344 300.796875 212.421875 301.585938 C 213.042969 302.0625 213.851562 302.273438 214.632812 302.167969 C 215.96875 301.980469 216.546875 301.203125 217.691406 299.65625 C 220.148438 296.34375 226.675781 287.539062 236.519531 284.226562 C 241.703125 282.484375 243.777344 283.074219 244.011719 283.308594 C 244.457031 283.933594 243.695312 286.882812 243.445312 287.851562 C 242.882812 290.027344 241.863281 292.0625 240.417969 293.894531 C 239.683594 294.820312 239.582031 296.101562 240.164062 297.132812 C 240.742188 298.164062 241.886719 298.746094 243.066406 298.605469 C 249.222656 297.859375 255.363281 296.632812 261.324219 294.953125 C 265.03125 293.914062 268.714844 292.683594 272.28125 291.304688 C 273.785156 290.71875 274.535156 289.027344 273.949219 287.519531 C 273.363281 286.023438 271.671875 285.273438 270.164062 285.855469 Z M 270.164062 285.855469 " fill-opacity="1" fill-rule="nonzero"/><path fill="#7ed957" d="M 259.765625 308.425781 L 185.320312 315.820312 C 183.714844 315.980469 182.539062 317.410156 182.699219 319.019531 C 182.847656 320.527344 184.121094 321.652344 185.605469 321.652344 C 185.703125 321.652344 185.800781 321.648438 185.898438 321.636719 L 260.34375 314.238281 C 261.949219 314.078125 263.125 312.648438 262.964844 311.042969 C 262.804688 309.433594 261.378906 308.246094 259.765625 308.425781 Z M 259.765625 308.425781 " fill-opacity="1" fill-rule="nonzero"/></svg>