<svg xmlns="http://www.w3.org/2000/svg" xmlns:xlink="http://www.w3.org/1999/xlink" width="500" zoomAndPan="magnify" viewBox="0 0 375 374.999991" height="500" preserveAspectRatio="xMidYMid meet" version="1.0"><defs><clipPath id="896d942831"><path d="M 4.167969 7.640625 L 367.167969 7.640625 L 367.167969 370.640625 L 4.167969 370.640625 Z M 4.167969 7.640625 " clip-rule="nonzero"/></clipPath></defs><path fill="#7ed957" d="M 28.367188 31.839844 L 40.464844 31.839844 L 40.464844 43.9375 L 28.367188 43.9375 Z M 28.367188 31.839844 " fill-opacity="1" fill-rule="nonzero"/><path fill="#7ed957" d="M 52.566406 31.839844 L 64.667969 31.839844 L 64.667969 43.9375 L 52.566406 43.9375 Z M 52.566406 31.839844 " fill-opacity="1" fill-rule="nonzero"/><path fill="#7ed957" d="M 76.765625 31.839844 L 88.867188 31.839844 L 88.867188 43.9375 L 76.765625 43.9375 Z M 76.765625 31.839844 " fill-opacity="1" fill-rule="nonzero"/><g clip-path="url(#896d942831)"><path fill="#7ed957" d="M 349.015625 7.640625 L 22.316406 7.640625 C 12.335938 7.640625 4.167969 15.804688 4.167969 25.789062 L 4.167969 352.488281 C 4.167969 362.472656 12.335938 370.640625 22.316406 370.640625 L 349.015625 370.640625 C 359 370.640625 367.167969 362.472656 367.167969 352.488281 L 367.167969 25.789062 C 367.167969 15.804688 359 7.640625 349.015625 7.640625 Z M 355.066406 31.839844 L 100.964844 31.839844 L 100.964844 43.9375 L 355.066406 43.9375 L 355.066406 352.488281 C 355.066406 355.816406 352.34375 358.539062 349.015625 358.539062 L 22.316406 358.539062 C 18.988281 358.539062 16.265625 355.816406 16.265625 352.488281 L 16.265625 25.789062 C 16.265625 22.460938 18.988281 19.738281 22.316406 19.738281 L 349.015625 19.738281 C 352.34375 19.738281 355.066406 22.460938 355.066406 25.789062 Z M 355.066406 31.839844 " fill-opacity="1" fill-rule="nonzero"/></g><path fill="#7ed957" d="M 119.117188 68.140625 L 252.214844 68.140625 L 252.214844 80.238281 L 119.117188 80.238281 Z M 119.117188 68.140625 " fill-opacity="1" fill-rule="nonzero"/><path fill="#7ed957" d="M 40.464844 122.589844 L 40.464844 158.890625 C 40.464844 162.214844 43.1875 164.9375 46.515625 164.9375 L 228.015625 164.9375 L 228.015625 152.839844 L 52.566406 152.839844 L 52.566406 128.640625 L 318.765625 128.640625 L 318.765625 152.839844 L 300.617188 152.839844 L 300.617188 164.9375 L 324.816406 164.9375 C 328.144531 164.9375 330.867188 162.214844 330.867188 158.890625 L 330.867188 122.589844 C 330.867188 119.261719 328.144531 116.539062 324.816406 116.539062 L 46.515625 116.539062 C 43.1875 116.539062 40.464844 119.261719 40.464844 122.589844 Z M 40.464844 122.589844 " fill-opacity="1" fill-rule="nonzero"/><path fill="#7ed957" d="M 40.464844 92.339844 L 94.917969 92.339844 L 94.917969 104.4375 L 40.464844 104.4375 Z M 40.464844 92.339844 " fill-opacity="1" fill-rule="nonzero"/><path fill="#7ed957" d="M 40.464844 183.089844 L 125.167969 183.089844 L 125.167969 195.1875 L 40.464844 195.1875 Z M 40.464844 183.089844 " fill-opacity="1" fill-rule="nonzero"/><path fill="#7ed957" d="M 324.816406 207.289062 L 306.667969 207.289062 L 306.667969 219.390625 L 318.765625 219.390625 L 318.765625 243.589844 L 287.308594 243.589844 L 294.566406 240.941406 C 297.667969 239.808594 299.332031 236.328125 298.195312 233.152344 L 284.207031 194.960938 L 301.296875 193.148438 C 303.792969 192.84375 305.835938 191.105469 306.515625 188.683594 C 307.195312 186.265625 306.289062 183.695312 304.246094 182.257812 L 251.386719 143.6875 C 249.722656 142.476562 247.605469 142.175781 245.714844 142.933594 C 243.824219 143.613281 242.386719 145.199219 241.933594 147.167969 L 226.65625 210.769531 C 226.050781 213.1875 227.035156 215.757812 229.074219 217.195312 C 231.117188 218.632812 233.839844 218.632812 235.882812 217.195312 L 250.097656 207.515625 L 263.332031 243.589844 L 52.566406 243.589844 L 52.566406 219.390625 L 215.917969 219.390625 L 215.917969 207.289062 L 46.515625 207.289062 C 43.1875 207.289062 40.464844 210.011719 40.464844 213.339844 L 40.464844 249.640625 C 40.464844 252.964844 43.1875 255.6875 46.515625 255.6875 L 324.816406 255.6875 C 328.144531 255.6875 330.867188 252.964844 330.867188 249.640625 L 330.867188 213.339844 C 330.867188 210.011719 328.144531 207.289062 324.816406 207.289062 Z M 254.9375 192.390625 C 254.335938 192.164062 253.730469 192.089844 253.125 192.089844 C 251.914062 192.089844 250.703125 192.464844 249.722656 193.148438 L 242.007812 198.363281 L 251.535156 158.8125 L 284.433594 182.863281 L 275.207031 183.84375 C 273.316406 184.070312 271.726562 185.054688 270.746094 186.644531 C 269.761719 188.230469 269.535156 190.199219 270.214844 191.9375 L 284.8125 231.714844 L 273.46875 235.875 L 258.871094 196.097656 C 258.117188 194.355469 256.753906 192.996094 254.9375 192.390625 Z M 254.9375 192.390625 " fill-opacity="1" fill-rule="nonzero"/><path fill="#7ed957" d="M 40.464844 273.839844 L 125.167969 273.839844 L 125.167969 285.9375 L 40.464844 285.9375 Z M 40.464844 273.839844 " fill-opacity="1" fill-rule="nonzero"/><path fill="#7ed957" d="M 324.816406 298.039062 L 46.515625 298.039062 C 43.1875 298.039062 40.464844 300.761719 40.464844 304.089844 L 40.464844 340.390625 C 40.464844 343.714844 43.1875 346.4375 46.515625 346.4375 L 324.816406 346.4375 C 328.144531 346.4375 330.867188 343.714844 330.867188 340.390625 L 330.867188 304.089844 C 330.867188 300.761719 328.144531 298.039062 324.816406 298.039062 Z M 318.765625 334.339844 L 52.566406 334.339844 L 52.566406 310.140625 L 318.765625 310.140625 Z M 318.765625 334.339844 " fill-opacity="1" fill-rule="nonzero"/></svg>