<svg xmlns="http://www.w3.org/2000/svg" xmlns:xlink="http://www.w3.org/1999/xlink" width="500" zoomAndPan="magnify" viewBox="0 0 375 374.999991" height="500" preserveAspectRatio="xMidYMid meet" version="1.0"><defs><clipPath id="59efedbe13"><path d="M 3.5625 72.0625 L 371.8125 72.0625 L 371.8125 279.0625 L 3.5625 279.0625 Z M 3.5625 72.0625 " clip-rule="nonzero"/></clipPath></defs><g clip-path="url(#59efedbe13)"><path fill="#7ed957" d="M 343.042969 244.5625 L 325.308594 244.5625 C 325.601562 242.675781 325.78125 240.765625 325.78125 238.8125 C 325.78125 216.621094 307.707031 198.5625 285.503906 198.5625 C 263.296875 198.5625 245.226562 216.621094 245.226562 238.8125 C 245.226562 240.765625 245.40625 242.675781 245.695312 244.5625 L 129.675781 244.5625 C 129.96875 242.675781 130.148438 240.765625 130.148438 238.8125 C 130.148438 216.621094 112.074219 198.5625 89.871094 198.5625 C 67.664062 198.5625 49.59375 216.621094 49.59375 238.8125 C 49.59375 240.765625 49.773438 242.675781 50.0625 244.5625 L 32.332031 244.5625 C 22.800781 244.5625 15.070312 236.835938 15.070312 227.3125 L 15.070312 210.0625 L 26.578125 210.0625 C 29.207031 210.0625 31.519531 208.265625 32.152344 205.703125 L 37.90625 182.703125 C 38.332031 180.996094 37.949219 179.175781 36.871094 177.785156 C 35.769531 176.371094 34.105469 175.5625 32.332031 175.5625 L 20.171875 175.5625 C 22.328125 173.425781 25.027344 171.808594 28.148438 171.046875 L 47.210938 166.261719 C 54.785156 164.375 61.347656 159.410156 65.214844 152.652344 L 73.238281 138.613281 C 92.65625 104.652344 129.023438 83.5625 168.152344 83.5625 L 184.203125 83.5625 C 223.332031 83.5625 259.699219 104.652344 279.117188 138.613281 L 286.605469 151.683594 C 290.898438 159.210938 298.269531 164.351562 306.832031 165.769531 L 326.65625 169.070312 C 332.636719 170.058594 338.097656 172.347656 342.816406 175.5625 L 331.535156 175.5625 C 328.363281 175.5625 325.78125 178.144531 325.78125 181.3125 C 325.78125 188.925781 328.769531 196.136719 334.230469 201.683594 C 339.714844 207.074219 346.929688 210.0625 354.550781 210.0625 L 360.304688 210.0625 L 360.304688 227.3125 C 360.304688 236.835938 352.570312 244.5625 343.042969 244.5625 Z M 285.503906 267.5625 C 269.632812 267.5625 256.734375 254.667969 256.734375 238.8125 C 256.734375 222.953125 269.632812 210.0625 285.503906 210.0625 C 301.371094 210.0625 314.273438 222.953125 314.273438 238.8125 C 314.273438 254.667969 301.371094 267.5625 285.503906 267.5625 Z M 89.871094 267.5625 C 74 267.5625 61.101562 254.667969 61.101562 238.8125 C 61.101562 222.953125 74 210.0625 89.871094 210.0625 C 105.738281 210.0625 118.640625 222.953125 118.640625 238.8125 C 118.640625 254.667969 105.738281 267.5625 89.871094 267.5625 Z M 15.136719 187.0625 L 24.957031 187.0625 L 22.082031 198.5625 L 15.070312 198.5625 L 15.070312 187.757812 C 15.070312 187.53125 15.113281 187.308594 15.136719 187.0625 Z M 353.941406 187.0625 C 356.191406 190.566406 357.921875 194.429688 358.976562 198.5625 L 354.550781 198.5625 C 349.964844 198.5625 345.625 196.765625 342.367188 193.550781 C 340.5 191.664062 339.128906 189.464844 338.277344 187.0625 Z M 328.542969 157.726562 L 308.71875 154.425781 C 303.59375 153.570312 299.167969 150.496094 296.582031 145.980469 L 289.097656 132.90625 C 267.65625 95.375 227.445312 72.0625 184.203125 72.0625 L 168.152344 72.0625 C 124.910156 72.0625 84.699219 95.375 63.257812 132.90625 L 55.234375 146.945312 C 52.894531 150.988281 48.960938 153.976562 44.421875 155.121094 L 25.363281 159.882812 C 15.472656 162.355469 7.945312 169.722656 4.976562 179.019531 C 4.910156 179.175781 4.910156 179.335938 4.84375 179.492188 C 4.054688 182.140625 3.5625 184.90625 3.5625 187.757812 L 3.5625 227.3125 C 3.5625 243.167969 16.460938 256.0625 32.332031 256.0625 L 53.527344 256.0625 C 60.019531 269.628906 73.84375 279.0625 89.871094 279.0625 C 105.894531 279.0625 119.71875 269.628906 126.214844 256.0625 L 249.160156 256.0625 C 255.652344 269.628906 269.476562 279.0625 285.503906 279.0625 C 301.527344 279.0625 315.351562 269.628906 321.847656 256.0625 L 343.042969 256.0625 C 358.910156 256.0625 371.8125 243.167969 371.8125 227.3125 L 371.8125 208.78125 C 371.8125 183.378906 353.605469 161.90625 328.542969 157.726562 " fill-opacity="1" fill-rule="nonzero"/></g><path fill="#7ed957" d="M 199.195312 164.0625 L 187.6875 164.0625 C 184.515625 164.0625 181.933594 166.644531 181.933594 169.8125 C 181.933594 172.976562 184.515625 175.5625 187.6875 175.5625 L 199.195312 175.5625 C 202.363281 175.5625 204.949219 172.976562 204.949219 169.8125 C 204.949219 166.644531 202.363281 164.0625 199.195312 164.0625 " fill-opacity="1" fill-rule="nonzero"/><path fill="#7ed957" d="M 89.871094 164.0625 L 78.363281 164.0625 C 75.191406 164.0625 72.609375 166.644531 72.609375 169.8125 C 72.609375 172.976562 75.191406 175.5625 78.363281 175.5625 L 89.871094 175.5625 C 93.039062 175.5625 95.625 172.976562 95.625 169.8125 C 95.625 166.644531 93.039062 164.0625 89.871094 164.0625 " fill-opacity="1" fill-rule="nonzero"/><path fill="#7ed957" d="M 285.503906 244.5625 C 282.332031 244.5625 279.75 241.976562 279.75 238.8125 C 279.75 235.644531 282.332031 233.0625 285.503906 233.0625 C 288.671875 233.0625 291.257812 235.644531 291.257812 238.8125 C 291.257812 241.976562 288.671875 244.5625 285.503906 244.5625 Z M 285.503906 221.5625 C 275.972656 221.5625 268.242188 229.289062 268.242188 238.8125 C 268.242188 248.335938 275.972656 256.0625 285.503906 256.0625 C 295.03125 256.0625 302.765625 248.335938 302.765625 238.8125 C 302.765625 229.289062 295.03125 221.5625 285.503906 221.5625 " fill-opacity="1" fill-rule="nonzero"/><path fill="#7ed957" d="M 89.871094 244.5625 C 86.699219 244.5625 84.117188 241.976562 84.117188 238.8125 C 84.117188 235.644531 86.699219 233.0625 89.871094 233.0625 C 93.039062 233.0625 95.625 235.644531 95.625 238.8125 C 95.625 241.976562 93.039062 244.5625 89.871094 244.5625 Z M 89.871094 221.5625 C 80.339844 221.5625 72.609375 229.289062 72.609375 238.8125 C 72.609375 248.335938 80.339844 256.0625 89.871094 256.0625 C 99.398438 256.0625 107.132812 248.335938 107.132812 238.8125 C 107.132812 229.289062 99.398438 221.5625 89.871094 221.5625 " fill-opacity="1" fill-rule="nonzero"/><path fill="#7ed957" d="M 158.917969 146.8125 L 92.613281 146.8125 C 103.960938 119.679688 129.675781 101.910156 158.917969 100.855469 Z M 164.671875 89.3125 L 161.679688 89.3125 C 126.214844 89.3125 94.746094 110.582031 81.53125 143.53125 L 78.765625 150.425781 C 78.070312 152.203125 78.273438 154.199219 79.351562 155.773438 C 80.429688 157.367188 82.203125 158.3125 84.117188 158.3125 L 164.671875 158.3125 C 167.839844 158.3125 170.425781 155.726562 170.425781 152.5625 L 170.425781 95.0625 C 170.425781 91.894531 167.839844 89.3125 164.671875 89.3125 " fill-opacity="1" fill-rule="nonzero"/><path fill="#7ed957" d="M 270.824219 143.507812 C 265.96875 131.449219 258.664062 120.890625 249.113281 112.109375 C 246.777344 109.953125 243.132812 110.109375 241 112.445312 C 238.839844 114.78125 239 118.421875 241.335938 120.554688 C 249.359375 127.945312 255.542969 136.769531 259.746094 146.8125 L 193.441406 146.8125 L 193.441406 100.855469 C 204.519531 101.28125 215.488281 104.179688 225.289062 109.300781 C 228.121094 110.785156 231.605469 109.683594 233.066406 106.875 C 234.527344 104.066406 233.449219 100.585938 230.636719 99.105469 C 218.367188 92.703125 204.542969 89.3125 190.675781 89.3125 L 187.6875 89.3125 C 184.515625 89.3125 181.933594 91.894531 181.933594 95.0625 L 181.933594 152.5625 C 181.933594 155.726562 184.515625 158.3125 187.6875 158.3125 L 268.242188 158.3125 C 270.152344 158.3125 271.925781 157.367188 273.003906 155.773438 C 274.085938 154.199219 274.285156 152.203125 273.589844 150.425781 L 270.824219 143.507812 " fill-opacity="1" fill-rule="nonzero"/></svg>