<svg xmlns="http://www.w3.org/2000/svg" xmlns:xlink="http://www.w3.org/1999/xlink" width="500" zoomAndPan="magnify" viewBox="0 0 375 374.999991" height="500" preserveAspectRatio="xMidYMid meet" version="1.0"><defs><clipPath id="d9075f107f"><path d="M 30 118 L 176 118 L 176 267 L 30 267 Z M 30 118 " clip-rule="nonzero"/></clipPath><clipPath id="8d6865612e"><path d="M 90.328125 77.753906 L 218.566406 195.359375 L -26.273438 462.339844 L -154.511719 344.734375 Z M 90.328125 77.753906 " clip-rule="nonzero"/></clipPath><clipPath id="de75fd1ce5"><path d="M 90.328125 77.753906 L 218.566406 195.359375 L -26.273438 462.339844 L -154.511719 344.734375 Z M 90.328125 77.753906 " clip-rule="nonzero"/></clipPath><clipPath id="c07d383244"><path d="M 90.328125 77.753906 L 218.566406 195.359375 L -26.273438 462.339844 L -154.511719 344.734375 Z M 90.328125 77.753906 " clip-rule="nonzero"/></clipPath><clipPath id="5045da5ab5"><path d="M 58 143 L 176 143 L 176 267 L 58 267 Z M 58 143 " clip-rule="nonzero"/></clipPath><clipPath id="3fd439844e"><path d="M 90.328125 77.753906 L 218.566406 195.359375 L -26.273438 462.339844 L -154.511719 344.734375 Z M 90.328125 77.753906 " clip-rule="nonzero"/></clipPath><clipPath id="a2d4e70511"><path d="M 90.328125 77.753906 L 218.566406 195.359375 L -26.273438 462.339844 L -154.511719 344.734375 Z M 90.328125 77.753906 " clip-rule="nonzero"/></clipPath><clipPath id="b040f75001"><path d="M 90.328125 77.753906 L 218.566406 195.359375 L -26.273438 462.339844 L -154.511719 344.734375 Z M 90.328125 77.753906 " clip-rule="nonzero"/></clipPath><clipPath id="9f8ce4e641"><path d="M 0 107 L 187 107 L 187 375 L 0 375 Z M 0 107 " clip-rule="nonzero"/></clipPath><clipPath id="2ee8c510f8"><path d="M 90.328125 77.753906 L 218.566406 195.359375 L -26.273438 462.339844 L -154.511719 344.734375 Z M 90.328125 77.753906 " clip-rule="nonzero"/></clipPath><clipPath id="0e9ca15784"><path d="M 90.328125 77.753906 L 218.566406 195.359375 L -26.273438 462.339844 L -154.511719 344.734375 Z M 90.328125 77.753906 " clip-rule="nonzero"/></clipPath><clipPath id="0e521ebdec"><path d="M 90.328125 77.753906 L 218.566406 195.359375 L -26.273438 462.339844 L -154.511719 344.734375 Z M 90.328125 77.753906 " clip-rule="nonzero"/></clipPath><clipPath id="4aa6301517"><path d="M 90.332031 77.753906 L 219.101562 195.847656 L -25.742188 462.828125 L -154.511719 344.734375 Z M 90.332031 77.753906 " clip-rule="nonzero"/></clipPath><clipPath id="c51d4d47a5"><path d="M 90.332031 77.753906 L 218.585938 195.378906 L -26.253906 462.355469 L -154.511719 344.734375 Z M 90.332031 77.753906 " clip-rule="nonzero"/></clipPath><clipPath id="7ec78f3b25"><path d="M 0 136 L 187 136 L 187 375 L 0 375 Z M 0 136 " clip-rule="nonzero"/></clipPath><clipPath id="93624a7afd"><path d="M 90.328125 77.753906 L 218.566406 195.359375 L -26.273438 462.339844 L -154.511719 344.734375 Z M 90.328125 77.753906 " clip-rule="nonzero"/></clipPath><clipPath id="3694b739e2"><path d="M 90.328125 77.753906 L 218.566406 195.359375 L -26.273438 462.339844 L -154.511719 344.734375 Z M 90.328125 77.753906 " clip-rule="nonzero"/></clipPath><clipPath id="b3c30629b3"><path d="M 90.328125 77.753906 L 218.566406 195.359375 L -26.273438 462.339844 L -154.511719 344.734375 Z M 90.328125 77.753906 " clip-rule="nonzero"/></clipPath><clipPath id="7a0508a781"><path d="M 149.105469 131.65625 L 219.101562 195.847656 L -25.742188 462.828125 L -95.738281 398.636719 Z M 149.105469 131.65625 " clip-rule="nonzero"/></clipPath><clipPath id="91fc070e3a"><path d="M 149.105469 131.65625 L 218.585938 195.378906 L -26.253906 462.355469 L -95.738281 398.636719 Z M 149.105469 131.65625 " clip-rule="nonzero"/></clipPath></defs><g clip-path="url(#d9075f107f)"><g clip-path="url(#8d6865612e)"><g clip-path="url(#de75fd1ce5)"><g clip-path="url(#c07d383244)"><path fill="#ee2742" d="M 48.867188 139.996094 L 117.675781 118.355469 C 118.988281 117.941406 120.421875 118.261719 121.433594 119.191406 L 174.621094 167.96875 C 175.636719 168.898438 176.078125 170.296875 175.78125 171.640625 L 160.160156 242.0625 C 159.863281 243.402344 158.867188 244.488281 157.554688 244.898438 L 88.75 266.539062 C 87.4375 266.953125 86.003906 266.636719 84.988281 265.703125 L 31.800781 216.929688 C 30.789062 215.996094 30.347656 214.597656 30.644531 213.253906 L 46.265625 142.835938 C 46.5625 141.492188 47.554688 140.410156 48.867188 139.996094 " fill-opacity="1" fill-rule="nonzero"/></g></g></g></g><g clip-path="url(#5045da5ab5)"><g clip-path="url(#3fd439844e)"><g clip-path="url(#a2d4e70511)"><g clip-path="url(#b040f75001)"><path fill="#ee252f" d="M 157.554688 244.898438 L 88.75 266.539062 C 87.4375 266.953125 86.003906 266.636719 84.988281 265.703125 L 58.394531 241.316406 L 148.027344 143.578125 L 174.621094 167.96875 C 175.636719 168.898438 176.078125 170.296875 175.78125 171.640625 L 160.160156 242.0625 C 159.863281 243.402344 158.867188 244.488281 157.554688 244.898438 " fill-opacity="1" fill-rule="nonzero"/></g></g></g></g><g clip-path="url(#9f8ce4e641)"><g clip-path="url(#2ee8c510f8)"><g clip-path="url(#0e9ca15784)"><g clip-path="url(#0e521ebdec)"><g clip-path="url(#4aa6301517)"><g clip-path="url(#c51d4d47a5)"><path fill="#f4f2f3" d="M 106.300781 195.246094 C 103.601562 198.1875 102.136719 200.90625 101.910156 203.40625 C 101.679688 205.902344 102.390625 207.90625 104.042969 209.425781 C 105.710938 210.953125 107.761719 211.492188 110.195312 211.035156 C 112.628906 210.582031 115.230469 208.839844 118 205.816406 C 120.71875 202.855469 122.199219 200.171875 122.433594 197.777344 C 122.667969 195.378906 121.921875 193.394531 120.199219 191.8125 C 118.476562 190.230469 116.414062 189.65625 114.019531 190.09375 C 111.621094 190.527344 109.050781 192.25 106.300781 195.246094 Z M 101.777344 191.421875 C 104.570312 188.375 107.320312 186.277344 110.03125 185.136719 C 112.738281 183.992188 115.265625 183.605469 117.605469 183.972656 C 119.941406 184.339844 122.148438 185.476562 124.21875 187.375 C 127.21875 190.128906 128.613281 193.515625 128.40625 197.539062 C 128.195312 201.566406 126.148438 205.695312 122.269531 209.925781 C 118.34375 214.203125 114.277344 216.628906 110.070312 217.199219 C 106.363281 217.714844 103.003906 216.59375 99.992188 213.828125 C 96.953125 211.042969 95.523438 207.792969 95.695312 204.078125 C 95.902344 199.835938 97.929688 195.617188 101.777344 191.421875 Z M 78.382812 193.210938 L 97.863281 171.96875 L 91.632812 166.257812 L 95.597656 161.933594 L 112.265625 177.214844 L 108.300781 181.539062 L 102.089844 175.84375 L 82.609375 197.085938 Z M 60.691406 161.636719 L 65.273438 164.941406 C 62.742188 168.636719 62.769531 171.667969 65.351562 174.035156 C 66.628906 175.210938 67.945312 175.796875 69.289062 175.800781 C 70.636719 175.808594 71.761719 175.3125 72.667969 174.324219 C 73.199219 173.746094 73.523438 173.132812 73.640625 172.492188 C 73.757812 171.851562 73.675781 171.160156 73.390625 170.417969 C 73.109375 169.675781 72.242188 168.074219 70.792969 165.613281 C 69.492188 163.414062 68.710938 161.613281 68.460938 160.207031 C 68.210938 158.796875 68.3125 157.347656 68.773438 155.855469 C 69.230469 154.359375 70.007812 153.019531 71.105469 151.820312 C 72.386719 150.425781 73.851562 149.460938 75.507812 148.925781 C 77.164062 148.394531 78.816406 148.355469 80.453125 148.8125 C 82.09375 149.265625 83.730469 150.246094 85.371094 151.75 C 87.835938 154.011719 89.148438 156.445312 89.308594 159.050781 C 89.46875 161.660156 88.445312 164.242188 86.246094 166.804688 L 81.796875 163.144531 C 82.867188 161.601562 83.347656 160.273438 83.234375 159.164062 C 83.117188 158.050781 82.488281 156.972656 81.347656 155.925781 C 80.210938 154.878906 79.113281 154.3125 78.058594 154.222656 C 77.007812 154.132812 76.160156 154.441406 75.511719 155.148438 C 74.871094 155.84375 74.613281 156.683594 74.738281 157.675781 C 74.863281 158.664062 75.667969 160.363281 77.160156 162.777344 C 78.722656 165.347656 79.664062 167.40625 79.988281 168.957031 C 80.3125 170.503906 80.230469 172.046875 79.746094 173.578125 C 79.257812 175.113281 78.316406 176.648438 76.90625 178.183594 C 74.871094 180.402344 72.476562 181.640625 69.722656 181.898438 C 66.96875 182.15625 64.140625 180.949219 61.230469 178.285156 C 56.089844 173.566406 55.90625 168.019531 60.691406 161.636719 Z M 157.554688 244.898438 L 88.75 266.539062 C 87.4375 266.953125 86.003906 266.636719 84.988281 265.703125 L 31.800781 216.929688 C 30.789062 215.996094 30.347656 214.597656 30.644531 213.253906 L 46.265625 142.835938 C 46.5625 141.492188 47.554688 140.410156 48.867188 139.996094 L 117.675781 118.355469 C 118.988281 117.941406 120.421875 118.261719 121.433594 119.191406 L 174.621094 167.96875 C 175.636719 168.898438 176.078125 170.296875 175.78125 171.640625 L 160.160156 242.0625 C 159.863281 243.402344 158.867188 244.488281 157.554688 244.898438 Z M 168.261719 249.492188 L 186.261719 168.34375 C 186.5625 167 186.121094 165.601562 185.105469 164.671875 L 123.816406 108.464844 C 122.800781 107.53125 121.367188 107.214844 120.054688 107.625 L 40.765625 132.566406 C 39.453125 132.976562 38.460938 134.058594 38.160156 135.402344 L 20.164062 216.550781 C 19.867188 217.894531 20.304688 219.292969 21.320312 220.226562 L 47.027344 243.800781 L -86.269531 389.148438 L -93.265625 382.734375 L -102.3125 392.605469 L -78.449219 414.488281 L -69.402344 404.621094 L -76.394531 398.207031 L 56.902344 252.855469 L 82.609375 276.433594 C 83.625 277.363281 85.058594 277.679688 86.371094 277.269531 L 165.660156 252.332031 C 166.972656 251.917969 167.964844 250.835938 168.261719 249.492188 " fill-opacity="1" fill-rule="nonzero"/></g></g></g></g></g></g><g clip-path="url(#7ec78f3b25)"><g clip-path="url(#93624a7afd)"><g clip-path="url(#3694b739e2)"><g clip-path="url(#b3c30629b3)"><g clip-path="url(#7a0508a781)"><g clip-path="url(#91fc070e3a)"><path fill="#e3e2e0" d="M 168.261719 249.492188 L 186.261719 168.34375 C 186.5625 167 186.121094 165.601562 185.105469 164.671875 L 154.460938 136.566406 L 148.027344 143.578125 L 174.621094 167.96875 C 175.636719 168.898438 176.078125 170.296875 175.78125 171.640625 L 160.160156 242.0625 C 159.863281 243.402344 158.867188 244.488281 157.554688 244.898438 L 88.75 266.539062 C 87.4375 266.953125 86.003906 266.636719 84.988281 265.703125 L 58.394531 241.316406 L 51.964844 248.328125 L 47.027344 243.800781 L 43.25 247.921875 L 48.1875 252.449219 L -90.382812 403.542969 L -78.449219 414.488281 L -69.402344 404.621094 L -76.394531 398.207031 L 56.902344 252.855469 L 82.609375 276.433594 C 83.625 277.363281 85.058594 277.679688 86.371094 277.269531 L 165.660156 252.332031 C 166.972656 251.917969 167.964844 250.835938 168.261719 249.492188 Z M 137.566406 208.378906 L 130.894531 215.652344 L 133.238281 217.804688 C 134.8125 219.246094 135.984375 220.117188 136.753906 220.414062 C 137.523438 220.710938 138.351562 220.734375 139.242188 220.492188 C 140.132812 220.246094 140.964844 219.703125 141.734375 218.863281 C 142.515625 218.015625 142.984375 217.125 143.144531 216.199219 C 143.308594 215.277344 143.203125 214.464844 142.835938 213.761719 C 142.472656 213.0625 141.402344 211.898438 139.628906 210.273438 Z M 113.859375 225.746094 L 137.308594 200.183594 L 144.113281 206.425781 C 146.648438 208.75 148.199219 210.394531 148.753906 211.351562 C 149.632812 212.886719 149.886719 214.671875 149.511719 216.707031 C 149.136719 218.734375 148.019531 220.769531 146.152344 222.804688 C 144.457031 224.652344 142.6875 225.882812 140.84375 226.492188 C 139 227.101562 137.320312 227.179688 135.8125 226.722656 C 134.296875 226.269531 132.261719 224.867188 129.703125 222.519531 L 126.929688 219.976562 L 118.085938 229.621094 Z M 110.195312 211.035156 C 107.761719 211.492188 105.710938 210.953125 104.042969 209.425781 C 102.390625 207.90625 101.679688 205.902344 101.910156 203.40625 C 102.136719 200.90625 103.601562 198.1875 106.300781 195.246094 C 109.050781 192.25 111.621094 190.527344 114.019531 190.09375 C 116.414062 189.65625 118.476562 190.230469 120.199219 191.8125 C 121.921875 193.394531 122.667969 195.378906 122.433594 197.777344 C 122.199219 200.171875 120.71875 202.855469 118 205.816406 C 115.230469 208.839844 112.628906 210.582031 110.195312 211.035156 Z M 124.21875 187.375 C 122.148438 185.476562 119.941406 184.339844 117.605469 183.972656 C 115.265625 183.605469 112.738281 183.992188 110.03125 185.136719 C 109.964844 185.160156 109.902344 185.199219 109.835938 185.226562 L 96.578125 199.679688 C 96.070312 201.144531 95.765625 202.609375 95.695312 204.078125 C 95.523438 207.792969 96.953125 211.042969 99.992188 213.828125 C 103.003906 216.59375 106.363281 217.714844 110.070312 217.199219 C 114.277344 216.628906 118.34375 214.203125 122.269531 209.925781 C 126.148438 205.695312 128.195312 201.566406 128.40625 197.539062 C 128.613281 193.515625 127.21875 190.128906 124.21875 187.375 " fill-opacity="1" fill-rule="nonzero"/></g></g></g></g></g></g></svg>