<svg xmlns="http://www.w3.org/2000/svg" xmlns:xlink="http://www.w3.org/1999/xlink" width="500" zoomAndPan="magnify" viewBox="0 0 375 374.999991" height="500" preserveAspectRatio="xMidYMid meet" version="1.0"><path fill="#7ed957" d="M 7.398438 82.671875 L 57.605469 257.914062 L 57.605469 216.890625 L 18.261719 79.570312 C 18.167969 79.25 18.105469 78.929688 18.074219 78.597656 C 18.042969 78.269531 18.042969 77.9375 18.078125 77.609375 C 18.109375 77.28125 18.175781 76.957031 18.273438 76.640625 C 18.367188 76.324219 18.492188 76.019531 18.648438 75.726562 C 18.804688 75.433594 18.988281 75.160156 19.195312 74.902344 C 19.40625 74.644531 19.636719 74.410156 19.890625 74.199219 C 20.144531 73.984375 20.417969 73.800781 20.707031 73.640625 C 21 73.480469 21.300781 73.351562 21.617188 73.25 L 57.605469 62.433594 L 57.605469 50.648438 L 18.363281 62.445312 C 17.34375 62.757812 16.367188 63.167969 15.425781 63.671875 C 14.488281 64.175781 13.605469 64.765625 12.78125 65.441406 C 11.957031 66.117188 11.207031 66.867188 10.527344 67.6875 C 9.851562 68.507812 9.257812 69.386719 8.75 70.324219 C 8.242188 71.261719 7.828125 72.238281 7.511719 73.253906 C 7.195312 74.269531 6.976562 75.308594 6.859375 76.367188 C 6.746094 77.425781 6.730469 78.484375 6.824219 79.546875 C 6.914062 80.605469 7.105469 81.648438 7.398438 82.671875 Z M 7.398438 82.671875 " fill-opacity="1" fill-rule="nonzero"/><path fill="#7ed957" d="M 356.730469 62.445312 L 317.488281 50.648438 L 317.488281 62.433594 L 353.472656 73.25 C 353.789062 73.351562 354.09375 73.480469 354.382812 73.640625 C 354.675781 73.800781 354.945312 73.984375 355.199219 74.199219 C 355.457031 74.410156 355.6875 74.644531 355.894531 74.902344 C 356.105469 75.160156 356.285156 75.433594 356.441406 75.726562 C 356.597656 76.019531 356.722656 76.324219 356.820312 76.640625 C 356.914062 76.957031 356.980469 77.277344 357.015625 77.609375 C 357.046875 77.9375 357.046875 78.265625 357.019531 78.597656 C 356.988281 78.925781 356.925781 79.25 356.832031 79.566406 L 317.488281 216.890625 L 317.488281 257.914062 L 367.695312 82.671875 C 367.988281 81.648438 368.179688 80.605469 368.269531 79.542969 C 368.359375 78.484375 368.347656 77.425781 368.230469 76.367188 C 368.113281 75.308594 367.898438 74.269531 367.578125 73.253906 C 367.261719 72.238281 366.847656 71.261719 366.339844 70.324219 C 365.835938 69.386719 365.242188 68.507812 364.5625 67.6875 C 363.882812 66.867188 363.132812 66.117188 362.308594 65.441406 C 361.484375 64.765625 360.605469 64.175781 359.664062 63.671875 C 358.726562 63.167969 357.746094 62.757812 356.730469 62.445312 Z M 356.730469 62.445312 " fill-opacity="1" fill-rule="nonzero"/><path fill="#7ed957" d="M 255.339844 48.761719 L 119.75 48.761719 C 119.378906 48.761719 119.011719 48.796875 118.648438 48.867188 C 118.285156 48.941406 117.929688 49.046875 117.589844 49.191406 C 117.246094 49.332031 116.917969 49.503906 116.609375 49.710938 C 116.304688 49.917969 116.015625 50.152344 115.753906 50.414062 C 115.492188 50.675781 115.257812 50.960938 115.050781 51.269531 C 114.847656 51.574219 114.671875 51.902344 114.53125 52.242188 C 114.386719 52.585938 114.28125 52.9375 114.207031 53.300781 C 114.136719 53.664062 114.101562 54.03125 114.101562 54.402344 C 114.101562 54.773438 114.136719 55.140625 114.207031 55.503906 C 114.28125 55.867188 114.386719 56.21875 114.53125 56.5625 C 114.671875 56.90625 114.847656 57.230469 115.050781 57.539062 C 115.257812 57.847656 115.492188 58.132812 115.753906 58.394531 C 116.015625 58.65625 116.304688 58.890625 116.609375 59.09375 C 116.917969 59.300781 117.246094 59.476562 117.589844 59.617188 C 117.929688 59.757812 118.285156 59.867188 118.648438 59.9375 C 119.011719 60.011719 119.378906 60.046875 119.75 60.046875 L 255.339844 60.046875 C 255.710938 60.046875 256.078125 60.011719 256.445312 59.9375 C 256.808594 59.867188 257.160156 59.757812 257.503906 59.617188 C 257.847656 59.476562 258.171875 59.300781 258.480469 59.09375 C 258.789062 58.890625 259.074219 58.65625 259.335938 58.394531 C 259.597656 58.132812 259.832031 57.847656 260.039062 57.539062 C 260.246094 57.230469 260.417969 56.90625 260.5625 56.5625 C 260.703125 56.21875 260.808594 55.867188 260.882812 55.503906 C 260.957031 55.140625 260.992188 54.773438 260.992188 54.402344 C 260.992188 54.03125 260.957031 53.664062 260.882812 53.300781 C 260.808594 52.9375 260.703125 52.585938 260.5625 52.242188 C 260.417969 51.902344 260.246094 51.574219 260.039062 51.269531 C 259.832031 50.960938 259.597656 50.675781 259.335938 50.414062 C 259.074219 50.152344 258.789062 49.917969 258.480469 49.710938 C 258.171875 49.503906 257.847656 49.332031 257.503906 49.191406 C 257.160156 49.046875 256.808594 48.941406 256.445312 48.867188 C 256.078125 48.796875 255.710938 48.761719 255.339844 48.761719 Z M 255.339844 48.761719 " fill-opacity="1" fill-rule="nonzero"/><path fill="#7ed957" d="M 255.339844 71.332031 L 119.75 71.332031 C 119.378906 71.332031 119.011719 71.371094 118.648438 71.441406 C 118.285156 71.515625 117.929688 71.621094 117.589844 71.761719 C 117.246094 71.90625 116.917969 72.078125 116.609375 72.285156 C 116.304688 72.488281 116.015625 72.722656 115.753906 72.984375 C 115.492188 73.246094 115.257812 73.53125 115.050781 73.839844 C 114.847656 74.148438 114.671875 74.472656 114.53125 74.816406 C 114.386719 75.160156 114.28125 75.511719 114.207031 75.875 C 114.136719 76.238281 114.101562 76.605469 114.101562 76.976562 C 114.101562 77.347656 114.136719 77.714844 114.207031 78.078125 C 114.28125 78.441406 114.386719 78.792969 114.53125 79.136719 C 114.671875 79.476562 114.847656 79.804688 115.050781 80.113281 C 115.257812 80.417969 115.492188 80.703125 115.753906 80.964844 C 116.015625 81.230469 116.304688 81.460938 116.609375 81.667969 C 116.917969 81.875 117.246094 82.046875 117.589844 82.191406 C 117.929688 82.332031 118.285156 82.4375 118.648438 82.511719 C 119.011719 82.582031 119.378906 82.621094 119.75 82.621094 L 255.339844 82.621094 C 255.710938 82.621094 256.078125 82.582031 256.445312 82.511719 C 256.808594 82.4375 257.160156 82.332031 257.503906 82.191406 C 257.847656 82.046875 258.171875 81.875 258.480469 81.667969 C 258.789062 81.460938 259.074219 81.230469 259.335938 80.964844 C 259.597656 80.703125 259.832031 80.417969 260.039062 80.113281 C 260.246094 79.804688 260.417969 79.476562 260.5625 79.136719 C 260.703125 78.792969 260.808594 78.441406 260.882812 78.078125 C 260.957031 77.714844 260.992188 77.347656 260.992188 76.976562 C 260.992188 76.605469 260.957031 76.238281 260.882812 75.875 C 260.808594 75.511719 260.703125 75.160156 260.5625 74.816406 C 260.417969 74.472656 260.246094 74.148438 260.039062 73.839844 C 259.832031 73.53125 259.597656 73.246094 259.335938 72.984375 C 259.074219 72.722656 258.789062 72.488281 258.480469 72.285156 C 258.171875 72.078125 257.847656 71.90625 257.503906 71.761719 C 257.160156 71.621094 256.808594 71.515625 256.445312 71.441406 C 256.078125 71.371094 255.710938 71.332031 255.339844 71.332031 Z M 255.339844 71.332031 " fill-opacity="1" fill-rule="nonzero"/><path fill="#7ed957" d="M 255.339844 93.90625 L 119.75 93.90625 C 119.378906 93.90625 119.011719 93.941406 118.648438 94.015625 C 118.285156 94.085938 117.929688 94.195312 117.589844 94.335938 C 117.246094 94.476562 116.917969 94.652344 116.609375 94.855469 C 116.304688 95.0625 116.015625 95.296875 115.753906 95.558594 C 115.492188 95.820312 115.257812 96.105469 115.050781 96.414062 C 114.847656 96.722656 114.671875 97.046875 114.53125 97.390625 C 114.386719 97.730469 114.28125 98.085938 114.207031 98.449219 C 114.136719 98.8125 114.101562 99.179688 114.101562 99.550781 C 114.101562 99.921875 114.136719 100.285156 114.207031 100.648438 C 114.28125 101.015625 114.386719 101.367188 114.53125 101.707031 C 114.671875 102.050781 114.847656 102.375 115.050781 102.683594 C 115.257812 102.992188 115.492188 103.277344 115.753906 103.539062 C 116.015625 103.800781 116.304688 104.035156 116.609375 104.242188 C 116.917969 104.449219 117.246094 104.621094 117.589844 104.761719 C 117.929688 104.90625 118.285156 105.011719 118.648438 105.085938 C 119.011719 105.15625 119.378906 105.191406 119.75 105.191406 L 255.339844 105.191406 C 255.710938 105.191406 256.078125 105.15625 256.445312 105.085938 C 256.808594 105.011719 257.160156 104.90625 257.503906 104.761719 C 257.847656 104.621094 258.171875 104.449219 258.480469 104.242188 C 258.789062 104.035156 259.074219 103.800781 259.335938 103.539062 C 259.597656 103.277344 259.832031 102.992188 260.039062 102.683594 C 260.246094 102.375 260.417969 102.050781 260.5625 101.707031 C 260.703125 101.367188 260.808594 101.015625 260.882812 100.648438 C 260.957031 100.285156 260.992188 99.921875 260.992188 99.550781 C 260.992188 99.179688 260.957031 98.8125 260.882812 98.449219 C 260.808594 98.085938 260.703125 97.730469 260.5625 97.390625 C 260.417969 97.046875 260.246094 96.722656 260.039062 96.414062 C 259.832031 96.105469 259.597656 95.820312 259.335938 95.558594 C 259.074219 95.296875 258.789062 95.0625 258.480469 94.855469 C 258.171875 94.652344 257.847656 94.476562 257.503906 94.335938 C 257.160156 94.195312 256.808594 94.085938 256.445312 94.015625 C 256.078125 93.941406 255.710938 93.90625 255.339844 93.90625 Z M 255.339844 93.90625 " fill-opacity="1" fill-rule="nonzero"/><path fill="#7ed957" d="M 255.339844 116.480469 L 119.75 116.480469 C 119.378906 116.480469 119.011719 116.515625 118.648438 116.585938 C 118.285156 116.660156 117.929688 116.765625 117.589844 116.910156 C 117.246094 117.050781 116.917969 117.222656 116.609375 117.429688 C 116.304688 117.636719 116.015625 117.871094 115.753906 118.132812 C 115.492188 118.394531 115.257812 118.679688 115.050781 118.988281 C 114.847656 119.296875 114.671875 119.621094 114.53125 119.960938 C 114.386719 120.304688 114.28125 120.65625 114.207031 121.023438 C 114.136719 121.386719 114.101562 121.75 114.101562 122.121094 C 114.101562 122.492188 114.136719 122.859375 114.207031 123.222656 C 114.28125 123.585938 114.386719 123.941406 114.53125 124.28125 C 114.671875 124.625 114.847656 124.949219 115.050781 125.257812 C 115.257812 125.566406 115.492188 125.851562 115.753906 126.113281 C 116.015625 126.375 116.304688 126.609375 116.609375 126.816406 C 116.917969 127.019531 117.246094 127.195312 117.589844 127.335938 C 117.929688 127.476562 118.285156 127.585938 118.648438 127.65625 C 119.011719 127.730469 119.378906 127.765625 119.75 127.765625 L 255.339844 127.765625 C 255.710938 127.765625 256.078125 127.730469 256.445312 127.65625 C 256.808594 127.585938 257.160156 127.476562 257.503906 127.335938 C 257.847656 127.195312 258.171875 127.019531 258.480469 126.816406 C 258.789062 126.609375 259.074219 126.375 259.335938 126.113281 C 259.597656 125.851562 259.832031 125.566406 260.039062 125.257812 C 260.246094 124.949219 260.417969 124.625 260.5625 124.28125 C 260.703125 123.941406 260.808594 123.585938 260.882812 123.222656 C 260.957031 122.859375 260.992188 122.492188 260.992188 122.121094 C 260.992188 121.75 260.957031 121.386719 260.882812 121.023438 C 260.808594 120.65625 260.703125 120.304688 260.5625 119.960938 C 260.417969 119.621094 260.246094 119.296875 260.039062 118.988281 C 259.832031 118.679688 259.597656 118.394531 259.335938 118.132812 C 259.074219 117.871094 258.789062 117.636719 258.480469 117.429688 C 258.171875 117.222656 257.847656 117.050781 257.503906 116.910156 C 257.160156 116.765625 256.808594 116.660156 256.445312 116.585938 C 256.078125 116.515625 255.710938 116.480469 255.339844 116.480469 Z M 255.339844 116.480469 " fill-opacity="1" fill-rule="nonzero"/><path fill="#7ed957" d="M 255.339844 139.050781 L 119.75 139.050781 C 119.378906 139.050781 119.011719 139.089844 118.648438 139.160156 C 118.285156 139.234375 117.929688 139.339844 117.589844 139.480469 C 117.246094 139.625 116.917969 139.796875 116.609375 140.003906 C 116.304688 140.210938 116.015625 140.441406 115.753906 140.707031 C 115.492188 140.96875 115.257812 141.253906 115.050781 141.558594 C 114.847656 141.867188 114.671875 142.195312 114.53125 142.535156 C 114.386719 142.878906 114.28125 143.230469 114.207031 143.59375 C 114.136719 143.957031 114.101562 144.324219 114.101562 144.695312 C 114.101562 145.066406 114.136719 145.433594 114.207031 145.796875 C 114.28125 146.160156 114.386719 146.511719 114.53125 146.855469 C 114.671875 147.199219 114.847656 147.523438 115.050781 147.832031 C 115.257812 148.140625 115.492188 148.425781 115.753906 148.6875 C 116.015625 148.949219 116.304688 149.183594 116.609375 149.386719 C 116.917969 149.59375 117.246094 149.765625 117.589844 149.910156 C 117.929688 150.050781 118.285156 150.15625 118.648438 150.230469 C 119.011719 150.300781 119.378906 150.339844 119.75 150.339844 L 255.339844 150.339844 C 255.710938 150.339844 256.078125 150.300781 256.445312 150.230469 C 256.808594 150.15625 257.160156 150.050781 257.503906 149.910156 C 257.847656 149.765625 258.171875 149.59375 258.480469 149.386719 C 258.789062 149.183594 259.074219 148.949219 259.335938 148.6875 C 259.597656 148.425781 259.832031 148.140625 260.039062 147.832031 C 260.246094 147.523438 260.417969 147.199219 260.5625 146.855469 C 260.703125 146.511719 260.808594 146.160156 260.882812 145.796875 C 260.957031 145.433594 260.992188 145.066406 260.992188 144.695312 C 260.992188 144.324219 260.957031 143.957031 260.882812 143.59375 C 260.808594 143.230469 260.703125 142.878906 260.5625 142.535156 C 260.417969 142.195312 260.246094 141.867188 260.039062 141.558594 C 259.832031 141.253906 259.597656 140.96875 259.335938 140.707031 C 259.074219 140.441406 258.789062 140.210938 258.480469 140.003906 C 258.171875 139.796875 257.847656 139.625 257.503906 139.480469 C 257.160156 139.339844 256.808594 139.234375 256.445312 139.160156 C 256.078125 139.089844 255.710938 139.050781 255.339844 139.050781 Z M 255.339844 139.050781 " fill-opacity="1" fill-rule="nonzero"/><path fill="#7ed957" d="M 255.339844 161.625 L 119.75 161.625 C 119.378906 161.625 119.011719 161.660156 118.648438 161.734375 C 118.285156 161.804688 117.929688 161.914062 117.589844 162.054688 C 117.246094 162.195312 116.917969 162.371094 116.609375 162.578125 C 116.304688 162.78125 116.015625 163.015625 115.753906 163.277344 C 115.492188 163.539062 115.257812 163.824219 115.050781 164.132812 C 114.847656 164.441406 114.671875 164.765625 114.53125 165.109375 C 114.386719 165.453125 114.28125 165.804688 114.207031 166.167969 C 114.136719 166.53125 114.101562 166.898438 114.101562 167.269531 C 114.101562 167.640625 114.136719 168.007812 114.207031 168.371094 C 114.28125 168.734375 114.386719 169.085938 114.53125 169.429688 C 114.671875 169.769531 114.847656 170.097656 115.050781 170.402344 C 115.257812 170.710938 115.492188 170.996094 115.753906 171.257812 C 116.015625 171.519531 116.304688 171.753906 116.609375 171.960938 C 116.917969 172.167969 117.246094 172.339844 117.589844 172.480469 C 117.929688 172.625 118.285156 172.730469 118.648438 172.804688 C 119.011719 172.875 119.378906 172.910156 119.75 172.910156 L 255.339844 172.910156 C 255.710938 172.910156 256.078125 172.875 256.445312 172.804688 C 256.808594 172.730469 257.160156 172.625 257.503906 172.480469 C 257.847656 172.339844 258.171875 172.167969 258.480469 171.960938 C 258.789062 171.753906 259.074219 171.519531 259.335938 171.257812 C 259.597656 170.996094 259.832031 170.710938 260.039062 170.402344 C 260.246094 170.09375 260.417969 169.769531 260.5625 169.429688 C 260.703125 169.085938 260.808594 168.734375 260.882812 168.371094 C 260.957031 168.007812 260.992188 167.640625 260.992188 167.269531 C 260.992188 166.898438 260.957031 166.53125 260.882812 166.167969 C 260.808594 165.804688 260.703125 165.453125 260.5625 165.109375 C 260.417969 164.765625 260.246094 164.441406 260.039062 164.132812 C 259.832031 163.824219 259.597656 163.539062 259.335938 163.277344 C 259.074219 163.015625 258.789062 162.78125 258.480469 162.578125 C 258.171875 162.371094 257.847656 162.195312 257.503906 162.054688 C 257.160156 161.914062 256.808594 161.804688 256.445312 161.734375 C 256.078125 161.660156 255.710938 161.625 255.339844 161.625 Z M 255.339844 161.625 " fill-opacity="1" fill-rule="nonzero"/><path fill="#7ed957" d="M 260.992188 189.839844 C 260.992188 189.472656 260.953125 189.105469 260.882812 188.742188 C 260.808594 188.378906 260.703125 188.023438 260.5625 187.683594 C 260.417969 187.339844 260.246094 187.015625 260.039062 186.707031 C 259.832031 186.398438 259.597656 186.113281 259.335938 185.851562 C 259.074219 185.589844 258.789062 185.355469 258.480469 185.148438 C 258.171875 184.945312 257.847656 184.769531 257.503906 184.628906 C 257.160156 184.484375 256.808594 184.378906 256.445312 184.308594 C 256.078125 184.234375 255.710938 184.199219 255.339844 184.199219 L 119.75 184.199219 C 119.378906 184.199219 119.011719 184.234375 118.648438 184.308594 C 118.285156 184.378906 117.929688 184.484375 117.589844 184.628906 C 117.246094 184.769531 116.917969 184.945312 116.609375 185.148438 C 116.304688 185.355469 116.015625 185.589844 115.753906 185.851562 C 115.492188 186.113281 115.257812 186.398438 115.050781 186.707031 C 114.847656 187.015625 114.671875 187.339844 114.53125 187.683594 C 114.386719 188.023438 114.28125 188.378906 114.207031 188.742188 C 114.136719 189.105469 114.101562 189.472656 114.101562 189.839844 C 114.101562 190.210938 114.136719 190.578125 114.207031 190.941406 C 114.28125 191.304688 114.386719 191.660156 114.53125 192 C 114.671875 192.34375 114.847656 192.667969 115.050781 192.976562 C 115.257812 193.285156 115.492188 193.570312 115.753906 193.832031 C 116.015625 194.09375 116.304688 194.328125 116.609375 194.535156 C 116.917969 194.738281 117.246094 194.914062 117.589844 195.054688 C 117.929688 195.195312 118.285156 195.304688 118.648438 195.375 C 119.011719 195.449219 119.378906 195.484375 119.75 195.484375 L 255.339844 195.484375 C 255.710938 195.484375 256.078125 195.449219 256.445312 195.375 C 256.808594 195.304688 257.160156 195.195312 257.503906 195.054688 C 257.847656 194.914062 258.171875 194.738281 258.480469 194.535156 C 258.789062 194.328125 259.074219 194.09375 259.335938 193.832031 C 259.597656 193.570312 259.832031 193.285156 260.039062 192.976562 C 260.246094 192.667969 260.417969 192.34375 260.5625 192 C 260.703125 191.660156 260.808594 191.304688 260.882812 190.941406 C 260.953125 190.578125 260.992188 190.210938 260.992188 189.839844 Z M 260.992188 189.839844 " fill-opacity="1" fill-rule="nonzero"/><path fill="#7ed957" d="M 114.101562 234.988281 C 114.101562 235.359375 114.136719 235.726562 114.207031 236.089844 C 114.28125 236.453125 114.386719 236.804688 114.53125 237.148438 C 114.671875 237.488281 114.847656 237.816406 115.050781 238.121094 C 115.257812 238.429688 115.492188 238.714844 115.753906 238.976562 C 116.015625 239.238281 116.304688 239.472656 116.609375 239.679688 C 116.917969 239.886719 117.246094 240.058594 117.589844 240.203125 C 117.929688 240.34375 118.285156 240.449219 118.648438 240.523438 C 119.011719 240.59375 119.378906 240.632812 119.75 240.632812 L 205.53125 240.632812 C 205.914062 236.761719 206.773438 233 208.109375 229.34375 L 119.75 229.34375 C 119.378906 229.34375 119.011719 229.378906 118.648438 229.453125 C 118.285156 229.523438 117.929688 229.632812 117.589844 229.773438 C 117.246094 229.914062 116.917969 230.089844 116.609375 230.296875 C 116.304688 230.5 116.015625 230.734375 115.753906 230.996094 C 115.492188 231.257812 115.257812 231.542969 115.050781 231.851562 C 114.847656 232.160156 114.671875 232.484375 114.53125 232.828125 C 114.386719 233.171875 114.28125 233.523438 114.207031 233.886719 C 114.136719 234.25 114.101562 234.617188 114.101562 234.988281 Z M 114.101562 234.988281 " fill-opacity="1" fill-rule="nonzero"/><path fill="#7ed957" d="M 85.851562 339.386719 C 85.480469 339.386719 85.113281 339.351562 84.75 339.277344 C 84.386719 339.207031 84.035156 339.097656 83.691406 338.957031 C 83.347656 338.816406 83.023438 338.640625 82.714844 338.433594 C 82.40625 338.230469 82.121094 337.996094 81.859375 337.734375 C 81.597656 337.472656 81.363281 337.1875 81.15625 336.878906 C 80.949219 336.570312 80.777344 336.246094 80.632812 335.902344 C 80.492188 335.5625 80.382812 335.207031 80.3125 334.84375 C 80.238281 334.480469 80.203125 334.117188 80.203125 333.746094 L 80.203125 29.007812 C 80.203125 28.636719 80.238281 28.269531 80.3125 27.90625 C 80.382812 27.542969 80.492188 27.191406 80.632812 26.851562 C 80.777344 26.507812 80.949219 26.183594 81.15625 25.875 C 81.363281 25.566406 81.597656 25.28125 81.859375 25.019531 C 82.121094 24.757812 82.40625 24.523438 82.714844 24.316406 C 83.023438 24.113281 83.347656 23.9375 83.691406 23.796875 C 84.035156 23.65625 84.386719 23.546875 84.75 23.476562 C 85.113281 23.402344 85.480469 23.367188 85.851562 23.367188 L 289.238281 23.367188 C 289.609375 23.367188 289.976562 23.402344 290.339844 23.476562 C 290.703125 23.546875 291.058594 23.65625 291.402344 23.796875 C 291.742188 23.9375 292.070312 24.113281 292.375 24.316406 C 292.683594 24.523438 292.96875 24.757812 293.234375 25.019531 C 293.496094 25.28125 293.730469 25.566406 293.933594 25.875 C 294.140625 26.183594 294.316406 26.507812 294.457031 26.851562 C 294.597656 27.191406 294.707031 27.542969 294.78125 27.90625 C 294.851562 28.269531 294.890625 28.636719 294.890625 29.007812 L 294.890625 225.496094 C 296.332031 228.5625 297.425781 231.75 298.164062 235.054688 C 298.90625 238.363281 299.273438 241.707031 299.277344 245.097656 C 299.273438 248.484375 298.90625 251.832031 298.164062 255.136719 C 297.425781 258.445312 296.332031 261.628906 294.890625 264.695312 L 294.890625 295.652344 L 296.101562 295.652344 C 299.625 295.65625 302.988281 296.398438 306.1875 297.878906 L 306.1875 29.007812 C 306.1875 28.453125 306.160156 27.902344 306.105469 27.351562 C 306.050781 26.796875 305.96875 26.25 305.859375 25.707031 C 305.75 25.164062 305.617188 24.625 305.453125 24.097656 C 305.292969 23.566406 305.105469 23.042969 304.894531 22.53125 C 304.679688 22.019531 304.445312 21.519531 304.183594 21.03125 C 303.921875 20.542969 303.636719 20.066406 303.328125 19.605469 C 303.019531 19.144531 302.6875 18.703125 302.335938 18.273438 C 301.984375 17.84375 301.609375 17.433594 301.21875 17.042969 C 300.828125 16.652344 300.414062 16.277344 299.988281 15.925781 C 299.558594 15.574219 299.113281 15.246094 298.652344 14.9375 C 298.191406 14.628906 297.714844 14.34375 297.226562 14.082031 C 296.734375 13.820312 296.234375 13.585938 295.722656 13.371094 C 295.210938 13.160156 294.6875 12.972656 294.15625 12.8125 C 293.625 12.652344 293.089844 12.515625 292.542969 12.40625 C 292 12.296875 291.453125 12.21875 290.898438 12.160156 C 290.347656 12.105469 289.792969 12.078125 289.238281 12.078125 L 85.851562 12.078125 C 85.296875 12.078125 84.742188 12.105469 84.191406 12.160156 C 83.640625 12.21875 83.089844 12.296875 82.546875 12.40625 C 82.003906 12.515625 81.464844 12.652344 80.933594 12.8125 C 80.402344 12.972656 79.882812 13.160156 79.367188 13.371094 C 78.855469 13.585938 78.355469 13.820312 77.867188 14.082031 C 77.375 14.34375 76.902344 14.628906 76.441406 14.9375 C 75.980469 15.246094 75.535156 15.574219 75.105469 15.925781 C 74.675781 16.277344 74.265625 16.652344 73.871094 17.042969 C 73.480469 17.433594 73.109375 17.84375 72.757812 18.273438 C 72.402344 18.703125 72.074219 19.144531 71.765625 19.605469 C 71.457031 20.066406 71.171875 20.542969 70.910156 21.03125 C 70.648438 21.519531 70.410156 22.019531 70.199219 22.53125 C 69.984375 23.042969 69.796875 23.566406 69.636719 24.097656 C 69.476562 24.625 69.339844 25.164062 69.230469 25.707031 C 69.125 26.25 69.042969 26.796875 68.988281 27.351562 C 68.929688 27.902344 68.902344 28.453125 68.902344 29.007812 L 68.902344 333.746094 C 68.902344 334.300781 68.929688 334.851562 68.988281 335.402344 C 69.042969 335.957031 69.125 336.503906 69.230469 337.046875 C 69.339844 337.589844 69.476562 338.128906 69.636719 338.65625 C 69.796875 339.1875 69.984375 339.707031 70.199219 340.222656 C 70.410156 340.734375 70.648438 341.234375 70.910156 341.722656 C 71.171875 342.210938 71.457031 342.683594 71.765625 343.144531 C 72.074219 343.605469 72.402344 344.050781 72.757812 344.480469 C 73.109375 344.910156 73.480469 345.320312 73.871094 345.710938 C 74.265625 346.101562 74.675781 346.472656 75.105469 346.824219 C 75.535156 347.179688 75.980469 347.507812 76.441406 347.816406 C 76.902344 348.125 77.375 348.410156 77.867188 348.671875 C 78.355469 348.933594 78.855469 349.167969 79.367188 349.382812 C 79.882812 349.59375 80.402344 349.78125 80.933594 349.941406 C 81.464844 350.101562 82.003906 350.238281 82.546875 350.347656 C 83.089844 350.453125 83.640625 350.535156 84.191406 350.589844 C 84.742188 350.644531 85.296875 350.675781 85.851562 350.675781 L 188.480469 350.675781 C 186.289062 347.226562 185.0625 343.464844 184.800781 339.386719 Z M 85.851562 339.386719 " fill-opacity="1" fill-rule="nonzero"/><path fill="#7ed957" d="M 296.101562 306.9375 L 278.140625 306.9375 L 278.140625 305.578125 C 278.140625 298.925781 274.644531 293.757812 269.792969 292.851562 C 271.070312 284.964844 273.597656 277.507812 277.378906 270.46875 L 277.488281 270.246094 C 279.15625 268.609375 280.644531 266.820312 281.953125 264.882812 C 283.261719 262.945312 284.367188 260.898438 285.269531 258.742188 C 286.167969 256.585938 286.847656 254.363281 287.304688 252.070312 C 287.757812 249.777344 287.984375 247.460938 287.976562 245.125 C 287.980469 244.390625 287.957031 243.652344 287.914062 242.917969 C 287.871094 242.183594 287.804688 241.449219 287.71875 240.71875 C 287.628906 239.988281 287.519531 239.261719 287.386719 238.539062 C 287.25 237.8125 287.09375 237.09375 286.917969 236.378906 C 286.738281 235.664062 286.539062 234.957031 286.316406 234.253906 C 286.09375 233.554688 285.851562 232.859375 285.585938 232.171875 C 285.320312 231.484375 285.035156 230.808594 284.726562 230.136719 C 284.417969 229.46875 284.089844 228.808594 283.742188 228.160156 C 283.394531 227.511719 283.027344 226.875 282.640625 226.25 C 282.25 225.621094 281.84375 225.007812 281.417969 224.40625 C 280.992188 223.808594 280.550781 223.21875 280.085938 222.648438 C 279.625 222.074219 279.144531 221.515625 278.648438 220.972656 C 278.152344 220.425781 277.640625 219.898438 277.109375 219.386719 C 276.578125 218.875 276.035156 218.378906 275.472656 217.902344 C 274.914062 217.421875 274.339844 216.960938 273.75 216.519531 C 273.160156 216.078125 272.558594 215.652344 271.945312 215.246094 C 271.328125 214.84375 270.703125 214.457031 270.0625 214.089844 C 269.425781 213.722656 268.773438 213.375 268.113281 213.050781 C 267.453125 212.722656 266.78125 212.417969 266.101562 212.132812 C 265.421875 211.847656 264.734375 211.582031 264.039062 211.339844 C 263.34375 211.097656 262.640625 210.878906 261.933594 210.679688 C 261.222656 210.480469 260.507812 210.304688 259.785156 210.148438 C 259.066406 209.996094 258.339844 209.863281 257.613281 209.753906 C 256.882812 209.644531 256.152344 209.554688 255.417969 209.492188 C 254.683594 209.425781 253.949219 209.382812 253.210938 209.367188 C 252.472656 209.347656 251.738281 209.351562 251 209.378906 C 250.265625 209.402344 249.53125 209.453125 248.796875 209.523438 C 248.0625 209.597656 247.332031 209.691406 246.605469 209.808594 C 245.878906 209.925781 245.152344 210.066406 244.433594 210.226562 C 243.714844 210.390625 243.003906 210.574219 242.296875 210.78125 C 241.585938 210.988281 240.886719 211.214844 240.195312 211.464844 C 239.5 211.714844 238.816406 211.984375 238.136719 212.277344 C 237.460938 212.566406 236.796875 212.878906 236.136719 213.214844 C 235.480469 213.546875 234.835938 213.898438 234.199219 214.273438 C 233.5625 214.644531 232.941406 215.039062 232.328125 215.449219 C 231.71875 215.863281 231.121094 216.292969 230.535156 216.742188 C 229.953125 217.191406 229.382812 217.65625 228.828125 218.140625 C 228.273438 218.625 227.730469 219.125 227.207031 219.640625 C 226.683594 220.160156 226.175781 220.691406 225.683594 221.242188 C 225.191406 221.789062 224.71875 222.355469 224.261719 222.933594 C 223.808594 223.511719 223.367188 224.101562 222.949219 224.707031 C 222.53125 225.3125 222.128906 225.929688 221.746094 226.5625 C 221.367188 227.191406 221.003906 227.832031 220.664062 228.484375 C 220.324219 229.136719 220 229.800781 219.699219 230.472656 C 219.402344 231.144531 219.121094 231.824219 218.863281 232.515625 C 218.605469 233.203125 218.367188 233.902344 218.152344 234.605469 C 217.9375 235.308594 217.746094 236.019531 217.574219 236.734375 C 217.402344 237.453125 217.253906 238.171875 217.128906 238.898438 C 217.003906 239.621094 216.898438 240.351562 216.816406 241.082031 C 216.738281 241.816406 216.679688 242.546875 216.644531 243.285156 C 216.609375 244.019531 216.59375 244.753906 216.605469 245.492188 C 216.617188 246.226562 216.648438 246.960938 216.703125 247.695312 C 216.761719 248.429688 216.839844 249.160156 216.941406 249.890625 C 217.039062 250.621094 217.164062 251.347656 217.308594 252.066406 C 217.457031 252.789062 217.625 253.503906 217.816406 254.214844 C 218.007812 254.929688 218.21875 255.632812 218.453125 256.332031 C 218.6875 257.027344 218.941406 257.71875 219.21875 258.402344 C 219.496094 259.082031 219.792969 259.757812 220.113281 260.417969 C 220.433594 261.082031 220.769531 261.738281 221.128906 262.378906 C 221.488281 263.023438 221.867188 263.652344 222.265625 264.273438 C 222.664062 264.890625 223.082031 265.5 223.519531 266.09375 C 223.957031 266.683594 224.410156 267.265625 224.882812 267.832031 C 225.351562 268.394531 225.84375 268.945312 226.347656 269.480469 C 226.855469 270.015625 227.378906 270.535156 227.914062 271.039062 L 227.992188 271.199219 C 231.566406 278.027344 233.980469 285.246094 235.234375 292.851562 C 230.382812 293.761719 226.890625 298.929688 226.890625 305.578125 L 226.890625 306.9375 L 208.933594 306.9375 C 208.085938 306.941406 207.25 307.023438 206.417969 307.1875 C 205.585938 307.351562 204.78125 307.59375 204 307.917969 C 203.214844 308.242188 202.472656 308.636719 201.769531 309.109375 C 201.0625 309.578125 200.410156 310.109375 199.8125 310.707031 C 199.214844 311.304688 198.679688 311.957031 198.207031 312.65625 C 197.734375 313.359375 197.335938 314.101562 197.011719 314.882812 C 196.6875 315.664062 196.441406 316.46875 196.273438 317.296875 C 196.105469 318.128906 196.023438 318.964844 196.019531 319.808594 L 196.019531 337.804688 C 196.023438 338.648438 196.105469 339.488281 196.273438 340.316406 C 196.441406 341.144531 196.6875 341.949219 197.011719 342.730469 C 197.335938 343.511719 197.734375 344.253906 198.207031 344.957031 C 198.679688 345.660156 199.214844 346.308594 199.8125 346.90625 C 200.410156 347.503906 201.0625 348.035156 201.769531 348.507812 C 202.472656 348.976562 203.214844 349.371094 204 349.695312 C 204.78125 350.019531 205.585938 350.261719 206.417969 350.425781 C 207.25 350.59375 208.085938 350.675781 208.933594 350.675781 L 296.101562 350.675781 C 296.945312 350.675781 297.785156 350.59375 298.617188 350.425781 C 299.445312 350.261719 300.253906 350.019531 301.035156 349.695312 C 301.816406 349.371094 302.5625 348.976562 303.265625 348.507812 C 303.96875 348.035156 304.621094 347.503906 305.222656 346.90625 C 305.820312 346.308594 306.355469 345.660156 306.828125 344.957031 C 307.296875 344.253906 307.695312 343.511719 308.023438 342.730469 C 308.347656 341.949219 308.59375 341.144531 308.761719 340.316406 C 308.925781 339.488281 309.011719 338.648438 309.011719 337.804688 L 309.011719 319.808594 C 309.011719 318.964844 308.925781 318.128906 308.761719 317.296875 C 308.59375 316.46875 308.347656 315.664062 308.023438 314.882812 C 307.695312 314.101562 307.296875 313.359375 306.828125 312.65625 C 306.355469 311.957031 305.820312 311.304688 305.222656 310.707031 C 304.621094 310.109375 303.96875 309.578125 303.265625 309.109375 C 302.5625 308.636719 301.816406 308.242188 301.035156 307.917969 C 300.253906 307.59375 299.445312 307.351562 298.617188 307.1875 C 297.785156 307.023438 296.945312 306.941406 296.101562 306.9375 Z M 297.714844 337.804688 C 297.710938 338.015625 297.667969 338.21875 297.585938 338.414062 C 297.503906 338.609375 297.386719 338.78125 297.234375 338.929688 C 297.082031 339.078125 296.910156 339.191406 296.714844 339.273438 C 296.515625 339.351562 296.3125 339.390625 296.101562 339.386719 L 208.933594 339.386719 C 208.722656 339.390625 208.515625 339.351562 208.320312 339.273438 C 208.125 339.191406 207.949219 339.078125 207.796875 338.929688 C 207.648438 338.78125 207.53125 338.609375 207.445312 338.414062 C 207.363281 338.21875 207.320312 338.015625 207.320312 337.804688 L 207.320312 319.808594 C 207.320312 319.597656 207.363281 319.394531 207.445312 319.199219 C 207.53125 319.003906 207.648438 318.832031 207.796875 318.683594 C 207.949219 318.535156 208.125 318.421875 208.320312 318.34375 C 208.515625 318.261719 208.722656 318.222656 208.933594 318.226562 L 232.542969 318.226562 C 232.914062 318.226562 233.28125 318.191406 233.644531 318.117188 C 234.007812 318.046875 234.359375 317.9375 234.703125 317.796875 C 235.046875 317.65625 235.371094 317.480469 235.679688 317.273438 C 235.988281 317.070312 236.273438 316.835938 236.535156 316.574219 C 236.796875 316.3125 237.03125 316.027344 237.238281 315.71875 C 237.445312 315.410156 237.621094 315.085938 237.761719 314.742188 C 237.902344 314.398438 238.011719 314.046875 238.082031 313.683594 C 238.15625 313.320312 238.191406 312.953125 238.191406 312.582031 L 238.191406 305.578125 C 238.1875 305.042969 238.253906 304.515625 238.394531 303.996094 L 241.621094 303.996094 C 242.011719 303.996094 242.402344 303.953125 242.785156 303.875 C 243.171875 303.792969 243.542969 303.671875 243.902344 303.515625 C 244.261719 303.355469 244.601562 303.160156 244.921875 302.933594 C 245.238281 302.703125 245.53125 302.445312 245.796875 302.152344 C 246.0625 301.863281 246.292969 301.546875 246.492188 301.210938 C 246.691406 300.871094 246.851562 300.515625 246.976562 300.144531 C 247.101562 299.769531 247.1875 299.390625 247.234375 299 C 247.277344 298.609375 247.28125 298.21875 247.246094 297.828125 C 246.808594 292.328125 245.824219 286.929688 244.300781 281.625 C 242.777344 276.324219 240.738281 271.226562 238.1875 266.335938 L 237.636719 265.179688 C 237.300781 264.472656 236.835938 263.863281 236.246094 263.347656 C 235.867188 263.011719 235.5 262.667969 235.144531 262.308594 C 234.789062 261.953125 234.441406 261.585938 234.109375 261.207031 C 233.777344 260.828125 233.453125 260.4375 233.144531 260.039062 C 232.835938 259.640625 232.539062 259.234375 232.257812 258.816406 C 231.972656 258.398438 231.703125 257.972656 231.445312 257.539062 C 231.1875 257.105469 230.945312 256.664062 230.714844 256.214844 C 230.484375 255.765625 230.269531 255.308594 230.066406 254.847656 C 229.867188 254.386719 229.679688 253.917969 229.507812 253.441406 C 229.335938 252.96875 229.175781 252.488281 229.035156 252.007812 C 228.894531 251.523438 228.765625 251.035156 228.65625 250.542969 C 228.542969 250.050781 228.445312 249.554688 228.367188 249.058594 C 228.285156 248.558594 228.21875 248.058594 228.167969 247.558594 C 228.121094 247.054688 228.085938 246.554688 228.066406 246.050781 C 228.046875 245.546875 228.046875 245.042969 228.058594 244.535156 C 228.070312 244.03125 228.101562 243.53125 228.144531 243.027344 C 228.191406 242.523438 228.25 242.023438 228.324219 241.527344 C 228.402344 241.027344 228.492188 240.53125 228.597656 240.039062 C 228.707031 239.546875 228.828125 239.054688 228.964844 238.570312 C 229.101562 238.085938 229.253906 237.605469 229.421875 237.128906 C 229.585938 236.652344 229.769531 236.183594 229.964844 235.71875 C 230.164062 235.253906 230.371094 234.796875 230.597656 234.34375 C 230.824219 233.890625 231.0625 233.449219 231.316406 233.011719 C 231.566406 232.574219 231.832031 232.144531 232.113281 231.726562 C 232.390625 231.304688 232.683594 230.894531 232.988281 230.492188 C 233.292969 230.089844 233.613281 229.699219 233.941406 229.316406 C 234.269531 228.933594 234.613281 228.5625 234.964844 228.203125 C 235.316406 227.839844 235.679688 227.492188 236.054688 227.152344 C 236.429688 226.816406 236.8125 226.488281 237.207031 226.175781 C 237.605469 225.859375 238.007812 225.558594 238.421875 225.269531 C 238.835938 224.980469 239.257812 224.703125 239.6875 224.441406 C 240.121094 224.179688 240.558594 223.929688 241.003906 223.691406 C 241.449219 223.457031 241.902344 223.234375 242.363281 223.027344 C 242.824219 222.820312 243.289062 222.628906 243.761719 222.449219 C 244.234375 222.269531 244.710938 222.109375 245.195312 221.960938 C 245.675781 221.808594 246.164062 221.675781 246.65625 221.558594 C 247.144531 221.441406 247.640625 221.335938 248.136719 221.25 C 248.632812 221.160156 249.132812 221.089844 249.636719 221.03125 C 250.136719 220.976562 250.640625 220.933594 251.144531 220.910156 C 251.648438 220.882812 252.152344 220.875 252.660156 220.882812 C 253.164062 220.886719 253.667969 220.910156 254.171875 220.945312 C 254.675781 220.984375 255.175781 221.039062 255.675781 221.105469 C 256.175781 221.175781 256.675781 221.257812 257.167969 221.359375 C 257.664062 221.457031 258.15625 221.574219 258.644531 221.703125 C 259.132812 221.832031 259.613281 221.980469 260.09375 222.140625 C 260.570312 222.300781 261.046875 222.476562 261.511719 222.664062 C 261.980469 222.855469 262.441406 223.058594 262.898438 223.277344 C 263.351562 223.496094 263.800781 223.726562 264.242188 223.972656 C 264.679688 224.21875 265.113281 224.480469 265.539062 224.753906 C 265.960938 225.027344 266.378906 225.3125 266.785156 225.613281 C 267.191406 225.910156 267.585938 226.222656 267.976562 226.546875 C 268.363281 226.871094 268.738281 227.207031 269.105469 227.554688 C 269.472656 227.902344 269.824219 228.257812 270.167969 228.628906 C 270.511719 228.996094 270.84375 229.378906 271.164062 229.765625 C 271.484375 230.15625 271.792969 230.558594 272.089844 230.964844 C 272.382812 231.375 272.664062 231.792969 272.933594 232.21875 C 273.203125 232.648438 273.460938 233.082031 273.703125 233.523438 C 273.945312 233.96875 274.171875 234.417969 274.386719 234.875 C 274.601562 235.332031 274.800781 235.792969 274.984375 236.261719 C 275.167969 236.730469 275.339844 237.207031 275.496094 237.6875 C 275.652344 238.164062 275.792969 238.648438 275.917969 239.140625 C 276.042969 239.628906 276.152344 240.121094 276.246094 240.613281 C 276.339844 241.109375 276.421875 241.609375 276.484375 242.109375 C 276.546875 242.609375 276.59375 243.109375 276.628906 243.613281 C 276.660156 244.117188 276.675781 244.621094 276.675781 245.125 C 276.679688 246.78125 276.515625 248.417969 276.175781 250.039062 C 275.839844 251.660156 275.34375 253.230469 274.679688 254.75 C 274.019531 256.265625 273.207031 257.699219 272.246094 259.050781 C 271.289062 260.398438 270.199219 261.636719 268.984375 262.761719 C 268.476562 263.234375 268.074219 263.78125 267.769531 264.402344 L 267.230469 265.503906 C 264.570312 270.511719 262.441406 275.738281 260.851562 281.183594 C 259.261719 286.628906 258.242188 292.175781 257.789062 297.828125 C 257.753906 298.21875 257.757812 298.609375 257.800781 299 C 257.847656 299.390625 257.929688 299.773438 258.054688 300.144531 C 258.179688 300.515625 258.34375 300.871094 258.542969 301.210938 C 258.742188 301.550781 258.972656 301.863281 259.238281 302.152344 C 259.503906 302.445312 259.792969 302.703125 260.113281 302.933594 C 260.433594 303.164062 260.769531 303.355469 261.128906 303.515625 C 261.492188 303.671875 261.863281 303.792969 262.246094 303.875 C 262.632812 303.953125 263.019531 303.996094 263.414062 303.996094 L 266.640625 303.996094 C 266.78125 304.515625 266.847656 305.042969 266.84375 305.578125 L 266.84375 312.582031 C 266.84375 312.953125 266.878906 313.320312 266.949219 313.683594 C 267.023438 314.046875 267.128906 314.398438 267.273438 314.742188 C 267.414062 315.085938 267.589844 315.410156 267.792969 315.71875 C 268 316.027344 268.234375 316.3125 268.496094 316.574219 C 268.757812 316.835938 269.042969 317.070312 269.351562 317.273438 C 269.660156 317.480469 269.988281 317.65625 270.328125 317.796875 C 270.671875 317.9375 271.027344 318.046875 271.390625 318.117188 C 271.753906 318.191406 272.121094 318.226562 272.492188 318.226562 L 296.101562 318.226562 C 296.3125 318.222656 296.515625 318.261719 296.714844 318.34375 C 296.910156 318.421875 297.082031 318.535156 297.234375 318.683594 C 297.386719 318.832031 297.503906 319.003906 297.585938 319.199219 C 297.667969 319.394531 297.710938 319.597656 297.714844 319.808594 Z M 297.714844 337.804688 " fill-opacity="1" fill-rule="nonzero"/><path fill="#7ed957" d="M 187.726562 262.328125 C 187.050781 261.851562 186.328125 261.457031 185.5625 261.148438 C 184.792969 260.839844 183.996094 260.625 183.179688 260.507812 C 182.359375 260.386719 181.535156 260.363281 180.710938 260.4375 C 179.886719 260.511719 179.082031 260.679688 178.296875 260.945312 C 172.296875 263.105469 169.894531 270.386719 167.351562 278.09375 C 166.195312 282.324219 164.503906 286.332031 162.273438 290.109375 C 162.054688 289.421875 161.84375 288.695312 161.667969 288.09375 C 160.195312 283.027344 157.441406 273.605469 147.773438 274.628906 C 140 275.464844 136.648438 282.394531 133.691406 288.507812 C 130.511719 295.089844 128.253906 299.136719 123.699219 299.824219 C 123.429688 299.871094 123.15625 299.890625 122.882812 299.882812 C 121.847656 297.59375 123.277344 289.136719 125.914062 282.261719 C 126.046875 281.917969 126.144531 281.5625 126.210938 281.195312 C 126.273438 280.832031 126.296875 280.464844 126.289062 280.09375 C 126.277344 279.722656 126.234375 279.359375 126.152344 278.996094 C 126.070312 278.636719 125.953125 278.285156 125.804688 277.945312 C 125.652344 277.609375 125.46875 277.289062 125.257812 276.984375 C 125.042969 276.683594 124.800781 276.402344 124.53125 276.148438 C 124.265625 275.894531 123.972656 275.667969 123.660156 275.46875 C 123.347656 275.269531 123.015625 275.105469 122.671875 274.972656 C 122.324219 274.839844 121.96875 274.742188 121.601562 274.679688 C 121.238281 274.617188 120.871094 274.589844 120.5 274.597656 C 120.128906 274.605469 119.761719 274.652344 119.398438 274.734375 C 119.039062 274.816406 118.6875 274.929688 118.347656 275.082031 C 118.011719 275.230469 117.6875 275.414062 117.386719 275.625 C 117.082031 275.839844 116.804688 276.082031 116.546875 276.347656 C 116.292969 276.617188 116.066406 276.90625 115.867188 277.21875 C 115.667969 277.53125 115.503906 277.863281 115.371094 278.207031 C 113.507812 283.03125 107.921875 299.378906 114.195312 307.171875 C 114.726562 307.824219 115.324219 308.402344 115.988281 308.914062 C 116.652344 309.425781 117.367188 309.855469 118.132812 310.203125 C 118.894531 310.546875 119.6875 310.804688 120.511719 310.96875 C 121.335938 311.128906 122.167969 311.199219 123.003906 311.171875 C 123.804688 311.167969 124.601562 311.105469 125.394531 310.984375 C 136.164062 309.351562 140.617188 300.140625 143.867188 293.414062 C 145.382812 290.277344 147.253906 286.414062 148.832031 285.894531 C 149.703125 287.601562 150.367188 289.386719 150.816406 291.246094 C 152.070312 295.546875 153.488281 300.421875 158.105469 302.195312 C 158.84375 302.453125 159.597656 302.617188 160.375 302.691406 C 161.152344 302.765625 161.925781 302.746094 162.699219 302.636719 C 163.472656 302.523438 164.21875 302.320312 164.941406 302.027344 C 165.667969 301.734375 166.34375 301.363281 166.976562 300.90625 C 172.933594 297.238281 175.550781 289.300781 178.082031 281.625 C 179.039062 278.292969 180.316406 275.085938 181.914062 272.003906 C 182.230469 272.1875 182.5625 272.335938 182.910156 272.453125 C 183.257812 272.570312 183.609375 272.65625 183.972656 272.703125 C 184.335938 272.75 184.703125 272.765625 185.066406 272.742188 C 185.433594 272.71875 185.792969 272.664062 186.148438 272.570312 C 186.503906 272.480469 186.84375 272.355469 187.175781 272.195312 C 187.503906 272.035156 187.816406 271.847656 188.109375 271.628906 C 188.402344 271.410156 188.671875 271.164062 188.917969 270.890625 C 189.164062 270.621094 189.378906 270.328125 189.570312 270.015625 C 189.757812 269.699219 189.914062 269.371094 190.039062 269.027344 C 190.164062 268.683594 190.253906 268.332031 190.308594 267.96875 C 190.363281 267.609375 190.386719 267.242188 190.371094 266.878906 C 190.355469 266.511719 190.304688 266.152344 190.21875 265.796875 C 190.132812 265.441406 190.015625 265.097656 189.863281 264.761719 C 189.710938 264.429688 189.527344 264.117188 189.316406 263.820312 C 189.101562 263.519531 188.859375 263.246094 188.59375 262.996094 C 188.328125 262.746094 188.039062 262.523438 187.726562 262.328125 Z M 187.726562 262.328125 " fill-opacity="1" fill-rule="nonzero"/><path fill="#7ed957" d="M 114.101562 212.414062 C 114.101562 212.785156 114.136719 213.152344 114.207031 213.515625 C 114.28125 213.878906 114.386719 214.230469 114.53125 214.574219 C 114.671875 214.917969 114.847656 215.242188 115.050781 215.550781 C 115.257812 215.859375 115.492188 216.144531 115.753906 216.40625 C 116.015625 216.667969 116.304688 216.902344 116.609375 217.105469 C 116.917969 217.3125 117.246094 217.488281 117.589844 217.628906 C 117.929688 217.769531 118.285156 217.878906 118.648438 217.949219 C 119.011719 218.023438 119.378906 218.058594 119.75 218.058594 L 214.019531 218.058594 C 217.171875 213.640625 220.972656 209.878906 225.421875 206.769531 L 119.75 206.769531 C 119.378906 206.769531 119.011719 206.808594 118.648438 206.878906 C 118.285156 206.953125 117.929688 207.058594 117.589844 207.199219 C 117.246094 207.34375 116.917969 207.515625 116.609375 207.722656 C 116.304688 207.929688 116.015625 208.164062 115.753906 208.425781 C 115.492188 208.6875 115.257812 208.972656 115.050781 209.28125 C 114.847656 209.585938 114.671875 209.914062 114.53125 210.253906 C 114.386719 210.597656 114.28125 210.949219 114.207031 211.3125 C 114.136719 211.675781 114.101562 212.042969 114.101562 212.414062 Z M 114.101562 212.414062 " fill-opacity="1" fill-rule="nonzero"/></svg>